<?xml version="1.0" encoding="utf-8"?>
<!-- Generator: Adobe Illustrator 24.0.0, SVG Export Plug-In . SVG Version: 6.00 Build 0)  -->
<svg version="1.1" id="Layer_1" xmlns="http://www.w3.org/2000/svg" xmlns:xlink="http://www.w3.org/1999/xlink" x="0px" y="0px"
	 viewBox="0 0 216 120" style="enable-background:new 0 0 216 120;" xml:space="preserve">
<style type="text/css">
	.st0{fill:#008480;}
	.st1{fill:#75FBFD;}
</style>
<title>icon</title>
<g>
	<path class="st0" d="M180.3,60.2l-4.9-10.3c-4.3-6.3-7-14.1-16.4-14.1c-10.1,0-16,14.4-23.6,24.5H180.3L180.3,60.2z"/>
	<path class="st0" d="M53.5,37.3c-4.2,0-12.5,5.7-15.1,13.7l-2.5,9.1h35.1C67.3,48.6,63.6,37.3,53.5,37.3z"/>
</g>
<path class="st1" d="M72.5,59.5h-2.8c-3.5-10.9-7-20.8-15.8-20.8c-7.4,0-15,9.9-16.6,21.7L34.5,60C36.4,46.8,45,36,53.8,36
	C64.8,36,68.8,47.8,72.5,59.5z"/>
<path class="st1" d="M181.6,59.7l-2.5,1c-0.2-0.4-0.3-0.8-0.5-1.2c-4.4-10.7-10.5-22.4-19.2-22.4c-7.1,0-11.3,6.6-16.1,14.2
	c-1.7,2.7-3.5,5.5-5.6,8.2h-3.5c2.5-3.1,4.7-6.3,6.8-9.6c5-8,9.8-15.5,18.4-15.5c10.5,0,17.1,12.7,22.1,25.1
	C181.6,59.6,181.6,59.6,181.6,59.7z"/>
<g>
	<rect x="11.2" y="59.5" class="st1" width="6.1" height="1.4"/>
	<path class="st1" d="M186.9,60.9h-12.1v-1.4h12.1V60.9z M162.7,60.9h-12.1v-1.4h12.1L162.7,60.9z M138.5,60.9h-12.1v-1.4h12.1
		L138.5,60.9z M114.3,60.9h-12.1v-1.4h12.1L114.3,60.9z M90,60.9H77.9v-1.4H90V60.9z M65.9,60.9H53.7v-1.4h12.2L65.9,60.9z
		 M41.7,60.9H29.5v-1.4h12.1L41.7,60.9z"/>
	<rect x="199" y="59.5" class="st1" width="6.1" height="1.4"/>
</g>
<path class="st1" d="M88.6,86.5c-2.7-0.2-5.1-1.2-7.2-2.8l1.8-2.4c1.7,1.3,3.5,2,5.6,2.2L88.6,86.5z M96.3,84.6l-1.8-2.4
	c1.6-1.2,2.6-3,3.6-4.8l0.2-0.3l2.6,1.4l-0.2,0.3C99.6,80.8,98.3,83,96.3,84.6z M76.5,78c-1.1-1.8-2.1-3.9-3.1-6.5l2.8-1.1
	c1,2.4,1.9,4.4,2.9,6.1L76.5,78z M104.6,73.9l-1.3-2.7c1-0.5,2.1-0.8,3.4-0.8c1.6-0.1,2.9-0.1,4-0.2l0.2,3c-1.2,0.1-2.4,0.1-4,0.2
	C106,73.5,105.3,73.6,104.6,73.9z M118,72.6l-0.3-3l0.3,0c2.1-0.2,4.2-0.8,6-1.6l1.2,2.7c-2.2,1-4.5,1.6-6.9,1.8L118,72.6z
	 M131.4,66.7l-2-2.2c1.5-1.3,3-3,4.5-4.9l2.4,1.8C134.6,63.4,133,65.2,131.4,66.7z M71.1,64.7c-0.2-0.8-0.5-1.5-0.7-2.3
	c-0.2-0.5-0.3-1-0.5-1.5l2.8-1c0.2,0.5,0.4,1.1,0.5,1.6c0.2,0.7,0.5,1.5,0.7,2.2L71.1,64.7z"/>
</svg>
