<?xml version="1.0" encoding="utf-8"?>
<!-- Generator: Adobe Illustrator 24.0.0, SVG Export Plug-In . SVG Version: 6.00 Build 0)  -->
<svg version="1.1" id="Layer_1" xmlns="http://www.w3.org/2000/svg" xmlns:xlink="http://www.w3.org/1999/xlink" x="0px" y="0px"
	 viewBox="0 0 246 150" style="enable-background:new 0 0 246 150;" xml:space="preserve">
<style type="text/css">
	.st0{fill:#75FBFD;}
	.st1{fill:#008480;}
</style>
<title>label</title>
<path class="st0" d="M126,150h-6v-9h6V150z M126,124h-6v-17h6V124z"/>
<path class="st0" d="M126,51h-6V34h6V51z M126,17h-6V0h6V17z"/>
<g>
	<path class="st1" d="M213.1,75.5l-6.2-13c-5.4-7.9-8.8-17.8-20.6-17.8c-12.7,0-20.1,18.1-29.6,30.7H213.1L213.1,75.5z"/>
	<path class="st1" d="M53.9,46.8c-5.3,0-15.7,7.1-19,17.2l-3.2,11.4h44C71.2,61,66.5,46.8,53.9,46.8z"/>
</g>
<path class="st0" d="M77.8,74.6h-3.6c-4.4-13.7-8.8-26.1-19.9-26.1c-9.3,0-18.8,12.5-20.8,27.2l-3.4-0.5
	c2.3-16.6,13.2-30.1,24.2-30.1C68.1,45.1,73.1,59.9,77.8,74.6z"/>
<path class="st0" d="M214.7,74.8l-3.2,1.3c-0.2-0.5-0.4-1-0.6-1.5c-5.5-13.4-13.2-28.1-24.1-28.1c-8.9,0-14.1,8.3-20.2,17.8
	c-2.2,3.4-4.4,7-7,10.3h-4.4c3.1-3.8,5.9-7.9,8.4-12.1c6.3-10,12.3-19.4,23.1-19.4c13.2,0,21.5,15.9,27.8,31.6
	C214.6,74.7,214.6,74.8,214.7,74.8z"/>
<g>
	<rect x="0.9" y="74.6" class="st0" width="7.7" height="1.7"/>
	<path class="st0" d="M221.3,76.3h-15.2v-1.7h15.2L221.3,76.3z M190.9,76.3h-15.2v-1.7h15.2V76.3z M160.5,76.3h-15.2v-1.7h15.2
		L160.5,76.3z M130.1,76.3h-15.2v-1.7h15.2L130.1,76.3z M99.7,76.3H84.5v-1.7h15.2L99.7,76.3z M69.4,76.3H54.2v-1.7h15.3L69.4,76.3z
		 M39,76.3H23.8v-1.7H39L39,76.3z"/>
	<rect x="236.5" y="74.6" class="st0" width="7.7" height="1.7"/>
</g>
<path class="st0" d="M98.3,108.2c-2.6-0.2-5.1-0.9-7.3-2.2l1.5-2.6c1.8,1.1,3.8,1.7,6,1.8L98.3,108.2z M105.9,106.7l-1.5-2.6
	c1.6-0.9,2.9-2.3,4.2-4.5l2.6,1.6C110.2,103,108.6,105.3,105.9,106.7z M85.5,100.9c-1.4-1.7-2.6-3.8-3.9-6.2l2.7-1.3
	c1.1,2.3,2.3,4.1,3.5,5.7L85.5,100.9z M114.7,95.2l-2.5-1.7c1.1-1.6,3-3.8,6.4-4.6l0.6,2.9C117.5,92.3,116.1,93.3,114.7,95.2z
	 M126.1,91.4l-0.2-3c2.4-0.1,4.4-0.3,6.9-0.5l0.3,3C130.5,91.1,128.6,91.3,126.1,91.4z M140.3,89.6l-0.9-2.9c2.1-0.6,4.1-1.5,6-2.7
	l1.6,2.5C144.9,87.9,142.6,88.9,140.3,89.6z M78.8,88.2c-0.7-1.9-1.4-4-2.3-6.7l2.9-0.9c0.9,2.6,1.6,4.7,2.3,6.6L78.8,88.2z
	 M152.7,82l-2.1-2.2c1.5-1.5,3-3.1,4.5-5.1l2.4,1.8C155.9,78.7,154.3,80.5,152.7,82z"/>
</svg>
