<svg xmlns="http://www.w3.org/2000/svg" viewBox="0 0 170 100">
  <defs>
    <style>
      .cls-1 {
        opacity: 0.5;
      }

      .cls-2 {
        fill: #75fbfd;
      }

      .cls-3 {
        fill: #008480;
      }
    </style>
  </defs>
  <title>Asset 12</title>
  <g id="Layer_2" data-name="Layer 2">
    <g id="UI">
      <g>
        <g class="cls-1">
          <polygon points="0 0 0 100 37.08 100 170 100 170 36.65 170 0 0 0"/>
        </g>
        <g class="cls-1">
          <path class="cls-2" d="M164,5.94V94.06H6V5.94H164M170,0H0V100H170V0Z"/>
        </g>
        <g>
          <g>
            <path class="cls-3" d="M9.86,93.06,64.5,62.58a24.06,24.06,0,0,0,42-23.42L163,7.65V93.06Z"/>
            <path class="cls-2" d="M162,9.35V92.06H13.7L64.16,63.91a25.06,25.06,0,0,0,43.63-24.33L162,9.35m2-3.41L105.14,38.77A23.06,23.06,0,1,1,64.86,61.23L6,94.06H164V5.94Z"/>
          </g>
          <g>
            <path class="cls-3" d="M85,26.94A23.06,23.06,0,0,0,64.86,61.23l40.28-22.46A23,23,0,0,0,85,26.94Z"/>
            <path class="cls-2" d="M64.48,62.59,64,61.72a24.06,24.06,0,1,1,42-23.44l.49.87ZM85,27.94A22.05,22.05,0,0,0,65.27,59.86l38.49-21.47A22.11,22.11,0,0,0,85,27.94Z"/>
          </g>
        </g>
      </g>
    </g>
  </g>
</svg>
