<svg id="Layer_1" data-name="Layer 1" xmlns="http://www.w3.org/2000/svg" viewBox="0 0 216 120">
  <defs>
    <style>
      .cls-1 {
        fill: #008480;
      }

      .cls-2 {
        fill: #75fbfd;
      }
    </style>
  </defs>
  <title>icon</title>
  <g>
    <path class="cls-1" d="M180.38,59.77l-4.93-10.31c-4.26-6.25-7-14.12-16.36-14.12-10.12,0-16,14.38-23.55,24.43h44.84Z"/>
    <path class="cls-1" d="M53.67,37c-4.19,0-12.48,5.69-15.09,13.73L36,59.77h35C67.47,48.24,63.72,37,53.67,37Z"/>
  </g>
  <path class="cls-2" d="M89.84,85.56C78.3,85.56,74.21,73,70.38,60.78,66.72,49.23,63.25,38.32,54,38.32c-7.37,0-15,9.92-16.57,21.64l-2.73-.38c1.83-13.23,10.48-24,19.29-24C65.23,35.6,69.17,48,73,60c3.74,11.75,7.27,22.88,16.86,22.88,4.19,0,5.66-2.73,7.52-6.12s4.18-7.72,10.22-8c5.29-.26,7.36-.39,11.86-.88,10.69-1.15,16.24-9.9,21.61-18.38,5-8,9.82-15.47,18.41-15.47,10.56,0,17.15,12.78,22.19,25.29l-2.52,1c-4.43-11-10.68-23.59-19.67-23.59-7.09,0-11.27,6.59-16.11,14.21-5.45,8.6-11.62,18.35-23.62,19.63-4.56.49-6.65.63-12,.89-4.52.21-6.12,3.17-8,6.59S95.65,85.56,89.84,85.56Z"/>
  <g>
    <rect class="cls-2" x="11.46" y="59.09" width="6.13" height="1.36"/>
    <path class="cls-2" d="M186.91,60.45h-12.1V59.09h12.1Zm-24.19,0H150.63V59.09h12.09Zm-24.18,0h-12.1V59.09h12.1Zm-24.19,0H102.24V59.09h12.11Zm-24.2,0H78.06V59.09H90.15ZM66,60.45H53.87V59.09H66Zm-24.18,0H29.69V59.09H41.78Z"/>
    <rect class="cls-2" x="199" y="59.09" width="6.13" height="1.36"/>
  </g>
</svg>
