<?xml version="1.0" encoding="utf-8"?>
<!-- Generator: Adobe Illustrator 24.0.0, SVG Export Plug-In . SVG Version: 6.00 Build 0)  -->
<svg version="1.1" id="Layer_1" xmlns="http://www.w3.org/2000/svg" xmlns:xlink="http://www.w3.org/1999/xlink" x="0px" y="0px"
	 viewBox="0 0 246 150" style="enable-background:new 0 0 246 150;" xml:space="preserve">
<style type="text/css">
	.st0{fill:#75FBFD;}
	.st1{fill:#008480;}
</style>
<title>label</title>
<path class="st0" d="M126,150h-6v-9h6V150z M126,124h-6v-17h6V124z"/>
<path class="st0" d="M126,51h-6V34h6V51z M126,17h-6V0h6V17z"/>
<g>
	<path class="st1" d="M212.1,75.1l-6.1-12.7c-5.2-7.7-8.6-17.4-20.1-17.4c-12.5,0-19.7,17.7-29,30.1L212.1,75.1L212.1,75.1z"/>
	<path class="st1" d="M56.1,47c-5.2,0-15.4,7-18.6,16.9l-3.1,11.2h43.2C73.1,60.9,68.4,47,56.1,47z"/>
</g>
<path class="st0" d="M100.6,106.9c-14.2,0-19.2-15.5-24-30.5c-4.5-14.2-8.7-27.7-20.1-27.7c-9.1,0-18.5,12.2-20.4,26.7l-3.3-0.5
	C35,58.6,45.6,45.4,56.5,45.4c13.8,0,18.7,15.2,23.3,30c4.6,14.5,9,28.2,20.8,28.2c5.2,0,7-3.4,9.2-7.5s5.2-9.5,12.6-9.9
	c6.5-0.3,9.1-0.5,14.6-1.1c13.2-1.4,20-12.2,26.6-22.6c6.2-9.8,12.1-19.1,22.7-19.1c13,0,21.1,15.8,27.3,31.2l-3.1,1.2
	c-5.4-13.5-13.1-29-24.2-29c-8.7,0-13.9,8.1-19.8,17.5c-6.7,10.6-14.3,22.6-29.1,24.2c-5.6,0.6-8.2,0.8-14.8,1.1
	c-5.6,0.3-7.5,3.9-9.8,8.1S107.8,106.9,100.6,106.9z"/>
<g>
	<rect x="4.1" y="74.3" class="st0" width="7.6" height="1.7"/>
	<path class="st0" d="M220.2,76h-14.9v-1.7h14.9V76z M190.4,76h-14.9v-1.7h14.9V76z M160.6,76h-14.9v-1.7h14.9V76z M130.8,76h-14.9
		v-1.7h14.9V76z M101,76H86.1v-1.7H101V76z M71.3,76h-15v-1.7h15V76z M41.5,76h-15v-1.7h14.9L41.5,76z"/>
	<rect x="235.1" y="74.3" class="st0" width="7.6" height="1.7"/>
</g>
</svg>
