<svg id="Layer_1" data-name="Layer 1" xmlns="http://www.w3.org/2000/svg" viewBox="0 0 92 46"><defs><style>.cls-1{fill:#fff;}</style></defs><title>icon</title><g id="Routing_Layer-2" data-name="Routing Layer-2"><path class="cls-1" d="M42.06,22.94A15,15,0,0,1,27,38h0V33.88a11,11,0,1,0-10.94-12.2l5,.17-7.24,6.81L7.06,21.51l5,.17a15.06,15.06,0,0,1,30,1.26Z"/></g><g id="Routing_Layer-2-2" data-name="Routing Layer-2"><path class="cls-1" d="M53.94,22.94A15,15,0,0,0,69,38h0V33.88a11,11,0,1,1,10.94-12.2l-5,.17,7.24,6.81,6.73-7.15-5,.17a15.06,15.06,0,0,0-30,1.26Z"/></g></svg>