<svg id="Layer_1" data-name="Layer 1" xmlns="http://www.w3.org/2000/svg" viewBox="0 0 230 46"><defs><style>.cls-1{opacity:0.4;}.cls-2,.cls-3{fill:none;stroke:#fff;stroke-miterlimit:10;stroke-width:2px;}.cls-3{stroke-dasharray:5.71 5.71;}.cls-4{fill:#fff;}</style></defs><title>label</title><g class="cls-1"><line class="cls-2" x1="46" x2="46" y2="3"/><line class="cls-3" x1="46" y1="8.71" x2="46" y2="40.14"/><line class="cls-2" x1="46" y1="43" x2="46" y2="46"/></g><g class="cls-1"><polyline class="cls-3" points="47 23 184 23 184 46"/><line class="cls-2" x1="184" y1="43" x2="184" y2="46"/><line class="cls-2" x1="182" y1="23" x2="185" y2="23"/></g><g id="Routing_Layer-2" data-name="Routing Layer-2"><path class="cls-4" d="M91.06,22.94A15,15,0,0,1,76,38h0V33.88a11,11,0,1,0-10.94-12.2l5,.17-7.24,6.81-6.73-7.15,5,.17a15.06,15.06,0,0,1,30,1.26Z"/></g><g id="Routing_Layer-2-2" data-name="Routing Layer-2"><path class="cls-4" d="M140.94,22.94A15,15,0,0,0,156,38h0V33.88a11,11,0,1,1,10.94-12.2l-5,.17,7.24,6.81,6.73-7.15-5,.17a15.06,15.06,0,0,0-30,1.26Z"/></g></svg>