<?xml version="1.0" encoding="utf-8"?>
<!-- Generator: Adobe Illustrator 24.0.0, SVG Export Plug-In . SVG Version: 6.00 Build 0)  -->
<svg version="1.1" id="Layer_1" xmlns="http://www.w3.org/2000/svg" xmlns:xlink="http://www.w3.org/1999/xlink" x="0px" y="0px"
	 viewBox="0 0 216 120" style="enable-background:new 0 0 216 120;" xml:space="preserve">
<style type="text/css">
	.st0{fill:#008480;}
	.st1{fill:#00F9F9;}
</style>
<title>icon</title>
<g>
	<path class="st0" d="M5.8,118.5L76.8,79c10.6,17.2,33,22.5,50.2,12c16.1-9.9,22-30.5,13.5-47.4l73.9-41v116L5.8,118.5z"/>
	<path class="st1" d="M213,5.1V117H11.6l64.8-36C88,98.5,111.6,103.2,129,91.6c15.5-10.3,21.3-30.4,13.5-47.4L213,5.1 M216,0
		l-77.4,43c9.6,16.8,3.9,38.2-12.9,47.8s-38.2,3.9-47.8-12.9c-0.2-0.3-0.3-0.6-0.5-0.9L0,120h216V0z"/>
</g>
<g>
	<path class="st0" d="M138.6,43L77.4,77c-9.6-16.8-3.9-38.2,12.9-47.8s38.2-3.9,47.8,12.9C138.3,42.4,138.4,42.7,138.6,43z"/>
	<path class="st1" d="M76.8,79l-0.7-1.3c-10-17.4-4-39.8,13.5-49.8c17.4-10,39.8-4,49.8,13.5c0.2,0.3,0.3,0.6,0.5,0.9l0.7,1.3
		L76.8,79z M107.7,26.1c-5.7,0-11.4,1.4-16.6,4.4C75.5,39.5,69.8,59.1,78,75l58.5-32.5C130.3,31.9,119.1,26.1,107.7,26.1z"/>
</g>
</svg>
