<?xml version="1.0" encoding="utf-8"?>
<!-- Generator: Adobe Illustrator 24.0.0, SVG Export Plug-In . SVG Version: 6.00 Build 0)  -->
<svg version="1.1" id="Layer_1" xmlns="http://www.w3.org/2000/svg" xmlns:xlink="http://www.w3.org/1999/xlink" x="0px" y="0px"
	 viewBox="0 0 246 150" style="enable-background:new 0 0 246 150;" xml:space="preserve">
<style type="text/css">
	.st0{fill:#75FBFD;}
	.st1{fill:#008480;}
</style>
<title>label</title>
<path class="st0" d="M126,150h-6v-14h6V150z M126,119h-6v-17h6V119z M126,85h-6V68h6V85z M126,51h-6V34h6V51z M126,17h-6V0h6V17z"/>
<g>
	<path class="st1" d="M5.3,148.5l85.9-52.3c11.4,17.3,34.7,22,52,10.6c16.4-10.8,21.6-32.4,12-49.6l89.3-54.5v145.8H5.3z"/>
	<path class="st0" d="M243,5.3V147H10.7l80.1-48.8c12.5,17.6,36.8,21.7,54.4,9.2c15.8-11.3,21-32.4,12-49.7L243,5.3L243,5.3z M246,0
		l-92.9,56.6c10.4,17,5,39.1-12,49.5s-39.1,5-49.5-12L0,150h246V0z"/>
</g>
<g>
	<path class="st1" d="M153.1,56.6L91.7,94.1c-10.4-17-5-39.1,12-49.5S142.8,39.6,153.1,56.6z"/>
	<path class="st0" d="M91.2,96.2l-0.8-1.3c-5.2-8.6-6.8-18.6-4.4-28.4c2.4-9.7,8.4-18,16.9-23.2s18.6-6.8,28.4-4.4
		c9.7,2.4,18,8.4,23.2,16.9l0.8,1.3L91.2,96.2z M122.3,40.8c-6.3,0-12.4,1.7-17.9,5.1C96.6,50.7,91,58.3,88.9,67.2
		C86.8,75.7,88,84.4,92.2,92l58.9-35.9c-4.8-7.2-12.1-12.3-20.5-14.3C127.8,41.2,125.1,40.8,122.3,40.8z"/>
</g>
</svg>
