<svg id="Routing_Layer" data-name="Routing Layer" xmlns="http://www.w3.org/2000/svg" viewBox="0 0 92 46"><defs><style>.cls-1{opacity:0.4;}.cls-2,.cls-3,.cls-4{fill:none;stroke:#fff;stroke-miterlimit:10;stroke-width:2px;}.cls-3{stroke-dasharray:5.71 5.71;}.cls-4{stroke-dasharray:1.01 1.01;}</style></defs><title>treshold</title><g class="cls-1"><line class="cls-2" x1="46" x2="46" y2="3"/><line class="cls-3" x1="46" y1="8.71" x2="46" y2="40.14"/><line class="cls-2" x1="46" y1="43" x2="46" y2="46"/></g><line class="cls-2" y1="23" x2="92" y2="23"/><path class="cls-2" d="M63.1,23.33c2-5.07,4.48-9.93,7.9-12.33,10-7,15-4,18,4"/><path class="cls-2" d="M0,12C9,4,15,1,23,12a59.52,59.52,0,0,1,6,11.33"/><path class="cls-2" d="M29,23.33l.2.46"/><path class="cls-4" d="M29.62,24.72C33.33,33.54,36,41.34,40,38c6-5,9-6,14,1,3.18,4.46,5.15-5.27,8.74-14.73"/><path class="cls-2" d="M62.92,23.8l.18-.47"/></svg>