<svg xmlns="http://www.w3.org/2000/svg" viewBox="0 0 170 100"><defs><style>.cls-1{fill:#008480;}.cls-2{fill:#75fbfd;}.cls-3{opacity:0.5;}</style></defs><title>Asset 4</title><g id="Layer_2" data-name="Layer 2"><g id="UI"><path class="cls-1" d="M137.88,49.37l-3.61-7.56c-3.13-4.59-5.12-10.35-12-10.35-7.43,0-11.73,10.54-17.28,17.91h32.9Z"/><path class="cls-1" d="M44.94,32.65c-3.07,0-9.15,4.16-11.07,10.07L32,49.37H57.75C55.06,40.92,52.31,32.65,44.94,32.65Z"/><path class="cls-2" d="M71.47,68.29C63,68.29,60,59.05,57.2,50.11c-2.69-8.46-5.23-16.46-12-16.46-5.41,0-11,7.26-12.16,15.86l-2-.27c1.34-9.7,7.68-17.59,14.15-17.59,8.23,0,11.11,9.08,13.9,17.86s5.33,16.78,12.37,16.78c3.07,0,4.15-2,5.51-4.48,1.44-2.66,3.07-5.66,7.5-5.88,3.88-.19,5.4-.29,8.7-.64C101,54.45,105.09,48,109,41.8c3.7-5.83,7.2-11.34,13.5-11.34,7.75,0,12.58,9.37,16.28,18.54l-1.85.75c-3.25-8-7.83-17.29-14.43-17.29-5.2,0-8.26,4.83-11.81,10.42-4,6.3-8.53,13.45-17.33,14.39-3.34.36-4.88.47-8.81.66-3.31.16-4.49,2.32-5.85,4.83S75.73,68.29,71.47,68.29Z"/><rect class="cls-2" x="13.98" y="48.87" width="4.5" height="1"/><path class="cls-2" d="M142.67,49.87H133.8v-1h8.87Zm-17.74,0h-8.87v-1h8.87Zm-17.74,0H98.32v-1h8.87Zm-17.74,0H80.57v-1h8.88Zm-17.75,0H62.83v-1H71.7ZM54,49.87H45.09v-1H54Zm-17.74,0H27.35v-1h8.87Z"/><rect class="cls-2" x="151.54" y="48.87" width="4.5" height="1"/></g></g></svg>