<svg xmlns="http://www.w3.org/2000/svg" viewBox="0 0 170 100">
  <defs>
    <style>
      .cls-1 {
        opacity: 0.5;
      }

      .cls-2 {
        fill: #75fbfd;
      }

      .cls-3 {
        fill: #008480;
      }
    </style>
  </defs>
  <title>Asset 19</title>
  <g id="Layer_2" data-name="Layer 2">
    <g id="UI">
      <g>
        <g>
          <g class="cls-1">
            <polygon points="0 0 0 100 52.08 100 170 100 170 36.65 170 0 0 0"/>
          </g>
          <g class="cls-1">
            <path class="cls-2" d="M163.83,5.67V94.33H6.17V5.67H163.83M170,0H0V100H170V0Z"/>
          </g>
        </g>
        <g>
          <g>
            <rect class="cls-3" x="38.64" y="40" width="20" height="20"/>
            <path class="cls-2" d="M59.64,61h-22V39h22Zm-20-2h18V41h-18Z"/>
          </g>
          <g>
            <rect class="cls-3" x="91.36" y="30" width="40" height="40"/>
            <path class="cls-2" d="M132.36,71h-42V29h42Zm-40-2h38V31h-38Z"/>
          </g>
          <g>
            <rect class="cls-2" x="38.62" y="39.22" width="3" height="1" transform="translate(-6.7 8.18) rotate(-10.75)"/>
            <path class="cls-2" d="M46.89,39l-.19-1,5.2-1,.19,1Zm10.4-2-.19-1,5.21-1,.18,1Zm10.4-2-.18-1,5.2-1,.19,1ZM78.1,33l-.19-1,5.2-1,.19,1Z"/>
            <rect class="cls-2" x="88.38" y="29.78" width="3" height="1" transform="translate(-4.07 17.3) rotate(-10.75)"/>
          </g>
          <g>
            <rect class="cls-2" x="89.38" y="68.22" width="1" height="3" transform="translate(4.62 145.02) rotate(-79.25)"/>
            <path class="cls-2" d="M83.11,69l-5.2-1,.19-1,5.2,1Zm-10.4-2-5.2-1,.18-1,5.21,1Zm-10.4-2L57.1,64l.19-1,5.2,1ZM51.9,63l-5.2-1,.19-1,5.2,1Z"/>
            <rect class="cls-2" x="39.62" y="58.78" width="1" height="3" transform="translate(-26.58 88.46) rotate(-79.26)"/>
          </g>
        </g>
      </g>
    </g>
  </g>
</svg>
