<svg xmlns="http://www.w3.org/2000/svg" viewBox="0 0 170 100"><defs><style>.cls-1{fill:#008480;}.cls-2{fill:#75fbfd;}.cls-3{opacity:0.5;}</style></defs><title>Asset 9</title><g id="Layer_2" data-name="Layer 2"><g id="UI"><rect class="cls-1" x="38.65" y="42.37" width="20" height="20"/><path class="cls-2" d="M59.65,63.37h-22v-22h22Zm-20-2h18v-18h-18Z"/><rect class="cls-1" x="91.37" y="32.37" width="40" height="40"/><path class="cls-2" d="M132.37,73.37h-42v-42h42Zm-40-2h38v-38h-38Z"/><rect class="cls-2" x="38.63" y="41.59" width="3" height="1" transform="translate(-7.15 8.22) rotate(-10.75)"/><path class="cls-2" d="M46.9,41.32l-.19-1,5.2-1,.19,1Zm10.4-2-.19-1,5.21-1,.18,1Zm10.4-2-.18-1,5.2-1,.19,1Zm10.41-2-.19-1,5.2-1,.19,1Z"/><rect class="cls-2" x="88.39" y="32.15" width="3" height="1" transform="translate(-4.51 17.34) rotate(-10.75)"/><rect class="cls-2" x="89.39" y="70.59" width="1" height="3" transform="translate(2.3 146.96) rotate(-79.25)"/><path class="cls-2" d="M83.12,71.32l-5.2-1,.19-1,5.2,1Zm-10.4-2-5.2-1,.18-1,5.21,1Zm-10.4-2-5.21-1,.19-1,5.2,1Zm-10.41-2-5.2-1,.19-1,5.2,1Z"/><rect class="cls-2" x="39.63" y="61.15" width="1" height="3" transform="translate(-28.91 90.4) rotate(-79.26)"/></g></g></svg>