<svg xmlns="http://www.w3.org/2000/svg" viewBox="0 0 283.46 283.46">
  <defs>
    <style>
      .cls-1 {
        opacity: 0.5;
      }

      .cls-2 {
        fill: #008480;
      }

      .cls-3 {
        opacity: 0.25;
      }

      .cls-4 {
        fill: lime;
      }
    </style>
  </defs>
  <title>completed-icon</title>
  <g id="UI">
    <g>
      <g class="cls-1">
        <circle class="cls-2" cx="141.73" cy="141.73" r="121.18"/>
      </g>
      <g class="cls-3">
        <path class="cls-4" d="M141.73,34A107.72,107.72,0,1,1,34,141.73,107.84,107.84,0,0,1,141.73,34m0-13.47A121.18,121.18,0,1,0,262.91,141.73,121.19,121.19,0,0,0,141.73,20.55Z"/>
      </g>
      <path class="cls-4" d="M141.73,20.55A121.18,121.18,0,1,1,20.55,141.73,121.18,121.18,0,0,1,141.73,20.55m0-13.46C67.49,7.09,7.09,67.49,7.09,141.73s60.4,134.65,134.64,134.65S276.38,216,276.38,141.73,216,7.09,141.73,7.09Z"/>
      <polygon class="cls-4" points="181.62 89.42 123.15 147.89 101.84 126.58 78.76 149.66 100.07 170.97 100.07 170.97 123.15 194.05 146.23 170.97 204.71 112.5 181.62 89.42"/>
    </g>
  </g>
</svg>
