<svg xmlns="http://www.w3.org/2000/svg" viewBox="0 0 120.53 120.53">
  <defs>
    <style>
      .cls-1, .cls-2 {
        fill: lime;
      }

      .cls-1, .cls-3 {
        opacity: 0.25;
      }
    </style>
  </defs>
  <title>Asset 2</title>
  <g id="Layer_2" data-name="Layer 2">
    <g id="Layer_1-2" data-name="Layer 1">
      <g>
        <polygon class="cls-1" points="113.5 113.5 113.5 7.03 57.76 7.03 7.03 7.03 7.03 57.76 7.03 113.5 113.5 113.5"/>
        <path class="cls-2" d="M113.5,7V113.5H7V7H113.5m5-7H2A2,2,0,0,0,0,2V118.52a2,2,0,0,0,2,2H118.52a2,2,0,0,0,2-2V2a2,2,0,0,0-2-2Z"/>
        <g class="cls-3">
          <path class="cls-2" d="M106.47,14.06v92.41H14.06V14.06h92.41m7-7H7V113.5H113.5V7Z"/>
        </g>
      </g>
      <path class="cls-2" d="M60.24,26.56c-7.36,11.63-23,31.57-22.79,44.62A23,23,0,0,0,60.24,94C72.82,94,82.55,83.76,83,71.18,83.26,58.13,67.6,38.19,60.24,26.56Zm6,60A16.47,16.47,0,0,1,59.6,88a17.86,17.86,0,0,1-6.26-1.16,15.48,15.48,0,0,1-9.13-9.13,16.88,16.88,0,0,1,.23-12.9,1.18,1.18,0,0,1,1.08-.7,1.18,1.18,0,0,1,1.18,1.38,17.12,17.12,0,0,0,1.08,9.24,15.25,15.25,0,0,0,8.54,8.54,17.56,17.56,0,0,0,6.57,1.3,16.87,16.87,0,0,0,2.67-.21.71.71,0,0,1,.2,0,1.19,1.19,0,0,1,.48,2.27Z"/>
    </g>
  </g>
</svg>
