<svg xmlns="http://www.w3.org/2000/svg" viewBox="0 0 79.25 120">
  <defs>
    <style>
      .cls-1 {
        fill: none;
      }

      .cls-2 {
        opacity: 0.5;
      }

      .cls-3 {
        fill: #75fbfd;
      }

      .cls-4 {
        fill: #6ff;
      }

      .cls-5 {
        opacity: 0.25;
      }

      .cls-6 {
        fill: #ff007d;
      }
    </style>
  </defs>
  <title>Asset 48</title>
  <g id="Layer_2" data-name="Layer 2">
    <g id="UI">
      <g>
        <g>
          <path class="cls-1" d="M39.62,9.18A10.38,10.38,0,1,0,50,19.56,10.38,10.38,0,0,0,39.62,9.18Z"/>
          <g>
            <g class="cls-2">
              <path class="cls-3" d="M2,32.71a4.89,4.89,0,0,1,1.44-3.48L29.23,3.44a6.86,6.86,0,0,1,.62-.54A4.71,4.71,0,0,1,32.69,2H46.54A4.85,4.85,0,0,1,50,3.44l22,22L2,65.87ZM39.62,9.56a10,10,0,1,0,10,10A10,10,0,0,0,39.62,9.56Z"/>
            </g>
            <path class="cls-4" d="M46.54,4a2.86,2.86,0,0,1,2.06.86L68.76,25,4,62.41V32.71a2.86,2.86,0,0,1,.86-2.06L30.65,4.85a4.25,4.25,0,0,1,.42-.36A2.64,2.64,0,0,1,32.69,4H46.54M39.62,31.56h0a12,12,0,1,0-12-12,12,12,0,0,0,12,12M46.54,0H32.69a6.62,6.62,0,0,0-4,1.31,6.2,6.2,0,0,0-.83.72L2,27.82a6.88,6.88,0,0,0-2,4.89V69.33L75.28,25.87,51.43,2a6.92,6.92,0,0,0-4.89-2ZM39.62,27.56a8,8,0,1,1,8-8,8,8,0,0,1-8,8Z"/>
          </g>
          <g>
            <g class="cls-2">
              <path class="cls-3" d="M25,118,77.25,87.83v25.25A4.93,4.93,0,0,1,72.33,118Z"/>
            </g>
            <path class="cls-4" d="M75.25,91.3v21.78A2.92,2.92,0,0,1,72.33,116H32.46L75.25,91.3m4-6.93L17.53,120h54.8a6.92,6.92,0,0,0,6.92-6.92V84.37Z"/>
          </g>
          <g>
            <g class="cls-5">
              <path class="cls-6" d="M6.92,118A4.93,4.93,0,0,1,2,113.08V70.49L75,28.37l.86.86a5,5,0,0,1,1.44,3.48v50.5L17,118Z"/>
            </g>
            <path class="cls-6" d="M74.6,30.88a2.9,2.9,0,0,1,.65,1.83V82.06L16.46,116H6.92A2.92,2.92,0,0,1,4,113.08V71.64L74.6,30.88m.68-5L0,69.33v43.75A6.92,6.92,0,0,0,6.92,120H17.53L79.25,84.37V32.71a6.92,6.92,0,0,0-2-4.89l-1.94-1.95Z"/>
          </g>
        </g>
        <path class="cls-6" d="M48.06,70.51h-.94V63.67a7.5,7.5,0,0,0-15,0v6.84h-.93a2.92,2.92,0,0,0-2.92,2.92V89.25a2.92,2.92,0,0,0,2.92,2.92H48.06A2.92,2.92,0,0,0,51,89.25V73.43A2.92,2.92,0,0,0,48.06,70.51Zm-13.31,0V63.67a4.88,4.88,0,1,1,9.75,0v6.84Zm6.67,10.65v4.39a1.8,1.8,0,1,1-3.59,0V81.16a3.16,3.16,0,0,1-1.4-2.63,3.19,3.19,0,1,1,5,2.63Z"/>
      </g>
    </g>
  </g>
</svg>
