<svg xmlns="http://www.w3.org/2000/svg" viewBox="0 0 737.31 307.5"><defs><style>.cls-1{opacity:0.4;}.cls-2,.cls-3,.cls-5,.cls-6,.cls-7{fill:none;stroke:#fff;stroke-miterlimit:10;stroke-width:2px;}.cls-3{stroke-dasharray:5.71 5.71;}.cls-4{opacity:0.2;}.cls-5{stroke-dasharray:3.82 3.82;}.cls-6{stroke-dasharray:5.67 5.67;}.cls-7{stroke-dasharray:6.24 6.24;}.cls-8,.cls-9{fill:#fff;}.cls-9{font-size:30px;font-family:Helvetica-Bold, Helvetica;font-weight:700;}.cls-10{letter-spacing:-0.04em;}</style></defs><title>delay</title><g id="Routing_Layer" data-name="Routing Layer"><g class="cls-1"><line class="cls-2" x1="322.31" y1="164" x2="322.31" y2="167"/><line class="cls-3" x1="322.31" y1="172.71" x2="322.31" y2="204.14"/><line class="cls-2" x1="322.31" y1="207" x2="322.31" y2="210"/></g><g class="cls-1"><line class="cls-2" x1="322.31" y1="82" x2="322.31" y2="85"/><line class="cls-3" x1="322.31" y1="90.71" x2="322.31" y2="122.14"/><line class="cls-2" x1="322.31" y1="125" x2="322.31" y2="128"/></g><g class="cls-1"><line class="cls-2" x1="322.31" x2="322.31" y2="3"/><line class="cls-3" x1="322.31" y1="8.71" x2="322.31" y2="40.14"/><line class="cls-2" x1="322.31" y1="43" x2="322.31" y2="46"/></g><g class="cls-1"><line class="cls-2" x1="460.31" x2="460.31" y2="3"/><line class="cls-3" x1="460.31" y1="8.71" x2="460.31" y2="40.14"/><line class="cls-2" x1="460.31" y1="43" x2="460.31" y2="46"/></g><g class="cls-1"><line class="cls-2" x1="598.31" x2="598.31" y2="3"/><line class="cls-3" x1="598.31" y1="8.71" x2="598.31" y2="40.14"/><line class="cls-2" x1="598.31" y1="43" x2="598.31" y2="46"/></g><g class="cls-1"><line class="cls-2" x1="598.31" y1="82" x2="598.31" y2="85"/><line class="cls-3" x1="598.31" y1="90.71" x2="598.31" y2="122.14"/><line class="cls-2" x1="598.31" y1="125" x2="598.31" y2="128"/></g><g class="cls-1"><line class="cls-2" x1="736.31" x2="736.31" y2="3"/><line class="cls-3" x1="736.31" y1="8.71" x2="736.31" y2="40.14"/><line class="cls-2" x1="736.31" y1="43" x2="736.31" y2="46"/></g><g class="cls-4"><line class="cls-2" x1="460.31" y1="82" x2="460.31" y2="84"/><line class="cls-5" x1="460.31" y1="87.82" x2="460.31" y2="124.09"/><line class="cls-2" x1="460.31" y1="126" x2="460.31" y2="128"/></g><g class="cls-4"><line class="cls-2" x1="460.31" y1="82" x2="460.31" y2="84"/><line class="cls-5" x1="460.31" y1="87.82" x2="460.31" y2="124.09"/><line class="cls-2" x1="460.31" y1="126" x2="460.31" y2="128"/></g><g class="cls-1"><line class="cls-2" x1="460.31" y1="165" x2="460.31" y2="168"/><line class="cls-6" x1="460.31" y1="173.67" x2="460.31" y2="182.17"/><polyline class="cls-2" points="460.31 185 460.31 188 457.31 187.98"/><line class="cls-7" x1="451.07" y1="187.93" x2="329.43" y2="187.04"/><line class="cls-2" x1="326.31" y1="187.02" x2="323.31" y2="187"/></g><g class="cls-1"><line class="cls-2" x1="322.31" y1="246" x2="322.31" y2="249"/><line class="cls-3" x1="322.31" y1="254.71" x2="322.31" y2="286.14"/><line class="cls-2" x1="322.31" y1="289" x2="322.31" y2="292"/></g><path class="cls-8" d="M-148.5,252.5a55.06,55.06,0,0,1-55,55v-15a40,40,0,0,0,40-40,40,40,0,0,0-40-40,40.26,40.26,0,0,0-39.77,35.71l18,.49-26.2,24.8-24.81-26.19,18,.49A54.68,54.68,0,0,1-242,213.2a54.72,54.72,0,0,1,38.48-15.7A55.06,55.06,0,0,1-148.5,252.5Z" transform="translate(276.31)"/><polygon class="cls-8" points="94.81 254 94.81 261 64.31 261 64.31 230.5 71.31 230.5 71.31 254 94.81 254"/><path class="cls-8" d="M66,269.64a18.31,18.31,0,0,1-18.29,18.29v-5a13.3,13.3,0,1,0-13.22-14.73l6,.16-8.71,8.25-8.25-8.71,6,.16A18.29,18.29,0,0,1,66,269.64Z" transform="translate(276.31)"/><polygon class="cls-8" points="331.34 270.14 331.34 272.46 321.19 272.46 321.19 262.32 323.52 262.32 323.52 270.14 331.34 270.14"/></g><g id="Text_Layer" data-name="Text Layer"><text class="cls-9" transform="translate(345.05 196.33)"><tspan class="cls-10">A</tspan><tspan x="20.57" y="0" xml:space="preserve">  +  B</tspan></text></g></svg>