<?xml version="1.0" encoding="utf-8"?>
<!-- Generator: Adobe Illustrator 21.0.0, SVG Export Plug-In . SVG Version: 6.00 Build 0)  -->
<svg version="1.1" id="Routing_Layer" xmlns="http://www.w3.org/2000/svg" xmlns:xlink="http://www.w3.org/1999/xlink" x="0px"
	 y="0px" viewBox="0 0 92 46" style="enable-background:new 0 0 92 46;" xml:space="preserve">
<style type="text/css">
	.st0{opacity:0.4;}
	.st1{fill:none;stroke:#FFFFFF;stroke-width:2;stroke-miterlimit:10;}
	.st2{fill:none;stroke:#FFFFFF;stroke-width:2;stroke-miterlimit:10;stroke-dasharray:5.71,5.71;}
	.st3{fill:#FFFFFF;}
</style>
<title>icon</title>
<g class="st0">
	<line class="st1" x1="46" y1="0" x2="46" y2="3"/>
	<line class="st2" x1="46" y1="8.7" x2="46" y2="40.1"/>
	<line class="st1" x1="46" y1="43" x2="46" y2="46"/>
</g>
<g id="Routing_Layer-2">
	<path class="st3" d="M65.6,23.6c0,9.9-8,17.9-17.9,17.9v-4.9c7.2,0,13-5.9,13-13.1c0-7.2-5.9-13-13.1-13c-6.6,0-12.2,5-12.9,11.6
		l5.9,0.2L32,30.4L24,21.9l5.9,0.2c1-9.8,9.8-17,19.6-16C58.5,6.9,65.5,14.5,65.6,23.6z"/>
	<polygon class="st3" points="54.8,24.1 54.8,26.4 44.9,26.4 44.9,16.4 47.1,16.4 47.1,24.1 	"/>
</g>
</svg>
