<svg xmlns="http://www.w3.org/2000/svg" xmlns:xlink="http://www.w3.org/1999/xlink" viewBox="0 0 59.3 49.85"><defs><style>.cls-1{fill:#008480;}.cls-2{fill:#75fbfd;}</style><symbol id="delayIcon" data-name="delayIcon" viewBox="0 0 56.86 46.99"><circle class="cls-1" cx="12.96" cy="14.79" r="11.96"/><path class="cls-2" d="M13,27.75a13,13,0,1,1,13-13A13,13,0,0,1,13,27.75ZM13,3.82a11,11,0,1,0,11,11A11,11,0,0,0,13,3.82Z"/><path class="cls-2" d="M33.4,47a23.55,23.55,0,0,1-21.74-14.5,1,1,0,0,1,1.85-.77A21.5,21.5,0,1,0,25.14,3.64a1,1,0,0,1-.76-1.85,23.49,23.49,0,1,1,9,45.2Z"/><path class="cls-2" d="M11.77,22V19.58h2.39V22Zm.12-4.79V7.61H14v9.57Z"/><path class="cls-2" d="M39,29.75a1,1,0,0,1-.7-.29L32.7,23.91V10.18a1,1,0,0,1,2,0v12.9l5,5a1,1,0,0,1,0,1.41A1,1,0,0,1,39,29.75Z"/></symbol></defs><title>delayIconArtboard 7</title><g id="UI"><use width="56.86" height="46.99" transform="translate(1.1 0.88)" xlink:href="#delayIcon"/></g></svg>