<svg xmlns="http://www.w3.org/2000/svg" viewBox="0 0 170 100"><defs><style>.cls-1{fill:#008480;}.cls-2{fill:#75fbfd;}.cls-3{opacity:0.5;}</style></defs><title>Asset 5</title><g id="Layer_2" data-name="Layer 2"><g id="UI"><circle class="cls-1" cx="67.06" cy="40.67" r="11.96"/><path class="cls-2" d="M67.06,53.63a13,13,0,1,1,13-13A13,13,0,0,1,67.06,53.63Zm0-23.93a11,11,0,1,0,11,11A11,11,0,0,0,67.06,29.7Z"/><path class="cls-2" d="M87.5,72.87A23.53,23.53,0,0,1,65.76,58.36a1,1,0,0,1,.54-1.3,1,1,0,0,1,1.31.54A21.49,21.49,0,1,0,79.24,29.52,1,1,0,0,1,77.93,29a1,1,0,0,1,.54-1.3,23.5,23.5,0,1,1,9,45.2Z"/><path class="cls-2" d="M65.87,47.85v-2.4h2.39v2.4ZM66,43.06V33.49h2.15v9.57Z"/><path class="cls-2" d="M93.06,55.63a1,1,0,0,1-.71-.29L86.8,49.79V36.06a1,1,0,0,1,2,0V49l5,5a1,1,0,0,1,0,1.42A1,1,0,0,1,93.06,55.63Z"/></g></g></svg>