<svg xmlns="http://www.w3.org/2000/svg" viewBox="0 0 170 100">
  <defs>
    <style>
      .cls-1 {
        opacity: 0.5;
      }

      .cls-2 {
        fill: #75fbfd;
      }
    </style>
  </defs>
  <title>Asset 20</title>
  <g id="Layer_2" data-name="Layer 2">
    <g id="UI">
      <g>
        <g class="cls-1">
          <polygon points="0 0 0 100 37.08 100 170 100 170 36.65 170 0 0 0"/>
        </g>
        <g class="cls-1">
          <path class="cls-2" d="M164,6V94H6V6H164m6-6H0V100H170V0Z"/>
        </g>
        <g>
          <path class="cls-2" d="M48.87,60.27v-1.5l7.74-20.9h4.45l7.78,20.9v1.5H64.36L62.56,55H54.92l-1.86,5.25Zm7.39-9h4.93L58.76,44Z"/>
          <path class="cls-2" d="M75.43,60.27V37.87h4.16l8.57,14v-14h4.55v22.4H88.55L80,46.32v14Z"/>
          <path class="cls-2" d="M101.54,60.27V37.87h8.13c5.53,0,8.93,2.82,8.93,7.72v7c0,4.9-3.4,7.71-8.93,7.71Zm4.54-4h3.59c2.78,0,4.38-1.56,4.38-3.61V45.46c0-2.05-1.6-3.62-4.38-3.62h-3.59Z"/>
        </g>
      </g>
    </g>
  </g>
</svg>
