<?xml version="1.0" encoding="utf-8"?>
<!-- Generator: Adobe Illustrator 22.1.0, SVG Export Plug-In . SVG Version: 6.00 Build 0)  -->
<svg version="1.1" id="Layer_1" xmlns="http://www.w3.org/2000/svg" xmlns:xlink="http://www.w3.org/1999/xlink" x="0px" y="0px"
	 viewBox="0 0 92 46" style="enable-background:new 0 0 92 46;" xml:space="preserve">
<style type="text/css">
	.st0{enable-background:new    ;}
	.st1{fill:#FFFFFF;}
</style>
<title>icon</title>
<g class="st0">
	<path class="st1" d="M29.8,29.4h-8.2L19.5,34h-3.1l9.5-20.4L35,34h-3.2L29.8,29.4z M28.6,26.6l-2.8-6.5l-3,6.5H28.6z"/>
	<path class="st1" d="M37.4,34V13.5l14,14.6V14.8h2.9v20.3l-14-14.6V34H37.4z"/>
	<path class="st1" d="M58.8,34V14.8h4c1.9,0,3.5,0.2,4.6,0.6c1.2,0.4,2.3,1,3.3,1.9c2,1.8,3,4.2,3,7.1c0,2.9-1,5.3-3.1,7.1
		c-1,0.9-2.1,1.5-3.3,1.9c-1.1,0.4-2.6,0.5-4.5,0.5H58.8z M61.7,31.3H63c1.3,0,2.4-0.1,3.2-0.4c0.9-0.3,1.6-0.7,2.3-1.4
		c1.4-1.3,2.1-3,2.1-5.1c0-2.1-0.7-3.8-2.1-5.1c-1.3-1.2-3.1-1.8-5.6-1.8h-1.3V31.3z"/>
</g>
</svg>
