<svg id="Layer_1" data-name="Layer 1" xmlns="http://www.w3.org/2000/svg" viewBox="0 0 230 46"><defs><style>.cls-1{opacity:0.4;}.cls-2,.cls-3{fill:none;stroke:#fff;stroke-miterlimit:10;stroke-width:2px;}.cls-3{stroke-dasharray:5.71 5.71;}.cls-4,.cls-5{fill:#fff;}.cls-5{font-size:12px;font-family:Futura-Bold, Futura;font-weight:700;}</style></defs><title>blockIconTemplates</title><g class="cls-1"><line class="cls-2" x1="46" x2="46" y2="3"/><line class="cls-3" x1="46" y1="8.71" x2="46" y2="40.14"/><line class="cls-2" x1="46" y1="43" x2="46" y2="46"/></g><g class="cls-1"><polyline class="cls-3" points="47 23 184 23 184 0"/><line class="cls-2" x1="184" x2="184" y2="3"/><line class="cls-2" x1="182" y1="23" x2="185" y2="23"/></g><path class="cls-4" d="M53,36.8a6.45,6.45,0,0,1,.3-2,5.48,5.48,0,0,1,.8-1.5,3.6,3.6,0,0,1,4.9-.7,4.62,4.62,0,0,1,.7.7,4.35,4.35,0,0,1,.8,1.5,6.49,6.49,0,0,1,0,3.9,4.35,4.35,0,0,1-.8,1.5,2.94,2.94,0,0,1-1.2,1,3.54,3.54,0,0,1-4.3-1,4.35,4.35,0,0,1-.8-1.5A3.81,3.81,0,0,1,53,36.8Zm2.4,0a4.1,4.1,0,0,0,.1,1.1,6.89,6.89,0,0,0,.3.8,2.65,2.65,0,0,0,.5.6,1,1,0,0,0,1.2,0,1,1,0,0,0,.5-.6,6.89,6.89,0,0,1,.3-.8,8.1,8.1,0,0,0,0-2.2,6.89,6.89,0,0,0-.3-.8,1.21,1.21,0,0,0-.5-.5,1,1,0,0,0-1.2,0,1.21,1.21,0,0,0-.5.5,6.89,6.89,0,0,1-.3.8A4.48,4.48,0,0,0,55.4,36.8Z"/><path class="cls-4" d="M68.3,32.3v9H66v-9Z"/><text class="cls-5" transform="translate(98.96 16.41)">AND</text></svg>