<?xml version="1.0" encoding="utf-8"?>
<!-- Generator: Adobe Illustrator 25.3.1, SVG Export Plug-In . SVG Version: 6.00 Build 0)  -->
<svg version="1.1" id="Layer_1" xmlns="http://www.w3.org/2000/svg" xmlns:xlink="http://www.w3.org/1999/xlink" x="0px" y="0px"
	 viewBox="0 0 84 84" style="enable-background:new 0 0 84 84;" xml:space="preserve">
<style type="text/css">
	.st0{fill:none;stroke:#FFFFFF;stroke-width:2;stroke-miterlimit:10;}
	.st1{fill:none;stroke:#FFFFFF;stroke-width:2;stroke-miterlimit:10;stroke-dasharray:4.7698,4.7698;}
	.st2{fill:#FFFFFF;}
</style>
<g>
	<g>
		<polyline class="st0" points="70.7,68.2 70.7,70.7 68.2,70.7 		"/>
		<line class="st1" x1="63.5" y1="70.7" x2="18.2" y2="70.7"/>
		<polyline class="st0" points="15.8,70.7 13.3,70.7 13.3,68.2 		"/>
		<line class="st1" x1="13.3" y1="63.5" x2="13.3" y2="18.2"/>
		<polyline class="st0" points="13.3,15.8 13.3,13.3 15.8,13.3 		"/>
		<line class="st1" x1="20.5" y1="13.3" x2="65.8" y2="13.3"/>
		<polyline class="st0" points="68.2,13.3 70.7,13.3 70.7,15.8 		"/>
		<line class="st1" x1="70.7" y1="20.5" x2="70.7" y2="65.8"/>
	</g>
</g>
<g>
	<path class="st2" d="M23.8,21.7H60v10.6h-4.3V26H44.3v32h6.4v4.3H33.1V58h6.4V26H28.1v6.3h-4.3V21.7L23.8,21.7z"/>
</g>
</svg>
