<?xml version="1.0" encoding="utf-8"?>
<!-- Generator: Adobe Illustrator 25.3.1, SVG Export Plug-In . SVG Version: 6.00 Build 0)  -->
<svg version="1.1" id="Layer_1" xmlns="http://www.w3.org/2000/svg" xmlns:xlink="http://www.w3.org/1999/xlink" x="0px" y="0px"
	 viewBox="0 0 42 42" style="enable-background:new 0 0 42 42;" xml:space="preserve">
<style type="text/css">
	.st0{fill:none;stroke:#FFFFFF;stroke-width:5.5;}
	.st1{fill-rule:evenodd;clip-rule:evenodd;fill:#FFFFFF;stroke:#FFFFFF;stroke-miterlimit:10;}
</style>
<g id="Page-1">
	<g id="settings-button" transform="translate(0.000000, -0.000000)">
		<circle id="Oval" class="st0" cx="21" cy="21" r="11.8"/>
		
			<g id="Group-2" transform="translate(21.000000, 21.000000) rotate(-240.000000) translate(-21.000000, -21.000000) translate(16.000000, 0.000000)">
			<g id="Group" transform="translate(-0.000000, 0.000000)">
				<polyline id="Path" class="st1" points="9.7,8.2 0.3,7.6 1,0.7 5.3,0.7 				"/>
				<polyline id="Path_1_" class="st1" points="9.7,8.2 8.9,0.7 4.7,0.7 				"/>
			</g>
			
				<g id="Group_1_" transform="translate(5.000000, 38.000000) rotate(-180.000000) translate(-5.000000, -38.000000) translate(0.000000, 34.000000)">
				<polyline id="Path_2_" class="st1" points="0.2,8.2 1,0.7 5.3,0.7 				"/>
				<polyline id="Path_3_" class="st1" points="0.2,8.2 9.7,7.6 8.9,0.7 4.7,0.7 				"/>
			</g>
		</g>
		
			<g id="Group-2_1_" transform="translate(21.000000, 21.000000) rotate(-180.000000) translate(-21.000000, -21.000000) translate(16.000000, 0.000000)">
			<g id="Group_2_" transform="translate(-0.000000, 0.000000)">
				<polyline id="Path_4_" class="st1" points="9.7,8.2 0.3,7.6 1,0.7 5.3,0.7 				"/>
				<polyline id="Path_5_" class="st1" points="9.7,8.2 8.9,0.7 4.7,0.7 				"/>
			</g>
			
				<g id="Group_3_" transform="translate(5.000000, 38.000000) rotate(-180.000000) translate(-5.000000, -38.000000) translate(0.000000, 34.000000)">
				<polyline id="Path_6_" class="st1" points="0.2,8.2 1,0.7 5.3,0.7 				"/>
				<polyline id="Path_7_" class="st1" points="0.2,8.2 9.7,7.6 8.9,0.7 4.7,0.7 				"/>
			</g>
		</g>
		
			<g id="Group-2_2_" transform="translate(21.000000, 21.000000) rotate(-120.000000) translate(-21.000000, -21.000000) translate(16.000000, 0.000000)">
			<g id="Group_4_" transform="translate(-0.000000, 0.000000)">
				<polyline id="Path_8_" class="st1" points="9.7,8.2 0.3,7.6 1,0.7 5.3,0.7 				"/>
				<polyline id="Path_9_" class="st1" points="9.7,8.2 8.9,0.7 4.7,0.7 				"/>
			</g>
			
				<g id="Group_5_" transform="translate(5.000000, 38.000000) rotate(-180.000000) translate(-5.000000, -38.000000) translate(0.000000, 34.000000)">
				<polyline id="Path_10_" class="st1" points="0.2,8.2 1,0.7 5.3,0.7 				"/>
				<polyline id="Path_11_" class="st1" points="0.2,8.2 9.7,7.6 8.9,0.7 4.7,0.7 				"/>
			</g>
		</g>
	</g>
</g>
</svg>
