<svg id="Layer_1" data-name="Layer 1" xmlns="http://www.w3.org/2000/svg" viewBox="0 0 120 160"><defs><style>.cls-1,.cls-2{fill:none;stroke:#000;stroke-miterlimit:10;stroke-width:2px;}.cls-1{stroke-linecap:round;}</style></defs><path class="cls-1" d="M99.79,95.62v25.22a3.92,3.92,0,0,1-3.91,3.9H66.2l-18.46,11-.06-11H36.51a3.92,3.92,0,0,1-3.9-3.9V83a3.92,3.92,0,0,1,3.9-3.91H84.43"/><line class="cls-1" x1="45.3" y1="93.68" x2="70.93" y2="93.68"/><line class="cls-1" x1="45.3" y1="101.93" x2="65.12" y2="101.93"/><line class="cls-1" x1="45.3" y1="110.18" x2="62.71" y2="110.18"/><path class="cls-2" d="M100.24,70.78l5.54-5.54a1.62,1.62,0,0,1,2.29,0h0l6.61,6.61a1.61,1.61,0,0,1,0,2.28l-5.55,5.55h0l-8.89-8.9Z"/><polygon class="cls-2" points="79.43 109.37 67.24 112.67 70.54 100.48 100.19 70.83 109.08 79.72 79.43 109.37"/><line class="cls-2" x1="70.67" y1="100.51" x2="79.19" y2="109.03"/><path class="cls-1" d="M87.63,128.74V140a4,4,0,0,1-4,4H11a4,4,0,0,1-4-4V24.75a4,4,0,0,1,4-4H83.62a4,4,0,0,1,4,4v49.1"/><path class="cls-2" d="M21.83,20.73h51a0,0,0,0,1,0,0v6.79a4.33,4.33,0,0,1-4.33,4.33H26.16a4.33,4.33,0,0,1-4.33-4.33V20.73A0,0,0,0,1,21.83,20.73Z"/></svg>