<svg id="Layer_1" data-name="Layer 1" xmlns="http://www.w3.org/2000/svg" viewBox="0 0 298 469"><defs><style>.cls-1{opacity:0.5;}.cls-2{fill:#fff;}</style></defs><path d="M242.8,169.14a16.25,16.25,0,0,0-8.27,2.92c-5.27,3.86-6.16,10-6.32,11.34v80A12,12,0,0,0,234.54,274c-10.41,9.9-9.33,26.44-9.33,46.43,0,17.71-2.57,34.5,5.92,44.76l-12.4,9.54L84.21,380.4c0,30.38,50.62,62,81,62A55,55,0,0,0,181.28,440l12.25,15.91a12,12,0,0,0,8,4.57,12.29,12.29,0,0,0,8.87-2.37A235.72,235.72,0,0,0,283.27,402a12,12,0,0,0,2.19-16.83l-12.17-15.81c10.74-9.8,17.92-27.62,17.92-48,0-21.5-12-37-17-46-3-6-5-9-6-12-3.78-11.14-5.5-20.51-6-42.43-.24-10.51-.33-23.17,0-37.57a17.06,17.06,0,0,0-6-11C251,168.23,244.92,168.9,242.8,169.14Z"/><g class="cls-1"><rect class="cls-2" x="33.21" y="8.4" width="204" height="375" rx="24.66"/></g><path class="cls-2" d="M212.55,25.4a7.67,7.67,0,0,1,7.66,7.66V358.74a7.67,7.67,0,0,1-7.66,7.66H57.87a7.67,7.67,0,0,1-7.66-7.66V33.06a7.67,7.67,0,0,1,7.66-7.66H212.55m0-17H57.87A24.66,24.66,0,0,0,33.21,33.06V358.74A24.66,24.66,0,0,0,57.87,383.4H212.55a24.66,24.66,0,0,0,24.66-24.66V33.06A24.66,24.66,0,0,0,212.55,8.4Z"/><rect x="16.7" y="153.37" width="38" height="65.06" rx="18.12" transform="translate(192.4 292.1) rotate(135)"/><rect x="16.7" y="196.37" width="38" height="65.06" rx="18.12" transform="translate(222.81 365.5) rotate(135)"/><rect x="16.7" y="241.37" width="38" height="65.06" rx="18.12" transform="translate(254.63 442.32) rotate(135)"/><rect x="16.7" y="283.37" width="38" height="65.06" rx="18.12" transform="translate(284.32 514.02) rotate(135)"/></svg>