<svg id="Layer_1" data-name="Layer 1" xmlns="http://www.w3.org/2000/svg" viewBox="0 0 120 160"><defs><style>.cls-1,.cls-2,.cls-3{stroke:#000;stroke-miterlimit:10;stroke-width:2px;}.cls-1,.cls-2{stroke-linecap:round;}.cls-2,.cls-3{fill:none;}</style></defs><path class="cls-1" d="M77.78,146.7H71.63a1.15,1.15,0,0,1-1.11-1.19v-1.86a1.15,1.15,0,0,1,1.11-1.19h4.5a1.06,1.06,0,0,1,.71.28l1.65,1.48a1.25,1.25,0,0,1,.4.92v.37A1.15,1.15,0,0,1,77.78,146.7Z"/><path class="cls-2" d="M47,84.45V76.64a.39.39,0,0,0-.65-.32L26.89,94.44a1.65,1.65,0,0,1-1.32.43h0a1.68,1.68,0,0,1-1.11-.63l-2.29-2.87a.44.44,0,0,1,0-.56L46.9,61.56a.38.38,0,0,1,.29-.14h9.49a.37.37,0,0,1,.31.17l1,1.77a2.27,2.27,0,0,0,4.1,0l1-1.77a.37.37,0,0,1,.31-.17h9.49a.38.38,0,0,1,.29.14L97.84,90.81a.44.44,0,0,1,0,.56l-2.29,2.87a1.68,1.68,0,0,1-1.11.63h0a1.65,1.65,0,0,1-1.32-.43L73.63,76.32a.39.39,0,0,0-.65.32v27.22a.41.41,0,0,1-.39.43H59.94"/><line class="cls-2" x1="47.02" y1="90.9" x2="47.02" y2="88.67"/><path class="cls-2" d="M60.06,104.29H47.41a.41.41,0,0,1-.39-.43V95.12"/><line class="cls-2" x1="73.2" y1="108.78" x2="72.98" y2="104.29"/><line class="cls-2" x1="73.53" y1="115.8" x2="73.41" y2="113.37"/><path class="cls-2" d="M47,104.29,45.2,142.46h4.28l9.89-31.32a.83.83,0,0,1,1.61,0l9.54,31.31H74.8l-1.06-22.28"/><path class="cls-1" d="M42.22,146.7h6.15a1.15,1.15,0,0,0,1.11-1.19v-1.86a1.15,1.15,0,0,0-1.11-1.19h-4.5a1.06,1.06,0,0,0-.71.28l-1.65,1.48a1.25,1.25,0,0,0-.4.92v.37A1.15,1.15,0,0,0,42.22,146.7Z"/><path class="cls-2" d="M55.79,37.29H64.9a3.58,3.58,0,0,1,3.58,3.58V51.93a7.55,7.55,0,0,1-7.55,7.55H59.76a7.55,7.55,0,0,1-7.55-7.55V40.87A3.58,3.58,0,0,1,55.79,37.29Z"/><path class="cls-1" d="M63.6,36.28a19,19,0,0,0-6.51,0,8,8,0,0,0-4.15,1.87c-1.43,1.28-2.78,3.52-4.08,3.86h0c0,2.35,1.14,3.54,4.08,4.11a31.61,31.61,0,0,0,12.15-.32c2.36-.45,3.39-2.39,3.39-4.75h0C68.48,38.7,67.46,37.19,63.6,36.28Z"/><ellipse cx="56.1" cy="49.63" rx="1" ry="1.25"/><ellipse cx="64.2" cy="49.63" rx="1" ry="1.25"/><path class="cls-3" d="M43.13,129.14c-21.23,2-36.54,7.51-36.54,14.05C6.59,151.37,30.5,158,60,158s53.41-6.63,53.41-14.81c0-6.56-15.4-12.13-36.74-14.07"/><path class="cls-3" d="M66.94,128.51c-2.27-.08-4.59-.12-6.94-.12s-4.6,0-6.83.12"/><ellipse class="cls-3" cx="60" cy="16.81" rx="53.41" ry="14.81"/><line class="cls-3" x1="6.59" y1="16.81" x2="6.59" y2="143.19"/><line class="cls-3" x1="113.41" y1="143.19" x2="113.41" y2="16.81"/><line class="cls-2" x1="19.5" y1="56.67" x2="19.5" y2="69.46"/><line class="cls-2" x1="100.37" y1="42.45" x2="100.37" y2="55.24"/><line class="cls-2" x1="87.59" y1="53.88" x2="87.59" y2="66.67"/><line class="cls-2" x1="104.13" y1="91.67" x2="104.13" y2="104.46"/><line class="cls-2" x1="31.5" y1="42.89" x2="31.5" y2="56.43"/><line class="cls-2" x1="19.75" y1="100.69" x2="19.75" y2="113.48"/><line class="cls-2" x1="87.36" y1="106.62" x2="87.36" y2="119.41"/></svg>