<svg id="Layer_1" data-name="Layer 1" xmlns="http://www.w3.org/2000/svg" viewBox="0 0 967 276"><defs><style>.cls-1,.cls-2,.cls-4{fill:none;stroke:#fff;stroke-miterlimit:10;stroke-width:15px;}.cls-2{stroke-dasharray:62.05 62.05;}.cls-3{fill:#fff;}.cls-4{stroke-dasharray:71.73 71.73;}</style></defs><path class="cls-1" d="M367.38,52.91Q351.81,54.68,337.16,57"/><path class="cls-2" d="M276.44,69.66c-80.2,21.56-137,58.31-184,109.47"/><path class="cls-1" d="M72.25,202.67Q62.83,214.42,53.86,227"/><polygon class="cls-3" points="41.45 187.05 60.32 217.96 95.67 225.82 22.6 270.7 41.45 187.05"/><path class="cls-1" d="M913.14,227q-7.71-13.31-16.44-25.67"/><path class="cls-4" d="M849,148C795.4,100.71,721.71,69.41,619.51,55.4"/><path class="cls-1" d="M583.88,51.32Q569,49.94,553.47,49"/><polygon class="cls-3" points="929.28 188.41 907.56 217.38 871.63 221.87 940.12 273.47 929.28 188.41"/></svg>