<?xml version="1.0" encoding="utf-8"?>
<!-- Generator: Adobe Illustrator 25.3.1, SVG Export Plug-In . SVG Version: 6.00 Build 0)  -->
<svg version="1.1" id="Layer_1" xmlns="http://www.w3.org/2000/svg" xmlns:xlink="http://www.w3.org/1999/xlink" x="0px" y="0px"
	 viewBox="0 0 42 42" style="enable-background:new 0 0 42 42;" xml:space="preserve">
<style type="text/css">
	.st0{fill:#FFFFFF;}
</style>
<g>
	<path class="st0" d="M39.3,9.9H2.7c-1,0-1.9-0.8-1.9-1.9V4.4c0-1,0.8-1.9,1.9-1.9h36.6c1,0,1.9,0.8,1.9,1.9V8
		C41.2,9.1,40.3,9.9,39.3,9.9z"/>
	<path class="st0" d="M39.3,24.7H2.7c-1,0-1.9-0.8-1.9-1.9v-3.6c0-1,0.8-1.9,1.9-1.9h36.6c1,0,1.9,0.8,1.9,1.9v3.6
		C41.2,23.9,40.3,24.7,39.3,24.7z"/>
	<path class="st0" d="M39.3,39.5H2.7c-1,0-1.9-0.8-1.9-1.9V34c0-1,0.8-1.9,1.9-1.9h36.6c1,0,1.9,0.8,1.9,1.9v3.6
		C41.2,38.6,40.3,39.5,39.3,39.5z"/>
</g>
</svg>
