<svg id="Layer_1" data-name="Layer 1" xmlns="http://www.w3.org/2000/svg" viewBox="0 0 26 26"><defs><style>.cls-1{fill:#f8ab17;}</style></defs><path class="cls-1" d="M12,21.15v-2.6a5.39,5.39,0,0,1-4.41-5l0-.26H9.12v.23A3.87,3.87,0,0,0,14,17l.2-.06.65,1.4-.27.09a6.23,6.23,0,0,1-.62.15v2.6Z"/><path d="M8.89,13.53A4.12,4.12,0,0,0,13,17.36a3.91,3.91,0,0,0,1.08-.15l.44.95a5,5,0,0,1-.79.18V20.9H12.27V18.34a5.13,5.13,0,0,1-4.42-4.81h1m.46-.5h-2l0,.53a5.64,5.64,0,0,0,4.41,5.2V21.4h2.46V18.76l.44-.12.55-.17L15,18,14.54,17l-.18-.39-.41.12a3.35,3.35,0,0,1-.95.13A3.64,3.64,0,0,1,9.38,13.5l0-.47Z"/><path class="cls-1" d="M13,16a2.32,2.32,0,0,1-2.32-2.31V9.32l3.06,6.55-.3.07A1.52,1.52,0,0,1,13,16Z"/><path d="M10.93,10.45l2.46,5.25a1.84,1.84,0,0,1-.39,0,2.07,2.07,0,0,1-2.07-2.06V10.45m-.5-2.25v5.48A2.57,2.57,0,0,0,13,16.24a2.65,2.65,0,0,0,.5,0l.6-.14-.26-.56-2.45-5.25-1-2Z"/><path class="cls-1" d="M16.34,20.28,10.82,8.42,9.15,4.85H10.8L11.8,7A2.26,2.26,0,0,1,13,6.65a2.31,2.31,0,0,1,2.26,1.78,2.67,2.67,0,0,1,.06.53v4.72a1.91,1.91,0,0,1-.1.64l.7,1.48a3.82,3.82,0,0,0,.95-2.29l0-.23h1.53l0,.26a5.32,5.32,0,0,1-1.8,3.73l1.41,3Z"/><path d="M10.64,5.1,11.7,7.37A2,2,0,0,1,13,6.9a2.07,2.07,0,0,1,2,1.59,2.32,2.32,0,0,1,.06.47v4.72a1.71,1.71,0,0,1-.12.65l.89,1.9a4.06,4.06,0,0,0,1.28-2.7h1a5.07,5.07,0,0,1-1.86,3.67L17.6,20H16.5l-1.05-2.26L15,16.83l-.72-1.54L11,8.31,9.54,5.1h1.1M11,4.6H8.76l.33.71,1.5,3.21,3.25,7L14.56,17,15,18l1.05,2.26.13.29h2.21l-.33-.71L16.9,17.33a5.6,5.6,0,0,0,1.74-3.77l0-.53h-2l0,.47A3.49,3.49,0,0,1,16,15.32l-.48-1a2.11,2.11,0,0,0,.08-.62V9a2.76,2.76,0,0,0-.07-.57,2.56,2.56,0,0,0-2.5-2,2.46,2.46,0,0,0-1.07.24L11.1,4.89,11,4.6Z"/></svg>