<svg id="Layer_1" data-name="Layer 1" xmlns="http://www.w3.org/2000/svg" viewBox="0 0 953 1323"><defs><style>.cls-1{fill:#b3b3b3;}.cls-2{fill:#666;}.cls-3{fill:none;stroke:#666;stroke-miterlimit:10;stroke-width:6px;}</style></defs><path class="cls-1" d="M182.83,628.33A101.11,101.11,0,0,1,199.67,627c8.67,0,15,2,19.06,5.65,3.73,3.23,6,8.17,6,14.22s-1.82,11-5.24,14.52c-4.64,4.94-12.21,7.46-20.78,7.46a30.48,30.48,0,0,1-7.06-.6v27.22h-8.77Zm8.77,32.77a29.7,29.7,0,0,0,7.26.7c10.59,0,17-5.14,17-14.52,0-9-6.36-13.31-16-13.31a36.43,36.43,0,0,0-8.27.71Z"/><path class="cls-1" d="M236.47,627.52h8.78v60.6h29v7.36H236.47Z"/><path class="cls-1" d="M295.05,674.1,288,695.48h-9.08l23.09-68H312.6l23.19,68h-9.38l-7.26-21.38Zm22.29-6.85-6.66-19.56c-1.51-4.44-2.52-8.48-3.53-12.41H307c-1,4-2.11,8.17-3.43,12.3l-6.65,19.67Z"/><path class="cls-1" d="M391.75,693.26c-3.23,1.62-9.68,3.23-17.95,3.23-19.16,0-33.58-12.1-33.58-34.39,0-21.27,14.42-35.69,35.5-35.69,8.47,0,13.81,1.81,16.13,3l-2.12,7.16A32,32,0,0,0,376,633.77c-15.93,0-26.52,10.18-26.52,28,0,16.64,9.58,27.33,26.12,27.33a35.21,35.21,0,0,0,14.32-2.82Z"/><path class="cls-1" d="M437.93,663.62H411.51v24.5H441v7.36H402.74v-68h36.7v7.36H411.51v21.48h26.42Z"/><path class="cls-1" d="M461.12,627.52V656H494V627.52h8.87v68H494V663.62H461.12v31.86h-8.78v-68Z"/><path class="cls-1" d="M576.16,660.79c0,23.4-14.21,35.8-31.56,35.8-17.94,0-30.55-13.91-30.55-34.49,0-21.57,13.41-35.69,31.56-35.69C564.17,626.41,576.16,640.63,576.16,660.79Zm-52.73,1.11c0,14.52,7.86,27.53,21.68,27.53s21.78-12.81,21.78-28.23c0-13.51-7.06-27.63-21.68-27.63S523.43,647,523.43,661.9Z"/><path class="cls-1" d="M587.55,627.52h8.78v60.6h29v7.36H587.55Z"/><path class="cls-1" d="M635.14,628.43A125.24,125.24,0,0,1,653.8,627c12.6,0,21.58,2.93,27.53,8.47s9.58,13.42,9.58,24.41-3.43,20.16-9.78,26.42-16.84,9.78-30,9.78a142.6,142.6,0,0,1-15.94-.81Zm8.78,60.09a54.5,54.5,0,0,0,8.87.51c18.75,0,28.94-10.49,28.94-28.84.1-16-9-26.22-27.53-26.22a49.33,49.33,0,0,0-10.28.91Z"/><path class="cls-1" d="M737.49,663.62H711.07v24.5h29.44v7.36H702.29v-68H739v7.36H711.07v21.48h26.42Z"/><path class="cls-1" d="M751.9,628.43A91.14,91.14,0,0,1,768.74,627c9.38,0,15.43,1.72,19.66,5.55a16.91,16.91,0,0,1,5.35,12.91c0,9-5.65,14.92-12.81,17.34v.3c5.25,1.82,8.37,6.66,10,13.72,2.21,9.48,3.83,16,5.24,18.65h-9.08c-1.11-1.91-2.62-7.76-4.53-16.23-2-9.38-5.65-12.91-13.62-13.21h-8.27v29.44H751.9Zm8.77,31h9c9.38,0,15.33-5.14,15.33-12.91,0-8.77-6.36-12.6-15.63-12.7a35.79,35.79,0,0,0-8.68.81Z"/><path class="cls-2" d="M947,6V1317H6V6H947m6-6H0V1323H953V0Z"/><line class="cls-3" x2="953" y2="1323"/><line class="cls-3" x1="953" y2="1323"/></svg>