<svg id="Layer_1" data-name="Layer 1" xmlns="http://www.w3.org/2000/svg" viewBox="0 0 120 160"><defs><style>.cls-1,.cls-2,.cls-4,.cls-5{fill:none;}.cls-1,.cls-2,.cls-3,.cls-4,.cls-5{stroke:#000;}.cls-1,.cls-2,.cls-3,.cls-4{stroke-miterlimit:10;}.cls-1,.cls-2,.cls-5{stroke-width:2px;}.cls-2,.cls-3,.cls-4,.cls-5{stroke-linecap:round;}.cls-3,.cls-4{stroke-width:0.75px;}.cls-5{stroke-linejoin:round;}</style></defs><rect class="cls-1" x="7.06" y="27.35" width="105.78" height="72.24" rx="5.09"/><line class="cls-1" x1="6.46" y1="85.4" x2="113.54" y2="85.4"/><path class="cls-1" d="M60,99.59H52.91s-.65,9-11,19.35H60"/><path class="cls-1" d="M60,99.59h7.09s.65,9,11,19.35H60"/><line class="cls-2" x1="31.62" y1="118.94" x2="88.38" y2="118.94"/><circle cx="59.4" cy="91.85" r="2.34"/><path class="cls-3" d="M43.39,76.49H41.81a.3.3,0,0,1-.28-.3v-.48a.29.29,0,0,1,.28-.3H43a.26.26,0,0,1,.18.07l.42.38a.33.33,0,0,1,.1.23v.1A.3.3,0,0,1,43.39,76.49Z"/><path class="cls-4" d="M35.53,60.59v-2a.1.1,0,0,0-.17-.08l-5,4.62a.4.4,0,0,1-.34.11h0a.43.43,0,0,1-.28-.16l-.58-.73a.12.12,0,0,1,0-.15l6.32-7.47a.11.11,0,0,1,.07,0H38a.09.09,0,0,1,.08,0l.24.45a.58.58,0,0,0,1,0l.24-.45a.09.09,0,0,1,.08,0h2.43a.11.11,0,0,1,.07,0l6.32,7.47a.12.12,0,0,1,0,.15l-.58.73a.43.43,0,0,1-.29.16h0a.4.4,0,0,1-.34-.11l-5-4.62a.1.1,0,0,0-.17.08v6.95a.1.1,0,0,1-.1.11H38.83"/><line class="cls-4" x1="35.53" y1="62.24" x2="35.53" y2="61.67"/><path class="cls-4" d="M38.86,65.66H35.63a.1.1,0,0,1-.1-.11V63.32"/><line class="cls-4" x1="42.22" y1="66.81" x2="42.16" y2="65.66"/><line class="cls-4" x1="42.3" y1="68.6" x2="42.27" y2="67.98"/><path class="cls-4" d="M35.53,65.66l-.46,9.75h1.09l2.53-8a.21.21,0,0,1,.4,0l2.44,8h1.09l-.27-5.69"/><path class="cls-3" d="M34.3,76.49h1.58a.3.3,0,0,0,.28-.3v-.48a.29.29,0,0,0-.28-.3H34.72a.26.26,0,0,0-.18.07l-.42.38a.33.33,0,0,0-.1.23v.1A.3.3,0,0,0,34.3,76.49Z"/><path class="cls-4" d="M37.84,48.55H40a1,1,0,0,1,1,1v2.6a2.08,2.08,0,0,1-2.08,2.08h0a2.08,2.08,0,0,1-2.08-2.08v-2.6A1,1,0,0,1,37.84,48.55Z"/><path class="cls-3" d="M39.76,48.29a4.63,4.63,0,0,0-1.66,0,2,2,0,0,0-1.06.47c-.36.33-.71.9-1,1h0c0,.6.29.9,1,1a8.23,8.23,0,0,0,3.1-.08A1.1,1.1,0,0,0,41,49.51h0C41,48.91,40.75,48.52,39.76,48.29Z"/><ellipse cx="37.85" cy="51.7" rx="0.26" ry="0.32"/><ellipse cx="39.92" cy="51.7" rx="0.26" ry="0.32"/><line class="cls-4" x1="7.06" y1="79.18" x2="25.11" y2="85.43"/><polyline class="cls-4" points="112.84 47.4 60 29.11 7.06 47.44"/><line class="cls-4" x1="94.94" y1="85.42" x2="112.84" y2="79.21"/><line class="cls-4" x1="32.32" y1="66.23" x2="7.06" y2="74.98"/><polyline class="cls-4" points="112.84 74.95 60 56.65 49.79 60.18"/><line class="cls-4" x1="60" y1="56.98" x2="60" y2="29.11"/><polygon class="cls-5" points="85.08 126.15 20.8 126.15 9 132.65 90 132.65 85.08 126.15"/><polygon class="cls-5" points="95.34 132.65 112 132.65 100.03 126.15 90.3 126.15 95.34 132.65"/></svg>