<svg id="Layer_1" data-name="Layer 1" xmlns="http://www.w3.org/2000/svg" viewBox="0 0 26 26"><defs><style>.cls-1{fill:#fff;}</style></defs><circle class="cls-1" cx="13" cy="13" r="12.5"/><path d="M13.91,17h0Z"/><path d="M14.47,18.16H5V17H7.43a.94.94,0,0,1-.85-.94V8.8a1,1,0,0,1,1-.94H9.66l2,4.2a4.31,4.31,0,0,0-1.76,2.85,3.79,3.79,0,0,1,2.36-1.56Z"/><path d="M21,18.16V17H18.61a.93.93,0,0,0,.85-.93V8.81a1,1,0,0,0-.94-1h-7l-1-2.22H9.58l1,2.22,1.75,3.77.76,1.63.54,1.17.08.15,1.68,3.61.87,1.88h.95l-.88-1.88v0Zm-6.28-4.5-.32.3-1.21-2.61a2.53,2.53,0,0,1,.48-.08V9.94l1.52,1.42,1,.93Z"/></svg>