<svg id="Layer_1" data-name="Layer 1" xmlns="http://www.w3.org/2000/svg" viewBox="0 0 26 26"><defs><style>.cls-1{fill:#fff;}</style></defs><circle class="cls-1" cx="13" cy="13" r="12.5"/><path d="M14.08,16.31l.44,1a5,5,0,0,1-.79.18V20H12.27V17.44a5.13,5.13,0,0,1-4.42-4.81h1A4.12,4.12,0,0,0,13,16.46,3.86,3.86,0,0,0,14.08,16.31Z"/><path d="M13.39,14.8a1.84,1.84,0,0,1-.39,0,2.06,2.06,0,0,1-2.06-2.06V9.55Z"/><path d="M16.28,16.3l1.32,2.83H16.5l-1.05-2.26L15,15.93l-.72-1.54L11,7.41,9.54,4.2h1.1L11.7,6.47A2,2,0,0,1,13,6a2.07,2.07,0,0,1,2,1.59,2.32,2.32,0,0,1,.06.47v4.72a1.71,1.71,0,0,1-.12.65l.89,1.9a4.06,4.06,0,0,0,1.28-2.7h1A5.07,5.07,0,0,1,16.28,16.3Z"/></svg>