<?xml version="1.0" encoding="UTF-8"?><svg id="Layer_1" xmlns="http://www.w3.org/2000/svg" viewBox="0 0 26 26"><defs><style>.cls-1{fill:#fff;}.cls-2{fill:#e20000;isolation:isolate;opacity:.5;}</style></defs><circle class="cls-2" cx="13" cy="13" r="12.5"/><path class="cls-1" d="M20.43,13.12c0,.6-.2,1.19-.57,1.71-.12,.17-.34,.24-.54,.2l-2.57-.55c-.61-.13-1.01-.74-.87-1.35l.18-.82c.05-.22-.08-.44-.29-.5-.85-.26-1.79-.4-2.77-.4s-1.88,.14-2.72,.38c-.21,.06-.34,.29-.29,.5l.18,.83c.13,.61-.26,1.22-.88,1.36l-2.6,.56c-.2,.04-.42-.03-.54-.2-.37-.53-.57-1.11-.57-1.72,0-1.65,1.49-3.09,3.7-3.86,1.1-.39,2.37-.61,3.73-.61s2.66,.22,3.77,.62c2.2,.77,3.67,2.21,3.67,3.85Z"/></svg>