<svg id="Layer_1" data-name="Layer 1" xmlns="http://www.w3.org/2000/svg" viewBox="0 0 26 26"><defs><style>.cls-1{fill:#fff;}</style></defs><polyline class="cls-1" points="14.28 17.14 6.5 17.14 6.5 8.69 10.37 8.69 11.36 8.69 16.57 8.69 16.57 10.93 19.5 9.67 19.5 16.17 16.57 14.91 16.57 17.14 15.28 17.14"/><circle class="cls-1" cx="13" cy="13" r="12.5"/><polygon points="13.19 17.14 6.5 17.14 6.5 8.69 9.28 8.69 13.19 17.14"/><polygon points="19.5 9.67 19.5 16.17 16.58 14.91 16.58 17.14 15.28 17.14 16.34 19.42 15.34 19.42 14.29 17.14 10.37 8.69 9.39 6.58 10.39 6.58 11.37 8.69 16.58 8.69 16.58 10.93 19.5 9.67"/></svg>