<?xml version="1.0" encoding="UTF-8"?><svg id="i" xmlns="http://www.w3.org/2000/svg" viewBox="0 0 300 150"><path d="M285,75c0-35.24-28.05-63.91-63.03-64.95v-.05H80.15C44.25,10,15.15,39.1,15.15,75s29.1,65,65,65H221.97v-.05c34.99-1.04,63.03-29.71,63.03-64.95Z" fill="#999"/><g><circle cx="80.15" cy="75" r="54.12" fill="#fff"/><path d="M80.15,23.88c28.19,0,51.12,22.93,51.12,51.12s-22.93,51.12-51.12,51.12-51.12-22.93-51.12-51.12S51.96,23.88,80.15,23.88m0-6c-31.55,0-57.12,25.57-57.12,57.12s25.57,57.12,57.12,57.12,57.12-25.57,57.12-57.12-25.57-57.12-57.12-57.12h0Z" fill="#999"/></g></svg>