<svg id="Layer_1" data-name="Layer 1" xmlns="http://www.w3.org/2000/svg" viewBox="0 0 24 24"><defs><style>.cls-1{opacity:0.5;}.cls-2{fill:#fff;}</style></defs><circle class="cls-1" cx="12" cy="12" r="11"/><path class="cls-2" d="M18.5,12.66V11.34a.24.24,0,0,0-.19-.23l-1.68-.35a4.33,4.33,0,0,0-.49-1.15l.94-1.44a.23.23,0,0,0,0-.29L16.12,7a.24.24,0,0,0-.3,0l-1.45,1a4.4,4.4,0,0,0-1.12-.46l-.36-1.69a.23.23,0,0,0-.23-.19H11.34a.23.23,0,0,0-.23.19l-.36,1.7a4.65,4.65,0,0,0-1.1.46l-1.47-1a.24.24,0,0,0-.3,0L7,7.88a.23.23,0,0,0,0,.29l1,1.47a4.75,4.75,0,0,0-.47,1.11l-1.71.36a.24.24,0,0,0-.19.23v1.32a.24.24,0,0,0,.19.23l1.69.35a4.35,4.35,0,0,0,.47,1.16l-.93,1.43a.23.23,0,0,0,0,.29l.93.93a.24.24,0,0,0,.3,0l1.4-.92a4.37,4.37,0,0,0,1.19.51l.34,1.61a.23.23,0,0,0,.23.19h1.32a.23.23,0,0,0,.23-.19l.34-1.6a4.45,4.45,0,0,0,1.21-.51l1.38.91a.24.24,0,0,0,.3,0l.93-.93a.23.23,0,0,0,0-.29l-.91-1.4a4.52,4.52,0,0,0,.49-1.2l1.65-.34A.24.24,0,0,0,18.5,12.66ZM12,14.92A2.88,2.88,0,1,1,14.89,12,2.88,2.88,0,0,1,12,14.92Z"/></svg>