<?xml version="1.0" encoding="UTF-8"?><svg id="i" xmlns="http://www.w3.org/2000/svg" viewBox="0 0 300 150"><path d="M15.15,75c0,35.24,28.05,63.91,63.03,64.95v.05H220c35.9,0,65-29.1,65-65S255.9,10,220,10H78.18v.05C43.2,11.09,15.15,39.76,15.15,75Z" fill="#383838"/><g><circle cx="220" cy="75" r="54.12" fill="#fff"/><path d="M220,23.88c28.19,0,51.12,22.93,51.12,51.12s-22.93,51.12-51.12,51.12-51.12-22.93-51.12-51.12,22.93-51.12,51.12-51.12m0-6c-31.55,0-57.12,25.57-57.12,57.12s25.57,57.12,57.12,57.12,57.12-25.57,57.12-57.12-25.57-57.12-57.12-57.12h0Z" fill="#383838"/></g></svg>