<?xml version="1.0" encoding="utf-8"?>
<!-- Generator: Adobe Illustrator 25.3.1, SVG Export Plug-In . SVG Version: 6.00 Build 0)  -->
<svg version="1.1" id="Layer_1" xmlns="http://www.w3.org/2000/svg" xmlns:xlink="http://www.w3.org/1999/xlink" x="0px" y="0px"
	 viewBox="0 0 42 42" style="enable-background:new 0 0 42 42;" xml:space="preserve">
<style type="text/css">
	.st0{fill:#FFFFFF;}
</style>
<g>
	<path class="st0" d="M41.4,25.9v0.3c0,3.8-3.1,6.8-6.8,6.8H23.9v-6.9h4.3l-3.6-3.7L21,18.6l-3.6,3.7l-3.6,3.7h4.3V33H7.4
		c-3.8,0-6.8-3.1-6.8-6.8v-0.3c0-3.8,3.1-6.8,6.8-6.8h0.8c0-0.2,0-0.5,0-0.7c0-3.5,2.8-6.3,6.3-6.3c1.4,0,2.7,0.5,3.7,1.3
		c1.7-2.6,4.6-4.4,7.9-4.4c5.2,0,9.4,4.2,9.4,9.4c0,0.3,0,0.5,0,0.8C38.8,19.6,41.4,22.5,41.4,25.9z"/>
</g>
</svg>
