<svg id="Layer_1" data-name="Layer 1" xmlns="http://www.w3.org/2000/svg" viewBox="0 0 26 26"><defs><style>.cls-1{fill:#f8ab17;}</style></defs><polygon class="cls-1" points="6.25 18.3 6.25 9.34 9.44 9.34 13.58 18.3 6.25 18.3"/><path d="M9.28,9.59l3.91,8.46H6.5V9.59H9.28m.32-.5H6v9.46h8l-.33-.71L9.73,9.38,9.6,9.09Z"/><polygon class="cls-1" points="15.18 20.57 9 7.23 10.55 7.23 11.53 9.34 16.83 9.34 16.83 11.45 19.75 10.19 19.75 17.45 16.83 16.19 16.83 18.3 15.67 18.3 16.73 20.57 15.18 20.57"/><path d="M10.39,7.48l1,2.11h5.21v2.24l2.92-1.26v6.5l-2.92-1.26v2.24h-1.3l1.06,2.27h-1l-1.05-2.27L10.37,9.59l-1-2.11h1m.32-.5H8.61l.33.71,1,2.11,3.91,8.46,1.06,2.27.13.29h2.1l-.33-.71-.73-1.56h1v-2l2.22,1,.7.3v-8l-.7.3-2.22,1v-2H11.69l-.85-1.82L10.71,7Z"/></svg>