<svg xmlns="http://www.w3.org/2000/svg" xmlns:xlink="http://www.w3.org/1999/xlink" viewBox="0 0 207 207"><defs><style>.cls-1{fill:aqua;}.cls-2{mask:url(#mask);}.cls-3{opacity:0.3;}.cls-4{filter:url(#luminosity-noclip);}</style><filter id="luminosity-noclip" x="22" y="21" width="164" height="164" filterUnits="userSpaceOnUse" color-interpolation-filters="sRGB"><feFlood flood-color="#fff" result="bg"/><feBlend in="SourceGraphic" in2="bg"/></filter><mask id="mask" x="22" y="21" width="164" height="164" maskUnits="userSpaceOnUse"><g class="cls-4"><path d="M92.1,100.07c0,15.08-9.17,23.07-20.35,23.07-11.57,0-19.7-9-19.7-22.23,0-13.91,8.65-23,20.35-23C84.36,77.9,92.1,87.07,92.1,100.07Zm-34,.71c0,9.36,5.07,17.75,14,17.75s14-8.26,14-18.2c0-8.71-4.55-17.81-14-17.81S58.1,91.16,58.1,100.78Z"/><path d="M99.44,78.62H123v4.74h-18V97.92h16.58v4.68H105.09v19.83H99.44Z"/><path d="M131.09,78.62h23.6v4.74H136.75V97.92h16.57v4.68H136.75v19.83h-5.66Z"/></g></mask></defs><title>Asset 13</title><g id="Layer_2" data-name="Layer 2"><g id="Layer_1-2" data-name="Layer 1"><path class="cls-1" d="M103.5,12A91.5,91.5,0,1,1,12,103.5,91.61,91.61,0,0,1,103.5,12m0-12A103.5,103.5,0,1,0,207,103.5,103.5,103.5,0,0,0,103.5,0Z"/><g class="cls-2"><g class="cls-3"><circle class="cls-1" cx="104" cy="103" r="76"/><path class="cls-1" d="M104,33a70,70,0,1,1-70,70,70.08,70.08,0,0,1,70-70m0-12a82,82,0,1,0,82,82,82,82,0,0,0-82-82Z"/></g></g></g></g></svg>