<?xml version="1.0" encoding="utf-8"?>
<!-- Generator: Adobe Illustrator 24.0.0, SVG Export Plug-In . SVG Version: 6.00 Build 0)  -->
<svg version="1.1" id="Layer_1" xmlns="http://www.w3.org/2000/svg" xmlns:xlink="http://www.w3.org/1999/xlink" x="0px" y="0px"
	 viewBox="0 0 246 150" style="enable-background:new 0 0 246 150;" xml:space="preserve">
<style type="text/css">
	.st0{fill:#75FBFD;}
	.st1{fill:#008480;}
</style>
<title>label</title>
<rect x="120" class="st0" width="6" height="17"/>
<rect x="120" y="133" class="st0" width="6" height="17"/>
<g>
	<rect x="50.5" y="59.8" class="st1" width="31.2" height="31.2"/>
	<path class="st0" d="M83.3,92.6H49V58.3h34.3V92.6z M52.1,89.5h28.1V61.4H52.1V89.5z"/>
</g>
<g>
	<rect x="132.9" y="44.2" class="st1" width="62.4" height="62.5"/>
	<path class="st0" d="M196.9,108.2h-65.6V42.6h65.6V108.2z M134.4,105.1h59.3V45.8h-59.3V105.1z"/>
</g>
<g>
	
		<rect x="50.5" y="58.6" transform="matrix(0.9825 -0.1865 0.1865 0.9825 -10.1478 10.9014)" class="st0" width="4.7" height="1.6"/>
	<path class="st0" d="M63.4,58.3l-0.3-1.6l8.1-1.6l0.3,1.6L63.4,58.3z M79.7,55.1l-0.3-1.6l8.1-1.6l0.3,1.6L79.7,55.1z M95.9,52
		l-0.3-1.6l8.1-1.6l0.3,1.6L95.9,52z M112.2,48.9l-0.3-1.6l8.1-1.5l0.3,1.6L112.2,48.9z"/>
	<rect x="128.2" y="43.9" transform="matrix(0.9825 -0.1865 0.1865 0.9825 -6.037 25.1319)" class="st0" width="4.7" height="1.6"/>
</g>
<g>
	
		<rect x="129.8" y="103.9" transform="matrix(0.1865 -0.9825 0.9825 0.1865 1.8468 214.6578)" class="st0" width="1.6" height="4.7"/>
	<path class="st0" d="M120,105.1l-8.1-1.6l0.3-1.6l8.1,1.6L120,105.1z M103.7,102l-8.1-1.6l0.3-1.6l8.1,1.6L103.7,102z M87.5,98.8
		l-8.1-1.6l0.3-1.6l8.1,1.6L87.5,98.8z M71.2,95.7l-8.1-1.6l0.3-1.6l8.1,1.6L71.2,95.7z"/>
	
		<rect x="52.1" y="89.1" transform="matrix(0.1864 -0.9825 0.9825 0.1864 -46.8613 126.358)" class="st0" width="1.6" height="4.7"/>
</g>
</svg>
