<?xml version="1.0" encoding="utf-8"?>
<!-- Generator: Adobe Illustrator 24.0.0, SVG Export Plug-In . SVG Version: 6.00 Build 0)  -->
<svg version="1.1" id="Layer_1" xmlns="http://www.w3.org/2000/svg" xmlns:xlink="http://www.w3.org/1999/xlink" x="0px" y="0px"
	 viewBox="0 0 672 150" style="enable-background:new 0 0 672 150;" xml:space="preserve">
<style type="text/css">
	.st0{fill:#75FBFD;}
	.st1{fill:#008480;}
</style>
<title>label</title>
<path class="st0" d="M126,150h-6v-14h6V150z M126,119h-6v-17h6V119z M126,85h-6V68h6V85z M126,51h-6V34h6V51z M126,17h-6V0h6V17z"/>
<path class="st0" d="M552,150.3h-6v-17h6V150.3z M552,116.3h-6v-17h6V116.3z M552,82.3h-6v-0.8l-10.2,0l0-6l16.2,0V82.3z
	 M518.8,81.4l-17,0l0-6l17,0L518.8,81.4z M484.8,81.4l-17,0l0-6l17,0L484.8,81.4z M450.8,81.4l-17,0l0-6l17,0L450.8,81.4z
	 M416.8,81.3l-17,0l0-6l17,0L416.8,81.3z M382.8,81.3l-17,0l0-6l17,0L382.8,81.3z"/>
<path class="st0" d="M311,81.3h-17v-6h17V81.3z M277,81.3h-17v-6h17V81.3z M243,81.3h-17v-6h17V81.3z M209,81.3h-17v-6h17V81.3z
	 M175,81.3h-17v-6h17V81.3z M141,81.3h-17v-6h17V81.3z"/>
<g>
	<circle class="st1" cx="335.8" cy="77.9" r="31.8"/>
	<path class="st0" d="M335.8,111.5c-18.6,0-33.6-15-33.6-33.6c0-18.6,15-33.6,33.6-33.6c18.6,0,33.6,15,33.6,33.6c0,0,0,0,0,0
		C369.4,96.5,354.4,111.5,335.8,111.5C335.8,111.5,335.8,111.5,335.8,111.5z M335.8,47.9c-16.6,0-30.1,13.5-30.1,30.1
		s13.5,30.1,30.1,30.1s30.1-13.5,30.1-30.1l0,0C365.9,61.3,352.4,47.9,335.8,47.9z"/>
</g>
<path class="st0" d="M332.3,99.2v-7.1h7.1v7.1H332.3z M332.6,85V56.7h6.4V85H332.6z"/>
</svg>
