<svg id="Layer_1" data-name="Layer 1" xmlns="http://www.w3.org/2000/svg" viewBox="0 0 216 120">
  <defs>
    <style>
      .cls-1 {
        fill: #75fbfd;
      }
    </style>
  </defs>
  <title>icon</title>
  <g>
    <path class="cls-1" d="M63.21,74.08V72L73.8,43.45h6.07L90.55,72v2H84.37l-2.45-7.2H71.41l-2.54,7.18Zm10.1-12.3h6.74l-3.34-9.94Z"/>
    <path class="cls-1" d="M105.59,70.06V62.77H98.37V58h7.22V50.71h5.17V58H118v4.74h-7.21v7.32Z"/>
    <path class="cls-1" d="M128.92,74.08V43.45h13c5.63,0,9,3,9,8.45a6.66,6.66,0,0,1-3.42,6.31,7.25,7.25,0,0,1,4.65,7.26c0,5.65-3.34,8.61-9.06,8.61Zm6.21-17.9h6.38c1.75,0,3.15-1.21,3.15-3.66s-1.37-3.64-3.15-3.64h-6.38Zm0,12.47h7.65c1.75,0,3.15-1.21,3.15-3.66s-1.37-3.64-3.15-3.64h-7.65Z"/>
  </g>
</svg>
