<svg id="Layer_1" data-name="Layer 1" xmlns="http://www.w3.org/2000/svg" viewBox="0 0 216 120">
  <defs>
    <style>
      .cls-1 {
        fill: #75fbfd;
      }

      .cls-2 {
        fill: #008480;
      }
    </style>
  </defs>
  <title>icon</title>
  <g>
    <rect class="cls-1" x="140.81" y="58.71" width="33.87" height="2.72"/>
    <rect class="cls-1" x="90.67" y="58.71" width="33.85" height="2.72"/>
    <path class="cls-1" d="M38.52,55.67a1.36,1.36,0,0,1-1-2.31L66.78,24.07a1.38,1.38,0,0,1,1.93,0h0a1.36,1.36,0,0,1,0,1.92L39.49,55.27A1.37,1.37,0,0,1,38.52,55.67Z"/>
    <rect class="cls-1" x="0.15" y="58.71" width="24.01" height="2.72"/>
    <rect class="cls-1" x="191" y="58.71" width="25" height="2.72"/>
    <g>
      <circle class="cls-2" cx="32.33" cy="60.07" r="8.16"/>
      <path class="cls-1" d="M32.33,69.59a9.52,9.52,0,1,1,9.52-9.52h0A9.52,9.52,0,0,1,32.33,69.59Zm0-16.32a6.8,6.8,0,1,0,6.8,6.8h0A6.8,6.8,0,0,0,32.33,53.27Z"/>
    </g>
    <g>
      <circle class="cls-2" cx="82.51" cy="60.07" r="8.16"/>
      <path class="cls-1" d="M82.51,69.59A9.52,9.52,0,1,1,92,60.07,9.53,9.53,0,0,1,82.51,69.59Zm0-16.32a6.8,6.8,0,1,0,6.8,6.8A6.81,6.81,0,0,0,82.51,53.27Z"/>
    </g>
    <g>
      <circle class="cls-2" cx="132.67" cy="60.07" r="8.16"/>
      <path class="cls-1" d="M132.67,69.59a9.52,9.52,0,1,1,9.52-9.52A9.53,9.53,0,0,1,132.67,69.59Zm0-16.32a6.8,6.8,0,1,0,6.8,6.8A6.8,6.8,0,0,0,132.67,53.27Z"/>
    </g>
    <g>
      <circle class="cls-2" cx="182.84" cy="60.07" r="8.16"/>
      <path class="cls-1" d="M182.84,69.59a9.52,9.52,0,1,1,9.52-9.52A9.52,9.52,0,0,1,182.84,69.59Zm0-16.32a6.8,6.8,0,1,0,6.8,6.8A6.8,6.8,0,0,0,182.84,53.27Z"/>
    </g>
  </g>
</svg>
