<?xml version="1.0" encoding="utf-8"?>
<!-- Generator: Adobe Illustrator 24.0.0, SVG Export Plug-In . SVG Version: 6.00 Build 0)  -->
<svg version="1.1" id="Layer_1" xmlns="http://www.w3.org/2000/svg" xmlns:xlink="http://www.w3.org/1999/xlink" x="0px" y="0px"
	 viewBox="0 0 1098 150" style="enable-background:new 0 0 1098 150;" xml:space="preserve">
<style type="text/css">
	.st0{fill:#75FBFD;}
	.st1{fill:#008480;}
</style>
<title>label</title>
<path class="st0" d="M552,77h-6v-9h6V77z M552,51h-6V34h6V51z M552,17h-6V0h6V17z"/>
<path class="st0" d="M978,80h-11v-6h5v-6h6V80z M950,80l-17,0v-6l17,0V80z M916,80l-17,0v-6l17,0V80z M882,80l-17,0v-6l17,0V80z
	 M848,80h-17v-6h17V80z M814,80l-17,0v-6l17,0V80z M780,80l-17,0v-6l17,0V80z M746,80h-17v-6h17V80z M712,80l-17,0v-6l17,0V80z
	 M678,80l-17,0v-6l17,0V80z M644,80l-17,0v-6l17,0V80z M610,80h-17v-6h17V80z M576,80l-17,0v-6l17,0V80z M542,80l-17,0v-6l17,0V80z
	 M508,80h-17v-6h17V80z M474,80h-17v-6h17V80z M440,80l-17,0v-6l17,0V80z M406,80l-17,0v-6l17,0V80z M372,80h-17v-6h17V80z M338,80
	l-17,0v-6l17,0V80z M304,80l-17,0v-6l17,0V80z M270,80l-17,0v-6l17,0V80z M236,80h-17v-6h17V80z M202,80l-17,0v-6l17,0V80z M168,80
	l-17,0v-6l17,0V80z M978,51h-6V34h6V51z M978,17h-6V0h6V17z"/>
<g>
	<circle class="st1" cx="123.7" cy="44.8" r="9.9"/>
	<path class="st0" d="M135.2,44.8c0,6.4-5.1,11.5-11.5,11.5s-11.5-5.1-11.5-11.5s5.1-11.5,11.5-11.5c0,0,0,0,0,0l0,0
		C130.1,33.3,135.2,38.5,135.2,44.8z M115.5,44.8c0,4.5,3.7,8.2,8.2,8.2c4.5,0,8.2-3.7,8.2-8.2s-3.7-8.2-8.2-8.2
		C119.2,36.6,115.5,40.3,115.5,44.8C115.5,44.8,115.5,44.8,115.5,44.8z"/>
</g>
<g>
	<circle class="st1" cx="123.7" cy="105.6" r="9.9"/>
	<path class="st0" d="M135.2,105.6c0,6.4-5.2,11.5-11.5,11.5c-6.4,0-11.5-5.2-11.5-11.5c0-6.4,5.2-11.5,11.5-11.5l0,0
		C130.1,94.1,135.2,99.3,135.2,105.6L135.2,105.6z M115.5,105.6c0,4.5,3.7,8.2,8.2,8.2c4.5,0,8.2-3.7,8.2-8.2s-3.7-8.2-8.2-8.2
		C119.2,97.4,115.5,101.1,115.5,105.6C115.5,105.6,115.5,105.6,115.5,105.6z"/>
</g>
<rect x="120.4" y="114.3" transform="matrix(1 -8.056379e-03 8.056379e-03 1 -1.0622 0.9987)" class="st0" width="6" height="36"/>
<rect x="120.4" y="0.3" transform="matrix(1 -8.530251e-03 8.530251e-03 1 -0.1434 1.0535)" class="st0" width="6" height="34"/>
<rect x="121.9" y="74.9" transform="matrix(0.6634 -0.7483 0.7483 0.6634 -8.4314 137.0887)" class="st0" width="52.5" height="6"/>
<g>
	<circle class="st1" cx="975" cy="77" r="9.9"/>
	<path class="st0" d="M986.5,77c0,6.4-5.2,11.5-11.5,11.5c-6.4,0-11.5-5.2-11.5-11.5s5.2-11.5,11.5-11.5l0,0
		C981.4,65.5,986.5,70.6,986.5,77L986.5,77z M966.8,77c0,4.5,3.7,8.2,8.2,8.2s8.2-3.7,8.2-8.2s-3.7-8.2-8.2-8.2S966.8,72.5,966.8,77
		C966.8,77,966.8,77,966.8,77z"/>
</g>
<g>
	<circle class="st1" cx="549" cy="77" r="9.9"/>
	<path class="st0" d="M560.5,77c0,6.4-5.2,11.5-11.5,11.5c-6.4,0-11.5-5.2-11.5-11.5s5.2-11.5,11.5-11.5l0,0
		C555.4,65.5,560.5,70.7,560.5,77L560.5,77z M540.8,77c0,4.5,3.7,8.2,8.2,8.2s8.2-3.7,8.2-8.2s-3.7-8.2-8.2-8.2S540.8,72.5,540.8,77
		C540.8,77,540.8,77,540.8,77z"/>
</g>
</svg>
