<svg xmlns="http://www.w3.org/2000/svg" viewBox="0 0 130.56 116.52">
  <defs>
    <style>
      .cls-1, .cls-3 {
        fill: #ff0;
      }

      .cls-1, .cls-2 {
        opacity: 0.25;
      }
    </style>
  </defs>
  <title>warningAsset 3</title>
  <g id="Layer_2" data-name="Layer 2">
    <g id="ui">
      <g>
        <path class="cls-1" d="M59.63,9.78,7.42,100.22A6.52,6.52,0,0,0,13.06,110H117.49a6.52,6.52,0,0,0,5.65-9.78L70.93,9.78A6.52,6.52,0,0,0,59.63,9.78Z"/>
        <g class="cls-2">
          <path class="cls-3" d="M65.28,13l52.21,90.44H13.06L65.25,13.05h0m0-6.52a6.46,6.46,0,0,0-5.65,3.26L7.42,100.22A6.52,6.52,0,0,0,13.06,110H117.49a6.52,6.52,0,0,0,5.65-9.78L70.93,9.78a6.48,6.48,0,0,0-5.65-3.26Z"/>
        </g>
      </g>
      <path class="cls-3" d="M65.28,6.52a6.48,6.48,0,0,1,5.65,3.26l52.21,90.44a6.52,6.52,0,0,1-5.65,9.78H13.06a6.52,6.52,0,0,1-5.64-9.78L59.63,9.78a6.46,6.46,0,0,1,5.65-3.26m0-6.52A12.92,12.92,0,0,0,54,6.52L1.77,97a13,13,0,0,0,11.29,19.56H117.49A13,13,0,0,0,128.79,97L76.57,6.52A12.9,12.9,0,0,0,65.28,0Z"/>
      <path class="cls-3" d="M71.84,55.42H60.2c-10.85,0-20.24,8.87-20.42,19.71a20,20,0,1,0,40.05-.64,2.06,2.06,0,0,1,2.07-2.13h1.85a1,1,0,0,0,1-1V56.46a1,1,0,0,0-1-1Zm.79,29.32a3.21,3.21,0,0,1-2.33,1.15,12.1,12.1,0,0,1-1.21.06A13.29,13.29,0,0,1,58,79.86a7.49,7.49,0,0,0-5.86,4.25l0,.06,0,.06a3.22,3.22,0,0,1-2.77,1.64,3,3,0,0,1-1.25-.26,2.81,2.81,0,0,1-1.57-1.68,3.24,3.24,0,0,1,.17-2.59A13.28,13.28,0,0,1,58,73.74a7.48,7.48,0,0,0-.75-7.2l0-.06,0-.06A3.19,3.19,0,0,1,58,62.25a2.71,2.71,0,0,1,1.69-.57,3.21,3.21,0,0,1,2.71,1.49,13.24,13.24,0,0,1,.91,13.64,7.46,7.46,0,0,0,6,3l.65,0h.14a3.18,3.18,0,0,1,3.2,2.79A2.81,2.81,0,0,1,72.63,84.74Z"/>
    </g>
  </g>
</svg>
