<svg xmlns="http://www.w3.org/2000/svg" viewBox="0 0 130.56 116.52">
  <defs>
    <style>
      .cls-1, .cls-3 {
        fill: #ff0;
      }

      .cls-1, .cls-2 {
        opacity: 0.25;
      }
    </style>
  </defs>
  <title>warningAsset 6</title>
  <g id="Layer_2" data-name="Layer 2">
    <g id="ui">
      <g>
        <path class="cls-1" d="M59.63,9.78,7.42,100.22A6.52,6.52,0,0,0,13.06,110H117.49a6.52,6.52,0,0,0,5.65-9.78L70.93,9.78A6.52,6.52,0,0,0,59.63,9.78Z"/>
        <g class="cls-2">
          <path class="cls-3" d="M65.28,13l52.21,90.44H13.06L65.25,13.05h0m0-6.52a6.46,6.46,0,0,0-5.65,3.26L7.42,100.22A6.52,6.52,0,0,0,13.06,110H117.49a6.52,6.52,0,0,0,5.65-9.78L70.93,9.78a6.48,6.48,0,0,0-5.65-3.26Z"/>
        </g>
      </g>
      <path class="cls-3" d="M65.28,6.52a6.48,6.48,0,0,1,5.65,3.26l52.21,90.44a6.52,6.52,0,0,1-5.65,9.78H13.06a6.52,6.52,0,0,1-5.64-9.78L59.63,9.78a6.46,6.46,0,0,1,5.65-3.26m0-6.52A12.92,12.92,0,0,0,54,6.52L1.77,97a13,13,0,0,0,11.29,19.56H117.49A13,13,0,0,0,128.79,97L76.57,6.52A12.9,12.9,0,0,0,65.28,0Z"/>
      <g>
        <g>
          <path class="cls-3" d="M55,67.31h0a13.8,13.8,0,0,0,.1-16,1.8,1.8,0,0,0-2.52-.63,1.9,1.9,0,0,0-.49,2.54,10.56,10.56,0,0,1,0,12.1h0a13.8,13.8,0,0,0-.1,16,1.8,1.8,0,0,0,2.52.63A1.9,1.9,0,0,0,55,79.41,10.58,10.58,0,0,1,55,67.31Z"/>
          <path class="cls-3" d="M66.73,67.31h0a13.78,13.78,0,0,0,.1-16,1.8,1.8,0,0,0-2.52-.63,1.9,1.9,0,0,0-.49,2.54,10.54,10.54,0,0,1,0,12.1h0a13.8,13.8,0,0,0-.1,16,1.81,1.81,0,0,0,2.53.63,1.91,1.91,0,0,0,.48-2.54A10.56,10.56,0,0,1,66.73,67.31Z"/>
          <path class="cls-3" d="M78.46,67.31h0a13.8,13.8,0,0,0,.11-16A1.81,1.81,0,0,0,76,50.72a1.89,1.89,0,0,0-.48,2.54,10.56,10.56,0,0,1,0,12.1h0a13.8,13.8,0,0,0-.11,16A1.81,1.81,0,0,0,78,82a1.89,1.89,0,0,0,.48-2.54A10.56,10.56,0,0,1,78.46,67.31Z"/>
        </g>
        <path class="cls-3" d="M83.46,93.27H47.1a6.83,6.83,0,0,1-6.82-6.82V79.64a2.27,2.27,0,1,1,4.54,0v6.81a2.28,2.28,0,0,0,2.28,2.28H83.46a2.28,2.28,0,0,0,2.27-2.28V79.64a2.28,2.28,0,1,1,4.55,0v6.81A6.83,6.83,0,0,1,83.46,93.27Z"/>
      </g>
    </g>
  </g>
</svg>
