<svg xmlns="http://www.w3.org/2000/svg" viewBox="0 0 130.56 116.52">
  <defs>
    <style>
      .cls-1, .cls-3 {
        fill: #ff0;
      }

      .cls-1, .cls-2 {
        opacity: 0.25;
      }
    </style>
  </defs>
  <title>warningAsset 2</title>
  <g id="Layer_2" data-name="Layer 2">
    <g id="ui">
      <g>
        <path class="cls-1" d="M59.63,9.78,7.42,100.22A6.52,6.52,0,0,0,13.06,110H117.49a6.52,6.52,0,0,0,5.65-9.78L70.93,9.78A6.52,6.52,0,0,0,59.63,9.78Z"/>
        <g class="cls-2">
          <path class="cls-3" d="M65.28,13l52.21,90.44H13.06L65.25,13.05h0m0-6.52a6.46,6.46,0,0,0-5.65,3.26L7.42,100.22A6.52,6.52,0,0,0,13.06,110H117.49a6.52,6.52,0,0,0,5.65-9.78L70.93,9.78a6.48,6.48,0,0,0-5.65-3.26Z"/>
        </g>
      </g>
      <path class="cls-3" d="M65.28,6.52a6.48,6.48,0,0,1,5.65,3.26l52.21,90.44a6.52,6.52,0,0,1-5.65,9.78H13.06a6.52,6.52,0,0,1-5.64-9.78L59.63,9.78a6.46,6.46,0,0,1,5.65-3.26m0-6.52A12.92,12.92,0,0,0,54,6.52L1.77,97a13,13,0,0,0,11.29,19.56H117.49A13,13,0,0,0,128.79,97L76.57,6.52A12.9,12.9,0,0,0,65.28,0Z"/>
      <path class="cls-3" d="M65.28,41.85C59.82,50.48,48.2,65.26,48.38,75a17,17,0,0,0,16.9,16.9c9.33,0,16.55-7.57,16.9-16.9C82.36,65.26,70.74,50.48,65.28,41.85Zm4.45,44.53a12.11,12.11,0,0,1-4.93,1,13.26,13.26,0,0,1-4.64-.86,11.49,11.49,0,0,1-6.77-6.77,12.5,12.5,0,0,1,.17-9.56.87.87,0,0,1,.8-.53A.9.9,0,0,1,55,70a.86.86,0,0,1,.2.71,12.62,12.62,0,0,0,.8,6.85,11.36,11.36,0,0,0,6.33,6.34,13.17,13.17,0,0,0,4.88,1,11.93,11.93,0,0,0,2-.16h.15a.88.88,0,0,1,.35,1.68Z"/>
    </g>
  </g>
</svg>
