<svg xmlns="http://www.w3.org/2000/svg" viewBox="0 0 130.56 116.52">
  <defs>
    <style>
      .cls-1, .cls-3 {
        fill: #ff0;
      }

      .cls-1, .cls-2 {
        opacity: 0.25;
      }
    </style>
  </defs>
  <title>warningAsset 8</title>
  <g id="Layer_2" data-name="Layer 2">
    <g id="ui">
      <g>
        <path class="cls-1" d="M59.63,9.78,7.42,100.22A6.52,6.52,0,0,0,13.06,110H117.49a6.52,6.52,0,0,0,5.65-9.78L70.93,9.78A6.52,6.52,0,0,0,59.63,9.78Z"/>
        <g class="cls-2">
          <path class="cls-3" d="M65.28,13l52.21,90.44H13.06L65.25,13.05h0m0-6.52a6.46,6.46,0,0,0-5.65,3.26L7.42,100.22A6.52,6.52,0,0,0,13.06,110H117.49a6.52,6.52,0,0,0,5.65-9.78L70.93,9.78a6.48,6.48,0,0,0-5.65-3.26Z"/>
        </g>
      </g>
      <path class="cls-3" d="M65.28,6.52a6.48,6.48,0,0,1,5.65,3.26l52.21,90.44a6.52,6.52,0,0,1-5.65,9.78H13.06a6.52,6.52,0,0,1-5.64-9.78L59.63,9.78a6.46,6.46,0,0,1,5.65-3.26m0-6.52A12.92,12.92,0,0,0,54,6.52L1.77,97a13,13,0,0,0,11.29,19.56H117.49A13,13,0,0,0,128.79,97L76.57,6.52A12.9,12.9,0,0,0,65.28,0Z"/>
      <path class="cls-3" d="M80.63,62.58,67,42.74a2.07,2.07,0,0,0-2.87-.54,2,2,0,0,0-.54.54L50,62.58a18.64,18.64,0,1,0,30.68,0Zm-25.58,20a13.59,13.59,0,0,1-3.33-9.25l-2.3-.29,5.43-7.19,3.52,8.3-2.12-.26A9,9,0,0,0,70,81.41l2.37,3.84A13.5,13.5,0,0,1,55.05,82.6Zm20.68-1.11L72.18,73.2l2.12.25A9,9,0,0,0,60,66.38L57.3,62.72A13.56,13.56,0,0,1,78.83,74l2.3.27Z"/>
    </g>
  </g>
</svg>
