<?xml version="1.0" encoding="utf-8"?>
<!-- Generator: Adobe Illustrator 24.0.0, SVG Export Plug-In . SVG Version: 6.00 Build 0)  -->
<svg version="1.1" id="Layer_1" xmlns="http://www.w3.org/2000/svg" xmlns:xlink="http://www.w3.org/1999/xlink" x="0px" y="0px"
	 viewBox="0 0 672 150" style="enable-background:new 0 0 672 150;" xml:space="preserve">
<style type="text/css">
	.st0{fill:#75FBFD;}
</style>
<title>label</title>
<path class="st0" d="M120,0v17h6V0H120z M120,34v17h6V34H120z M120,102v17h6v-17H120z M120,136v14h6v-14H120z"/>
<polygon class="st0" points="132,75 132,81 126,81 126,85 120,85 120,68 126,68 126,75 "/>
<path class="st0" d="M552,81.2l-9.8,0l0-6l3.8,0V68h6V81.2z M525.2,81.1l-17,0l0-6l17,0L525.2,81.1z M491.2,81.1l-17,0l0-6l17,0
	L491.2,81.1z M457.2,81.1l-17,0l0-6l17,0L457.2,81.1z M423.2,81L410,81l0-6l13.2,0L423.2,81z M552,51h-6V34h6V51z M552,17h-6V0h6V17
	z"/>
<path class="st0" d="M149,75v6h17v-6H149z M183,75v6h17v-6H183z M217,75v6h17v-6H217z M251,75v6h17v-6H251z"/>
<path class="st0" d="M276.3,94.4v-2.5l13.2-35.5h7.6l13.2,35.5v2.6h-7.6l-3.1-9h-13l-3.2,8.9L276.3,94.4z M288.8,79.1h8.4l-4.1-12.4
	L288.8,79.1z"/>
<path class="st0" d="M321.4,94.4V56.3h7.1l14.6,23.8V56.3h7.7v38.1h-7.1l-14.5-23.7v23.8L321.4,94.4z"/>
<path class="st0" d="M365.8,94.4V56.3h13.8c9.4,0,15.2,4.8,15.2,13.1v11.9c0,8.3-5.8,13.1-15.2,13.1L365.8,94.4z M373.5,87.6h6.1
	c4.7,0,7.5-2.7,7.5-6.1V69.2c0-3.5-2.7-6.2-7.5-6.2h-6.1V87.6z"/>
</svg>
