<?xml version="1.0" encoding="UTF-8"?><svg id="Layer_1" xmlns="http://www.w3.org/2000/svg" viewBox="0 0 84.37 84.37"><defs><style>.cls-1{fill:#fff;}</style></defs><path class="cls-1" d="M58.1,56.24c1.86-2.43,2.96-5.47,2.96-8.77,0-7.99-6.48-14.47-14.47-14.47s-14.47,6.48-14.47,14.47,6.48,14.47,14.47,14.47c3.18,0,6.12-1.03,8.5-2.76l13.84,13.84,2.98-2.98-13.81-13.81Zm-21.82-8.77c0-5.69,4.61-10.3,10.3-10.3s10.3,4.61,10.3,10.3-4.61,10.3-10.3,10.3-10.3-4.61-10.3-10.3Z"/><g><path class="cls-1" d="M46.86,11.34H16.47v56.36H50.96v-2.59H19.06V13.94h25.97v9.27h9.27v11.12h2.59v-12.96l-10.03-10.02Zm.76,9.27v-4.85l4.85,4.85h-4.85Z"/><rect class="cls-1" x="21.67" y="21.24" width="18.18" height="2.06"/><rect class="cls-1" x="21.67" y="27.93" width="28.37" height="2.06"/><path class="cls-1" d="M32.84,34.63c-.61,.64-1.17,1.33-1.67,2.06h-9.51v-2.06h11.18Z"/><path class="cls-1" d="M28.82,41.27c-.24,.67-.44,1.36-.59,2.06h-6.56v-2.06h7.15Z"/><path class="cls-1" d="M27.95,49.98h-6.29v-2.06h6.12c.01,.7,.07,1.39,.17,2.06Z"/><path class="cls-1" d="M30.15,56.63h-8.49v-2.07h7.5c.28,.71,.61,1.4,.99,2.07Z"/></g></svg>