<?xml version="1.0" encoding="utf-8"?>
<!-- Generator: Adobe Illustrator 24.0.0, SVG Export Plug-In . SVG Version: 6.00 Build 0)  -->
<svg version="1.1" id="Layer_1" xmlns="http://www.w3.org/2000/svg" xmlns:xlink="http://www.w3.org/1999/xlink" x="0px" y="0px"
	 viewBox="0 0 216 120" style="enable-background:new 0 0 216 120;" xml:space="preserve">
<style type="text/css">
	.st0{enable-background:new    ;}
	.st1{fill:#75FBFD;}
</style>
<title>icon</title>
<g class="st0">
	<path class="st1" d="M40.1,44h6.6v23.9H59V74H40.1V44z"/>
	<path class="st1" d="M62.6,44h6.6v30h-6.6V44z"/>
	<path class="st1" d="M90,51.4c-0.5-0.7-1.3-1.2-2.2-1.5c-0.9-0.3-1.8-0.5-2.6-0.5c-0.5,0-1,0.1-1.5,0.2c-0.5,0.1-1,0.3-1.4,0.5
		c-0.5,0.2-0.8,0.6-1.1,1c-0.3,0.4-0.4,0.9-0.4,1.4c0,0.9,0.3,1.6,1,2.1c0.7,0.5,1.5,0.9,2.6,1.2c1,0.3,2.1,0.7,3.3,1
		c1.2,0.3,2.3,0.8,3.3,1.4c1,0.6,1.9,1.5,2.6,2.5c0.7,1,1,2.4,1,4.2c0,1.7-0.3,3.1-0.9,4.4s-1.5,2.3-2.5,3.1s-2.3,1.4-3.7,1.8
		c-1.4,0.4-2.9,0.6-4.4,0.6c-1.9,0-3.8-0.3-5.4-0.9c-1.7-0.6-3.2-1.6-4.7-2.9l4.7-5.2c0.7,0.9,1.5,1.6,2.6,2.1
		c1,0.5,2.1,0.7,3.2,0.7c0.5,0,1.1-0.1,1.6-0.2c0.6-0.1,1-0.3,1.5-0.6c0.4-0.3,0.8-0.6,1.1-1c0.3-0.4,0.4-0.9,0.4-1.4
		c0-0.9-0.3-1.6-1-2.1c-0.7-0.5-1.6-1-2.6-1.3c-1-0.4-2.2-0.7-3.4-1.1c-1.2-0.4-2.3-0.9-3.4-1.5c-1-0.6-1.9-1.4-2.6-2.5
		c-0.7-1-1-2.4-1-4c0-1.6,0.3-3,1-4.2c0.6-1.2,1.5-2.2,2.5-3.1s2.3-1.4,3.7-1.8c1.4-0.4,2.8-0.6,4.3-0.6c1.7,0,3.3,0.2,4.9,0.7
		c1.6,0.5,3,1.3,4.3,2.4L90,51.4z"/>
	<path class="st1" d="M105.3,49.9h-8.6V44h23.7v5.8h-8.6V74h-6.6V49.9z"/>
	<path class="st1" d="M124.1,44h20.4v6.1h-13.8v5.6h13v6.1h-13v6.1h14.5V74h-21.1V44z"/>
	<path class="st1" d="M150.5,44h9l12.8,20.9h0.1V44h6.6v30h-8.6l-13.1-21.4h-0.1V74h-6.6V44z"/>
</g>
</svg>
