<?xml version="1.0" encoding="utf-8"?>
<!-- Generator: Adobe Illustrator 24.0.0, SVG Export Plug-In . SVG Version: 6.00 Build 0)  -->
<svg version="1.1" id="Layer_1" xmlns="http://www.w3.org/2000/svg" xmlns:xlink="http://www.w3.org/1999/xlink" x="0px" y="0px"
	 viewBox="0 0 246 150" style="enable-background:new 0 0 246 150;" xml:space="preserve">
<style type="text/css">
	.st0{fill:#75FBFD;}
	.st1{enable-background:new    ;}
</style>
<title>label</title>
<path class="st0" d="M126,47h-6V34h6V47z M126,17h-6V0h6V17z"/>
<path class="st0" d="M126,150h-6v-17h6V150z M126,116h-6v-12h6V116z"/>
<g class="st1">
	<path class="st0" d="M38.8,55.2H47v29.7h15.2v7.6H38.8V55.2z"/>
	<path class="st0" d="M66.6,55.2h8.2v37.2h-8.2V55.2z"/>
	<path class="st0" d="M100.7,64.3c-0.7-0.8-1.6-1.5-2.7-1.9c-1.1-0.4-2.2-0.6-3.2-0.6c-0.6,0-1.2,0.1-1.8,0.2
		c-0.6,0.1-1.2,0.4-1.8,0.7c-0.6,0.3-1,0.7-1.4,1.2c-0.4,0.5-0.5,1.1-0.5,1.8c0,1.1,0.4,2,1.3,2.6s1.9,1.1,3.2,1.5
		c1.3,0.4,2.7,0.8,4.1,1.3c1.5,0.4,2.8,1,4.1,1.8c1.3,0.8,2.3,1.8,3.2,3.1s1.3,3,1.3,5.2c0,2.1-0.4,3.9-1.2,5.4
		c-0.8,1.5-1.8,2.8-3.1,3.8c-1.3,1-2.8,1.8-4.6,2.3c-1.7,0.5-3.6,0.7-5.5,0.7c-2.4,0-4.7-0.4-6.7-1.1c-2.1-0.7-4-1.9-5.8-3.6
		l5.8-6.4c0.8,1.1,1.9,2,3.2,2.6c1.3,0.6,2.6,0.9,4,0.9c0.7,0,1.3-0.1,2-0.2c0.7-0.2,1.3-0.4,1.8-0.7c0.5-0.3,1-0.7,1.3-1.2
		c0.3-0.5,0.5-1.1,0.5-1.7c0-1.1-0.4-2-1.3-2.7c-0.9-0.6-1.9-1.2-3.2-1.7c-1.3-0.5-2.7-0.9-4.2-1.4c-1.5-0.5-2.9-1.1-4.2-1.8
		c-1.3-0.8-2.4-1.8-3.2-3c-0.9-1.3-1.3-2.9-1.3-5c0-2,0.4-3.8,1.2-5.3c0.8-1.5,1.8-2.8,3.2-3.8s2.8-1.8,4.5-2.3
		c1.7-0.5,3.5-0.8,5.3-0.8c2.1,0,4.1,0.3,6.1,0.9c2,0.6,3.7,1.6,5.3,3L100.7,64.3z"/>
	<path class="st0" d="M119.7,62.4h-10.6v-7.3h29.4v7.3h-10.6v30h-8.2V62.4z"/>
	<path class="st0" d="M143,55.2h25.3v7.6h-17.1v6.9h16.1v7.6h-16.1v7.6h18v7.6H143V55.2z"/>
	<path class="st0" d="M175.8,55.2h11.1l15.8,25.9h0.1V55.2h8.2v37.2h-10.7l-16.2-26.5H184v26.5h-8.2V55.2z"/>
</g>
</svg>
