<svg id="Layer_1" data-name="Layer 1" xmlns="http://www.w3.org/2000/svg" viewBox="0 0 92 46"><defs><style>.cls-1{opacity:0.4;}.cls-2,.cls-3{fill:none;stroke:#fff;stroke-miterlimit:10;stroke-width:2px;}.cls-3{stroke-dasharray:5.71 5.71;}.cls-4{fill:#fff;}</style></defs><title>_</title><g class="cls-1"><line class="cls-2" x1="46" x2="46" y2="3"/><line class="cls-3" x1="46" y1="8.71" x2="46" y2="40.14"/><line class="cls-2" x1="46" y1="43" x2="46" y2="46"/></g><g id="Routing_Layer-2" data-name="Routing Layer-2"><path class="cls-4" d="M43,23.78A17.45,17.45,0,0,1,25.57,41.25h0V36.47A12.73,12.73,0,1,0,12.85,22.32l5.76.2-8.39,7.9L2.4,22.12l5.76.2A17.47,17.47,0,0,1,43,23.78Z"/></g><path class="cls-4" d="M81.11,23.57a13.27,13.27,0,0,0-.26-2.6l5.52-4-3.53-6.11L76.6,13.58A13.32,13.32,0,0,0,72.06,11l-.74-6.78H64.27L63.53,11A13.28,13.28,0,0,0,59,13.58l-6.25-2.76-3.53,6.11,5.52,4a13.27,13.27,0,0,0-.26,2.6,13.5,13.5,0,0,0,.26,2.62l-5.52,4,3.53,6.11L59,33.58a13.25,13.25,0,0,0,4.51,2.61L64.27,43h7.05l.74-6.81a13.3,13.3,0,0,0,4.51-2.61l6.27,2.77,3.53-6.11-5.52-4A13.5,13.5,0,0,0,81.11,23.57ZM67.79,33.65A10.08,10.08,0,1,1,77.87,23.57,10.09,10.09,0,0,1,67.79,33.65Z"/></svg>