<svg xmlns="http://www.w3.org/2000/svg" viewBox="0 0 170 100">
  <defs>
    <style>
      .cls-1 {
        opacity: 0.5;
      }

      .cls-2 {
        fill: #75fbfd;
      }

      .cls-3 {
        fill: #008480;
      }
    </style>
  </defs>
  <title>Asset 25</title>
  <g id="Layer_2" data-name="Layer 2">
    <g id="UI">
      <g>
        <g class="cls-1">
          <polygon points="0 0 0 100 37.08 100 170 100 170 36.65 170 0 0 0"/>
        </g>
        <g class="cls-1">
          <path class="cls-2" d="M164,5.94V94.06H6V5.94H164M170,0H0V100H170V0Z"/>
        </g>
        <g>
          <rect class="cls-2" x="109.43" y="49" width="24.9" height="2"/>
          <rect class="cls-2" x="72.56" y="49" width="24.89" height="2"/>
          <path class="cls-2" d="M34.22,46.76a1,1,0,0,1-.7-.29,1,1,0,0,1,0-1.41L55,23.53a1,1,0,0,1,1.42,0,1,1,0,0,1,0,1.41L34.93,46.47A1,1,0,0,1,34.22,46.76Z"/>
          <rect class="cls-2" x="6.01" y="49" width="17.65" height="2"/>
          <rect class="cls-2" x="146.33" y="49" width="17.5" height="2"/>
          <g>
            <circle class="cls-3" cx="29.67" cy="50" r="6"/>
            <path class="cls-2" d="M29.67,57a7,7,0,1,1,7-7A7,7,0,0,1,29.67,57Zm0-12a5,5,0,1,0,5,5A5,5,0,0,0,29.67,45Z"/>
          </g>
          <g>
            <circle class="cls-3" cx="66.56" cy="50" r="6"/>
            <path class="cls-2" d="M66.56,57a7,7,0,1,1,7-7A7,7,0,0,1,66.56,57Zm0-12a5,5,0,1,0,5,5A5,5,0,0,0,66.56,45Z"/>
          </g>
          <g>
            <circle class="cls-3" cx="103.44" cy="50" r="6"/>
            <path class="cls-2" d="M103.44,57a7,7,0,1,1,7-7A7,7,0,0,1,103.44,57Zm0-12a5,5,0,1,0,5,5A5,5,0,0,0,103.44,45Z"/>
          </g>
          <g>
            <circle class="cls-3" cx="140.33" cy="50" r="6"/>
            <path class="cls-2" d="M140.33,57a7,7,0,1,1,7-7A7,7,0,0,1,140.33,57Zm0-12a5,5,0,1,0,5,5A5,5,0,0,0,140.33,45Z"/>
          </g>
        </g>
      </g>
    </g>
  </g>
</svg>
