<svg id="Layer_1" data-name="Layer 1" xmlns="http://www.w3.org/2000/svg" viewBox="0 0 92 46"><defs><style>.cls-1{fill:#fff;}</style></defs><title>blockIconTemplates</title><path class="cls-1" d="M27.41,8.52,25.43,7l-15,20.18a4.86,4.86,0,0,0-1.68-.3A4.92,4.92,0,0,0,4,30.57H0V33H4a4.91,4.91,0,1,0,8.46-4.45ZM8.68,34.33a2.46,2.46,0,1,1,2.46-2.46h0A2.46,2.46,0,0,1,8.68,34.33Z"/><path class="cls-1" d="M61.85,30.63a2.52,2.52,0,0,1,.47,1.49,2.58,2.58,0,0,1-.19,1H79V30.63Zm-24.61,0a4.91,4.91,0,1,0,.12,2.46H57.84a2.68,2.68,0,0,1-.19-1,2.55,2.55,0,0,1,.47-1.47Zm-4.7,3.93h0A2.46,2.46,0,1,1,35,32.1,2.46,2.46,0,0,1,32.55,34.57Z"/><path class="cls-1" d="M87.24,30.63a4.91,4.91,0,1,0,.12,2.46H92V30.63Zm-4.69,3.94A2.46,2.46,0,1,1,85,32.1a2.46,2.46,0,0,1-2.45,2.47Z"/><path class="cls-1" d="M64.43,30.63a4.81,4.81,0,0,0-3.07-3.23,4.63,4.63,0,0,0-5.84,3.23H51v2.46h4.41a4.81,4.81,0,0,0,3.18,3.69,4.62,4.62,0,0,0,5.84-3.23c0-.15.08-.31.11-.46A5.09,5.09,0,0,0,64.43,30.63ZM60,34.57h0a2.35,2.35,0,0,1-2.15-1.47,2.68,2.68,0,0,1-.19-1,2.55,2.55,0,0,1,.47-1.47,2.28,2.28,0,0,1,1.88-1,2.3,2.3,0,0,1,1.85,1,2.52,2.52,0,0,1,.47,1.49,2.58,2.58,0,0,1-.19,1A2.32,2.32,0,0,1,60,34.57Z"/></svg>