<svg id="Layer_1" data-name="Layer 1" xmlns="http://www.w3.org/2000/svg" viewBox="0 0 368 46"><defs><style>.cls-1{opacity:0.4;}.cls-2,.cls-3,.cls-5{fill:none;stroke:#fff;stroke-miterlimit:10;stroke-width:2px;}.cls-3{stroke-dasharray:6.21 6.21;}.cls-4{fill:#fff;}.cls-5{stroke-dasharray:5.71 5.71;}</style></defs><title>blockIconTemplates</title><g class="cls-1"><line class="cls-2" x1="47" y1="23.5" x2="50" y2="23.49"/><line class="cls-3" x1="56.21" y1="23.46" x2="164.89" y2="23.02"/><line class="cls-2" x1="168" y1="23.01" x2="171" y2="23"/></g><path class="cls-4" d="M167.11,18.29,166,19.74l14.77,11a3.56,3.56,0,0,0-.22,1.23,3.6,3.6,0,0,0,2.7,3.48V46h1.8V35.43a3.59,3.59,0,1,0-3.26-6.19ZM186,32a1.8,1.8,0,1,1-1.8-1.8A1.8,1.8,0,0,1,186,32Z"/><path class="cls-4" d="M183.29,11.1a3.59,3.59,0,1,0,1.8-.09V0h-1.8Zm2.88,3.43a1.8,1.8,0,1,1-1.8-1.8,1.8,1.8,0,0,1,1.8,1.8Z"/><path class="cls-4" d="M323.44,27.29a2.25,2.25,0,0,0-.35-.09V18a2.2,2.2,0,0,0,.35-.08,3.59,3.59,0,0,0-.35-6.94V0h-1.8V11.1a3.58,3.58,0,0,0,0,6.84v9.35a3.65,3.65,0,0,0-2.35,2.45A3.81,3.81,0,0,0,319.4,33a3.46,3.46,0,0,0,1.48,1.3,3,3,0,0,0,.41.17V46h1.8V34.52a2.93,2.93,0,0,0,.77-.27A3.44,3.44,0,0,0,325.32,33a3.54,3.54,0,0,0,.47-1A3.78,3.78,0,0,0,323.44,27.29Zm-2.87-12.76a1.8,1.8,0,1,1,1.8,1.8A1.81,1.81,0,0,1,320.57,14.53Zm1.8,18.2a1.81,1.81,0,0,1-1.69-1.24,1.9,1.9,0,0,1-.11-.63,1.84,1.84,0,0,1,.72-1.49,1.68,1.68,0,0,1,1.08-.39,1.73,1.73,0,0,1,.72.16,1.89,1.89,0,0,1,1.08,1.72,1.73,1.73,0,0,1-.12.64A1.78,1.78,0,0,1,322.37,32.73Z"/><g class="cls-1"><line class="cls-2" x1="46" x2="46" y2="3"/><line class="cls-5" x1="46" y1="8.71" x2="46" y2="40.14"/><line class="cls-2" x1="46" y1="43" x2="46" y2="46"/></g><path class="cls-4" d="M51.92,37.83a6.42,6.42,0,0,1,.28-2,4.53,4.53,0,0,1,.8-1.47,3.47,3.47,0,0,1,5.52,0,4.6,4.6,0,0,1,.79,1.51,7,7,0,0,1,0,3.92,4.67,4.67,0,0,1-.79,1.51,3.47,3.47,0,0,1-1.21,1,3.53,3.53,0,0,1-4.31-1,4.59,4.59,0,0,1-.79-1.51A6.42,6.42,0,0,1,51.92,37.83Zm2.33,0a5.12,5.12,0,0,0,.11,1.09,3.19,3.19,0,0,0,.31.85,1.64,1.64,0,0,0,.47.56,1,1,0,0,0,.62.2,1.05,1.05,0,0,0,.62-.2,1.57,1.57,0,0,0,.47-.56,3.34,3.34,0,0,0,.3-.85,5.55,5.55,0,0,0,0-2.18,3.23,3.23,0,0,0-.3-.85,1.58,1.58,0,0,0-.47-.55,1.05,1.05,0,0,0-.62-.2,1,1,0,0,0-.62.2,1.66,1.66,0,0,0-.47.55,3.1,3.1,0,0,0-.31.85A5.14,5.14,0,0,0,54.25,37.83Z"/><path class="cls-4" d="M67.22,33.32v9H64.87v-9Z"/><g class="cls-1"><line class="cls-2" x1="171" y1="23.5" x2="174.65" y2="23.49"/><line class="cls-3" x1="182.22" y1="23.46" x2="314.56" y2="23.02"/><line class="cls-2" x1="318.35" y1="23.01" x2="322" y2="23"/></g></svg>