<svg id="Layer_1" data-name="Layer 1" xmlns="http://www.w3.org/2000/svg" viewBox="0 0 216 120">
  <defs>
    <style>
      .cls-1 {
        isolation: isolate;
      }

      .cls-2 {
        fill: #75fbfd;
      }
    </style>
  </defs>
  <title>icon</title>
  <g class="cls-1">
    <path class="cls-2" d="M57.6,44.09H68.71a21.3,21.3,0,0,1,4.39.43A9.89,9.89,0,0,1,76.71,46a7.3,7.3,0,0,1,2.45,2.79,9.48,9.48,0,0,1,.91,4.41,10.2,10.2,0,0,1-.84,4.39,7.16,7.16,0,0,1-2.33,2.83,9.18,9.18,0,0,1-3.5,1.5,20.27,20.27,0,0,1-4.39.45H64.19V74H57.6Zm6.59,12.67h4.39a8.62,8.62,0,0,0,1.71-.17A4.39,4.39,0,0,0,71.77,56a3,3,0,0,0,1.06-1.1,3.41,3.41,0,0,0,.4-1.75,3,3,0,0,0-.53-1.84,3.48,3.48,0,0,0-1.35-1.07,5.6,5.6,0,0,0-1.84-.49,18.69,18.69,0,0,0-1.94-.1H64.19Z"/>
    <path class="cls-2" d="M82.6,59a16.73,16.73,0,0,1,1.21-6.5,14.26,14.26,0,0,1,3.35-5,14.75,14.75,0,0,1,5.11-3.15,19.55,19.55,0,0,1,12.93,0,14.75,14.75,0,0,1,5.11,3.15,14.26,14.26,0,0,1,3.35,5,18.09,18.09,0,0,1,0,13,14.35,14.35,0,0,1-3.35,5,14.88,14.88,0,0,1-5.11,3.14,19.55,19.55,0,0,1-12.93,0,14.88,14.88,0,0,1-5.11-3.14,14.35,14.35,0,0,1-3.35-5A16.82,16.82,0,0,1,82.6,59Zm6.84,0a10.92,10.92,0,0,0,.66,3.87A8.94,8.94,0,0,0,92,66a8.48,8.48,0,0,0,2.93,2,10.52,10.52,0,0,0,7.65,0,8.48,8.48,0,0,0,2.93-2,8.94,8.94,0,0,0,1.88-3,11.76,11.76,0,0,0,0-7.71,8.84,8.84,0,0,0-1.88-3.06,8.51,8.51,0,0,0-2.93-2,10.52,10.52,0,0,0-7.65,0,8.51,8.51,0,0,0-2.93,2A8.84,8.84,0,0,0,90.1,55.2,10.91,10.91,0,0,0,89.44,59Z"/>
    <path class="cls-2" d="M134.12,51.4A4.62,4.62,0,0,0,132,49.9a7.92,7.92,0,0,0-2.6-.49,7,7,0,0,0-1.48.17,6,6,0,0,0-1.43.53,3.18,3.18,0,0,0-1.1,1,2.43,2.43,0,0,0-.42,1.44,2.37,2.37,0,0,0,1,2.07,9.93,9.93,0,0,0,2.55,1.22c1,.34,2.14.68,3.32,1a13.61,13.61,0,0,1,3.31,1.44,7.9,7.9,0,0,1,2.56,2.49,7.65,7.65,0,0,1,1,4.18,9.61,9.61,0,0,1-.93,4.35,8.7,8.7,0,0,1-2.51,3.08,10.61,10.61,0,0,1-3.67,1.82,16.38,16.38,0,0,1-4.42.59,15.77,15.77,0,0,1-5.4-.89A13.48,13.48,0,0,1,117.1,71l4.69-5.15a6.86,6.86,0,0,0,2.56,2.09,7.3,7.3,0,0,0,3.18.74,7,7,0,0,0,1.63-.19,5.56,5.56,0,0,0,1.48-.57,3.16,3.16,0,0,0,1.05-1,2.39,2.39,0,0,0,.4-1.39,2.53,2.53,0,0,0-1-2.14,9.72,9.72,0,0,0-2.6-1.33c-1-.36-2.17-.73-3.37-1.1a14.65,14.65,0,0,1-3.38-1.47,8.22,8.22,0,0,1-2.6-2.45,7,7,0,0,1-1-4,9,9,0,0,1,1-4.23,9.25,9.25,0,0,1,2.54-3,11.1,11.1,0,0,1,3.65-1.84,15.25,15.25,0,0,1,4.27-.61,16.63,16.63,0,0,1,4.89.72,11.29,11.29,0,0,1,4.27,2.41Z"/>
    <path class="cls-2" d="M149.37,49.92h-8.54V44.09h23.65v5.83H156V74h-6.58Z"/>
  </g>
</svg>
