<?xml version="1.0" encoding="utf-8"?>
<!-- Generator: Adobe Illustrator 24.0.0, SVG Export Plug-In . SVG Version: 6.00 Build 0)  -->
<svg version="1.1" id="Layer_1" xmlns="http://www.w3.org/2000/svg" xmlns:xlink="http://www.w3.org/1999/xlink" x="0px" y="0px"
	 viewBox="0 0 246 150" style="enable-background:new 0 0 246 150;" xml:space="preserve">
<style type="text/css">
	.st0{fill:#75FBFD;}
</style>
<title>label</title>
<path class="st0" d="M126,150h-6v-9h6V150z M126,124h-6v-17h6V124z"/>
<path class="st0" d="M126,45h-6V34h6V45z M126,17h-6V0h6V17z"/>
<g>
	<path class="st0" d="M65.2,57.1h12.7c1.7,0,3.4,0.2,5,0.5c1.5,0.3,2.9,0.8,4.1,1.7c1.2,0.8,2.1,1.9,2.8,3.2c0.7,1.6,1.1,3.3,1,5
		c0,1.7-0.3,3.4-1,5c-0.6,1.3-1.5,2.4-2.7,3.2c-1.2,0.8-2.6,1.4-4,1.7c-1.6,0.3-3.3,0.5-5,0.5h-5.4v13.3h-7.5V57.1z M72.7,71.5h5
		c0.7,0,1.3-0.1,2-0.2c0.6-0.1,1.2-0.3,1.7-0.7c0.5-0.3,0.9-0.7,1.2-1.2c0.3-0.6,0.5-1.3,0.4-2c0-0.7-0.2-1.5-0.6-2.1
		c-0.4-0.5-0.9-1-1.5-1.2c-0.7-0.3-1.4-0.5-2.1-0.5c-0.7-0.1-1.5-0.1-2.2-0.1h-3.9V71.5z"/>
	<path class="st0" d="M93.8,74.1c0-2.5,0.4-5.1,1.4-7.4c0.9-2.2,2.2-4.1,3.9-5.7c1.7-1.6,3.7-2.8,5.8-3.6c4.8-1.7,10-1.7,14.8,0
		c2.2,0.8,4.1,2,5.8,3.6c1.7,1.6,3,3.5,3.8,5.7c1.8,4.8,1.8,10.1,0,14.8c-0.9,2.1-2.2,4.1-3.8,5.7c-1.7,1.6-3.7,2.8-5.8,3.6
		c-4.8,1.7-10,1.7-14.8,0c-2.2-0.8-4.1-2-5.8-3.5c-1.7-1.6-3-3.5-3.8-5.7C94.2,79.2,93.7,76.7,93.8,74.1z M101.6,74.1
		c0,1.5,0.2,3,0.8,4.4c0.5,1.3,1.2,2.5,2.1,3.5c0.9,1,2.1,1.8,3.3,2.3c2.8,1.1,5.9,1.1,8.7,0c1.3-0.5,2.4-1.3,3.3-2.3
		c0.9-1,1.7-2.2,2.1-3.5c0.5-1.4,0.8-2.9,0.8-4.4c0-1.5-0.2-3-0.8-4.4c-0.5-1.3-1.2-2.5-2.1-3.5c-0.9-1-2.1-1.7-3.3-2.2
		c-2.8-1.1-5.9-1.1-8.7,0c-1.3,0.5-2.4,1.3-3.3,2.3c-0.9,1-1.7,2.2-2.1,3.5C101.8,71.2,101.6,72.6,101.6,74.1z"/>
	<path class="st0" d="M152.6,65.4c-0.6-0.8-1.5-1.4-2.5-1.7c-1-0.4-2-0.5-3-0.5c-0.6,0-1.1,0.1-1.7,0.2c-0.6,0.1-1.1,0.3-1.6,0.6
		c-0.5,0.3-0.9,0.6-1.2,1.1c-0.8,1.3-0.6,3,0.7,4c0.9,0.6,1.9,1.1,2.9,1.4c1.2,0.4,2.4,0.8,3.8,1.2c1.3,0.4,2.6,0.9,3.8,1.6
		c1.2,0.7,2.2,1.7,2.9,2.8c0.8,1.4,1.2,3.1,1.2,4.8c0,1.7-0.3,3.4-1.1,5c-0.7,1.4-1.7,2.6-2.9,3.5c-1.3,1-2.7,1.7-4.2,2.1
		c-3.7,1-7.6,0.8-11.2-0.4c-2-0.7-3.8-1.8-5.3-3.3l5.4-5.9c0.8,1,1.8,1.8,2.9,2.4c1.1,0.5,2.4,0.8,3.6,0.8c0.6,0,1.3-0.1,1.9-0.2
		c0.6-0.1,1.2-0.3,1.7-0.7c0.5-0.3,0.9-0.7,1.2-1.1c0.3-0.5,0.5-1,0.5-1.6c0-1-0.4-1.9-1.2-2.4c-0.9-0.7-1.9-1.2-3-1.5
		c-1.2-0.4-2.5-0.8-3.9-1.2c-1.4-0.4-2.6-1-3.9-1.7c-1.2-0.7-2.2-1.7-3-2.8c-0.8-1.4-1.3-3-1.2-4.6c0-1.7,0.3-3.3,1.1-4.8
		c0.7-1.3,1.7-2.5,3-3.4c1.2-1,2.7-1.7,4.2-2.1c1.6-0.5,3.2-0.7,4.9-0.7c1.9,0,3.8,0.3,5.6,0.8c1.8,0.6,3.5,1.5,4.9,2.8L152.6,65.4z
		"/>
	<path class="st0" d="M170,63.7h-9.7v-6.6h27v6.7h-9.7v27.5H170V63.7z"/>
</g>
</svg>
