<svg xmlns="http://www.w3.org/2000/svg" viewBox="0 0 283.46 283.46">
  <defs>
    <style>
      .cls-1 {
        fill: #fed003;
        opacity: 0.75;
      }

      .cls-2, .cls-3 {
        fill: none;
        stroke: #75fbfd;
        stroke-width: 5px;
      }

      .cls-2 {
        stroke-miterlimit: 10;
      }

      .cls-3 {
        stroke-linecap: round;
        stroke-linejoin: round;
      }

      .cls-4, .cls-5 {
        fill: #75fbfd;
      }

      .cls-4 {
        opacity: 0.5;
      }
    </style>
  </defs>
  <title>tutorial-icons</title>
  <g id="UI">
    <polygon class="cls-1" points="235.66 186.91 247.98 173.69 235.1 150.28 222.22 173.69 235.66 186.91"/>
    <polygon class="cls-2" points="229.76 122.03 132.62 68.61 35.49 122.03 132.62 175.46 229.76 122.03"/>
    <polyline class="cls-2" points="203.25 137.16 203.25 176.56 132.62 214.85 62.99 176.56 62.99 137.16"/>
    <polyline class="cls-3" points="171.04 122.03 235.66 122.03 235.66 150.28"/>
    <polygon class="cls-2" points="235.66 186.91 247.98 173.69 235.1 150.28 222.22 173.69 235.66 186.91"/>
    <polygon class="cls-4" points="229.76 122.03 132.62 68.61 35.49 122.03 132.62 175.46 229.76 122.03"/>
    <polygon class="cls-4" points="132.62 175.46 62.99 137.16 62.99 176.56 132.62 214.85 203.25 176.56 203.25 137.16 132.62 175.46"/>
  </g>
  <g id="Progress">
    <path class="cls-5" d="M119.08,144v-3.89l5-4.82c12-11.38,17.35-17.43,17.42-24.48,0-4.76-2.3-9.15-9.29-9.15a15.92,15.92,0,0,0-9.93,4l-2-4.46a20.52,20.52,0,0,1,13.25-4.76c10.08,0,14.33,6.92,14.33,13.61,0,8.64-6.27,15.63-16.13,25.13l-3.75,3.46v.14h21V144Z"/>
  </g>
</svg>
