<svg id="Layer_1" data-name="Layer 1" xmlns="http://www.w3.org/2000/svg" viewBox="0 0 92 46"><defs><style>.cls-1{fill:#fff;}</style></defs><title>_</title><g id="Routing_Layer-2" data-name="Routing Layer-2"><path class="cls-1" d="M45,22.78A17.45,17.45,0,0,1,27.57,40.25h0V35.47A12.73,12.73,0,1,0,14.85,21.32l5.76.2-8.39,7.9L4.4,21.12l5.76.2A17.47,17.47,0,0,1,45,22.78Z"/></g><path class="cls-1" d="M83.11,22.57a13.27,13.27,0,0,0-.26-2.6l5.52-4L84.84,9.82,78.6,12.58A13.32,13.32,0,0,0,74.06,10l-.74-6.78H66.27L65.53,10A13.28,13.28,0,0,0,61,12.58L54.74,9.82l-3.53,6.11,5.52,4a13.27,13.27,0,0,0-.26,2.6,13.5,13.5,0,0,0,.26,2.62l-5.52,4,3.53,6.11L61,32.58a13.25,13.25,0,0,0,4.51,2.61L66.27,42h7.05l.74-6.81a13.3,13.3,0,0,0,4.51-2.61l6.27,2.77,3.53-6.11-5.52-4A13.5,13.5,0,0,0,83.11,22.57ZM69.79,32.65A10.08,10.08,0,1,1,79.87,22.57,10.09,10.09,0,0,1,69.79,32.65Z"/></svg>