<?xml version="1.0" encoding="utf-8"?>
<!-- Generator: Adobe Illustrator 21.0.2, SVG Export Plug-In . SVG Version: 6.00 Build 0)  -->
<svg version="1.1" id="Layer_1" xmlns="http://www.w3.org/2000/svg" xmlns:xlink="http://www.w3.org/1999/xlink" x="0px" y="0px"
	 viewBox="0 0 382.3 46" style="enable-background:new 0 0 382.3 46;" xml:space="preserve">
<style type="text/css">
	.st0{opacity:0.4;}
	.st1{fill:none;stroke:#FFFFFF;stroke-width:2;stroke-miterlimit:10;}
	.st2{fill:none;stroke:#FFFFFF;stroke-width:2;stroke-miterlimit:10;stroke-dasharray:5.71,5.71;}
	.st3{fill:none;stroke:#FFFFFF;stroke-width:2;stroke-miterlimit:10;stroke-dasharray:6.21,6.21;}
	.st4{fill:#FFFFFF;}
</style>
<title>_</title>
<g class="st0">
	<line class="st1" x1="53.1" y1="0" x2="53.1" y2="3"/>
	<line class="st2" x1="53.1" y1="8.7" x2="53.1" y2="40.1"/>
	<line class="st1" x1="53.1" y1="43" x2="53.1" y2="46"/>
</g>
<g class="st0">
	<line class="st1" x1="192.1" y1="23.5" x2="195.1" y2="23.5"/>
	<line class="st3" x1="201.3" y1="23.5" x2="310" y2="23"/>
	<line class="st1" x1="313.1" y1="23" x2="316.1" y2="23"/>
</g>
<path class="st4" d="M312.2,18.3l-1.1,1.4l14.8,11c-0.1,0.4-0.2,0.8-0.2,1.2c0,1.6,1.1,3.1,2.7,3.5V46h1.8V35.4
	c1.9-0.5,3.1-2.5,2.6-4.4c-0.5-1.9-2.5-3.1-4.4-2.6c-0.5,0.1-1,0.4-1.4,0.8L312.2,18.3z M331.1,32c0,1-0.8,1.8-1.8,1.8
	s-1.8-0.8-1.8-1.8c0-1,0.8-1.8,1.8-1.8l0,0C330.3,30.2,331.1,31,331.1,32z"/>
<path class="st4" d="M328.4,11.1c-1.9,0.6-2.9,2.6-2.4,4.5s2.6,2.9,4.5,2.4s2.9-2.6,2.4-4.5c-0.4-1.2-1.4-2.2-2.7-2.4V0h-1.8V11.1z
	 M331.3,14.5c0,1-0.8,1.8-1.8,1.8s-1.8-0.8-1.8-1.8s0.8-1.8,1.8-1.8l0,0C330.5,12.7,331.3,13.5,331.3,14.5z"/>
<g class="st0">
	<line class="st1" x1="191.1" y1="0" x2="191.1" y2="3"/>
	<line class="st2" x1="191.1" y1="8.7" x2="191.1" y2="40.1"/>
	<line class="st1" x1="191.1" y1="43" x2="191.1" y2="46"/>
</g>
<path class="st4" d="M197,37.8c0-0.7,0.1-1.4,0.3-2c0.2-0.5,0.4-1,0.8-1.5c1.2-1.5,3.3-1.8,4.9-0.7c0.2,0.2,0.5,0.4,0.7,0.7
	c0.4,0.4,0.6,1,0.8,1.5c0.4,1.3,0.4,2.6,0,3.9c-0.2,0.5-0.4,1.1-0.8,1.5c-0.3,0.4-0.7,0.8-1.2,1c-1.5,0.7-3.3,0.3-4.3-1
	c-0.4-0.4-0.6-1-0.8-1.5C197.1,39.2,197,38.5,197,37.8z M199.4,37.8c0,0.4,0,0.7,0.1,1.1c0.1,0.3,0.2,0.6,0.3,0.8
	c0.1,0.2,0.3,0.4,0.5,0.6c0.2,0.1,0.4,0.2,0.6,0.2c0.2,0,0.4-0.1,0.6-0.2c0.2-0.1,0.4-0.3,0.5-0.6c0.1-0.3,0.2-0.6,0.3-0.8
	c0.1-0.7,0.1-1.5,0-2.2c-0.1-0.3-0.2-0.6-0.3-0.8c-0.1-0.2-0.3-0.4-0.5-0.5c-0.2-0.1-0.4-0.2-0.6-0.2c-0.2,0-0.4,0.1-0.6,0.2
	c-0.2,0.1-0.4,0.3-0.5,0.5c-0.1,0.3-0.2,0.6-0.3,0.8C199.4,37.1,199.4,37.5,199.4,37.8z"/>
<path class="st4" d="M212.3,33.3v9H210v-9H212.3z"/>
<path class="st4" d="M58,37.8c0-0.7,0.1-1.4,0.3-2c0.2-0.5,0.4-1,0.8-1.5c1.2-1.5,3.3-1.8,4.9-0.7c0.2,0.2,0.5,0.4,0.7,0.7
	c0.4,0.4,0.6,1,0.8,1.5c0.4,1.3,0.4,2.6,0,3.9c-0.2,0.5-0.4,1.1-0.8,1.5c-0.3,0.4-0.7,0.8-1.2,1c-1.5,0.7-3.3,0.3-4.3-1
	c-0.4-0.4-0.6-1-0.8-1.5C58.1,39.2,58,38.5,58,37.8z M60.4,37.8c0,0.4,0,0.7,0.1,1.1c0.1,0.3,0.2,0.6,0.3,0.8
	c0.1,0.2,0.3,0.4,0.5,0.6c0.2,0.1,0.4,0.2,0.6,0.2c0.2,0,0.4-0.1,0.6-0.2c0.2-0.1,0.4-0.3,0.5-0.6c0.1-0.3,0.2-0.6,0.3-0.8
	c0.1-0.7,0.1-1.5,0-2.2c-0.1-0.3-0.2-0.6-0.3-0.8c-0.1-0.2-0.3-0.4-0.5-0.5c-0.2-0.1-0.4-0.2-0.6-0.2c-0.2,0-0.4,0.1-0.6,0.2
	c-0.2,0.1-0.4,0.3-0.5,0.5c-0.1,0.3-0.2,0.6-0.3,0.8C60.4,37.1,60.4,37.5,60.4,37.8z"/>
<path class="st4" d="M73.3,33.3v9H71v-9H73.3z"/>
<polygon class="st1" points="131.3,23.5 125.4,33.6 137.1,33.6 "/>
<line class="st1" x1="87.1" y1="33" x2="175.1" y2="10.6"/>
<line class="st1" x1="104.7" y1="20.1" x2="106.6" y2="27.8"/>
<line class="st1" x1="153.6" y1="7.7" x2="155.6" y2="15.5"/>
</svg>
