<svg xmlns="http://www.w3.org/2000/svg" viewBox="0 0 170 100"><defs><style>.cls-1{fill:#75fbfd;}.cls-2{fill:#008480;}.cls-3{opacity:0.5;}</style></defs><title>Asset 8</title><g id="Layer_2" data-name="Layer 2"><g id="UI"><path class="cls-1" d="M94,71.11H74a1,1,0,0,1-.71-1.71l10-10a1,1,0,0,1,1.42,0l10,10A1,1,0,0,1,94,71.11Zm-17.59-2H91.6L84,61.52Z"/><path class="cls-1" d="M44.62,63.05a1,1,0,0,1-.18-2l78.79-13.89a1,1,0,0,1,1.16.81,1,1,0,0,1-.81,1.16L44.79,63Z"/><circle class="cls-2" cx="54.01" cy="46.58" r="9"/><path class="cls-1" d="M54,56.58a10,10,0,1,1,10-10A10,10,0,0,1,54,56.58Zm0-18a8,8,0,1,0,8,8A8,8,0,0,0,54,38.58Z"/><circle class="cls-2" cx="114.01" cy="41.14" r="4.5"/><path class="cls-1" d="M114,46.64a5.5,5.5,0,1,1,5.5-5.5A5.51,5.51,0,0,1,114,46.64Zm0-9a3.5,3.5,0,1,0,3.5,3.5A3.5,3.5,0,0,0,114,37.64Z"/></g></g></svg>