<?xml version="1.0" encoding="utf-8"?>
<!-- Generator: Adobe Illustrator 16.0.0, SVG Export Plug-In . SVG Version: 6.00 Build 0)  -->
<!DOCTYPE svg PUBLIC "-//W3C//DTD SVG 1.1//EN" "http://www.w3.org/Graphics/SVG/1.1/DTD/svg11.dtd">
<svg version="1.1" id="Layer_1" xmlns="http://www.w3.org/2000/svg" xmlns:xlink="http://www.w3.org/1999/xlink" x="0px" y="0px"
	 width="51.857px" height="60.5px" viewBox="0 0 51.857 60.5" enable-background="new 0 0 51.857 60.5" xml:space="preserve">
<line fill="none" stroke="#07E3FF" stroke-width="2" stroke-linecap="round" stroke-linejoin="round" stroke-miterlimit="10" x1="21.343" y1="45.973" x2="30.622" y2="45.973"/>
<path fill="none" stroke="#07E3FF" stroke-width="2" stroke-linecap="round" stroke-linejoin="round" stroke-miterlimit="10" d="
	M29.837,49.521c0,2.158-1.749,3.908-3.907,3.908s-3.907-1.75-3.907-3.908"/>
<path fill="none" stroke="#07E3FF" stroke-width="2" stroke-linecap="round" stroke-linejoin="round" stroke-miterlimit="10" d="
	M35.536,24.52c0-5.247-4.253-9.5-9.5-9.5c-5.246,0-9.5,4.253-9.5,9.5c0,1.036,0.171,2.03,0.479,2.963h-0.007
	c0.021,0.063,0.052,0.12,0.073,0.182c0.196,0.56,0.441,1.095,0.734,1.601c0.967,1.773,2.203,3.509,2.241,6.462v4.375
	c0,1.104,0.896,2,2,2h7.959c1.104,0,2-0.896,2-2v-4.375c0.049-3.912,2.24-5.579,3.028-8.186h-0.009
	C35.355,26.592,35.536,25.578,35.536,24.52z"/>
<line fill="none" stroke="#07E3FF" stroke-width="2" stroke-linecap="round" stroke-linejoin="round" stroke-miterlimit="10" x1="18.446" y1="7.108" x2="19.874" y2="10.527"/>
<line fill="none" stroke="#07E3FF" stroke-width="2" stroke-linecap="round" stroke-linejoin="round" stroke-miterlimit="10" x1="8" y1="32.52" x2="11.419" y2="31.093"/>
<line fill="none" stroke="#07E3FF" stroke-width="2" stroke-linecap="round" stroke-linejoin="round" stroke-miterlimit="10" x1="40.439" y1="18.982" x2="43.858" y2="17.556"/>
<line fill="none" stroke="#07E3FF" stroke-width="2" stroke-linecap="round" stroke-linejoin="round" stroke-miterlimit="10" x1="33.316" y1="7.069" x2="31.907" y2="10.496"/>
<line fill="none" stroke="#07E3FF" stroke-width="2" stroke-linecap="round" stroke-linejoin="round" stroke-miterlimit="10" x1="7.96" y1="17.65" x2="11.387" y2="19.059"/>
<line fill="none" stroke="#07E3FF" stroke-width="2" stroke-linecap="round" stroke-linejoin="round" stroke-miterlimit="10" x1="40.471" y1="31.016" x2="43.897" y2="32.425"/>
<path fill="none" stroke="#07E3FF" stroke-width="2" stroke-linecap="round" stroke-linejoin="round" stroke-miterlimit="10" d="
	M35.536,24.52c0-5.247-4.253-9.5-9.5-9.5c-5.246,0-9.5,4.253-9.5,9.5c0,1.036,0.171,2.03,0.479,2.963h-0.007
	c0.021,0.063,0.052,0.12,0.073,0.182c0.196,0.56,0.441,1.095,0.734,1.601c0.967,1.773,2.203,3.509,2.241,6.462v4.375
	c0,1.104,0.896,2,2,2h7.959c1.104,0,2-0.896,2-2v-4.375c0.049-3.912,2.24-5.579,3.028-8.186h-0.009
	C35.355,26.592,35.536,25.578,35.536,24.52z"/>
<path fill="#07E3FF" d="M23.057,39.104v-3.375c-0.043-3.367-1.31-5.6-2.232-7.229c-0.129-0.227-0.254-0.448-0.375-0.67
	c-0.229-0.398-0.401-0.769-0.536-1.155l-0.063-0.169c-0.203-0.619-0.313-1.301-0.313-1.985c0-3.584,2.916-6.5,6.5-6.5
	s6.5,2.916,6.5,6.5c0,0.693-0.115,1.389-0.344,2.068l-0.182,0.541c-0.178,0.43-0.467,0.936-0.802,1.521
	c-0.913,1.598-2.152,3.767-2.193,7.042v3.412H23.057z"/>
</svg>
