<svg id="Layer_1" data-name="Layer 1" xmlns="http://www.w3.org/2000/svg" viewBox="0 0 216 120">
  <defs>
    <style>
      .cls-1 {
        fill: #75fbfd;
      }

      .cls-2 {
        fill: #008480;
      }
    </style>
  </defs>
  <title>icon</title>
  <path class="cls-1" d="M121.33,84.32H94.23A1.35,1.35,0,0,1,92.88,83a1.33,1.33,0,0,1,.39-.94l13.55-13.55a1.36,1.36,0,0,1,1.92,0h0L122.29,82a1.35,1.35,0,0,1,0,1.92A1.37,1.37,0,0,1,121.33,84.32ZM97.5,81.61h20.57L107.78,71.34Z"/>
  <path class="cls-1" d="M54.41,73.41a1.36,1.36,0,1,1-.25-2.71L160.92,51.87A1.37,1.37,0,0,1,162.5,53h0a1.36,1.36,0,0,1-1.1,1.57h0L54.64,73.39A.6.6,0,0,1,54.41,73.41Z"/>
  <g>
    <circle class="cls-2" cx="67.13" cy="51.1" r="12.2"/>
    <path class="cls-1" d="M67.13,64.65A13.55,13.55,0,1,1,80.68,51.1,13.55,13.55,0,0,1,67.13,64.65Zm0-24.39A10.84,10.84,0,1,0,78,51.1,10.84,10.84,0,0,0,67.13,40.26Z"/>
  </g>
  <g>
    <circle class="cls-2" cx="148.43" cy="43.73" r="6.1"/>
    <path class="cls-1" d="M148.43,51.18a7.46,7.46,0,1,1,7.45-7.45A7.46,7.46,0,0,1,148.43,51.18Zm0-12.2a4.75,4.75,0,1,0,4.74,4.75A4.75,4.75,0,0,0,148.43,39Z"/>
  </g>
</svg>
