<?xml version="1.0" encoding="utf-8"?>
<!-- Generator: Adobe Illustrator 24.0.0, SVG Export Plug-In . SVG Version: 6.00 Build 0)  -->
<svg version="1.1" id="Layer_1" xmlns="http://www.w3.org/2000/svg" xmlns:xlink="http://www.w3.org/1999/xlink" x="0px" y="0px"
	 viewBox="0 0 1098 150" style="enable-background:new 0 0 1098 150;" xml:space="preserve">
<style type="text/css">
	.st0{fill:#75FBFD;}
	.st1{fill:#008480;}
</style>
<title>label</title>
<path class="st0" d="M126,150h-6v-14h6V150z M126,119h-6v-17h6V119z M126,85h-6V68h6V85z M126,51h-6V34h6V51z M126,17h-6V0h6V17z"/>
<path class="st0" d="M552,150h-6v-14h6V150z M552,119h-6v-17h6V119z M552,85h-6V68h6V85z M552,51h-6V34h6V51z M552,17h-6V0h6V17z"/>
<path class="st0" d="M136.5,132.8c0-1.4,0.2-2.7,0.6-4c0.4-1.1,0.9-2.1,1.6-3c2.4-3,6.7-3.7,9.9-1.4c0.5,0.4,1,0.9,1.4,1.4
	c0.7,0.9,1.3,1.9,1.6,3c0.8,2.6,0.8,5.3,0,7.9c-0.3,1.1-0.9,2.1-1.6,3c-0.6,0.9-1.5,1.6-2.4,2c-3,1.4-6.6,0.6-8.7-2
	c-0.7-0.9-1.3-1.9-1.6-3C136.7,135.5,136.5,134.1,136.5,132.8z M141.4,132.8c0,0.7,0,1.5,0.2,2.2c0.2,0.6,0.4,1.1,0.6,1.6
	c0.3,0.5,0.6,0.9,1,1.2c0.4,0.2,0.8,0.4,1.2,0.4s0.8-0.2,1.2-0.4c0.5-0.3,0.8-0.7,1-1.2c0.2-0.6,0.4-1.1,0.6-1.6
	c0.2-1.5,0.2-3,0-4.4c-0.2-0.5-0.4-1.1-0.6-1.6c-0.2-0.4-0.6-0.8-1-1s-0.8-0.4-1.2-0.4s-0.8,0.2-1.2,0.4c-0.4,0.2-0.8,0.6-1,1
	c-0.2,0.5-0.4,1.1-0.6,1.6C141.4,131.3,141.4,132.1,141.4,132.8z"/>
<path class="st0" d="M167.4,123.7v18.2h-4.6v-18.2H167.4z"/>
<path class="st0" d="M565.5,132.8c0-1.4,0.2-2.7,0.6-4c0.4-1.1,0.9-2.1,1.6-3c2.4-3,6.7-3.7,9.9-1.4c0.5,0.4,1,0.9,1.4,1.4
	c0.7,0.9,1.3,1.9,1.6,3c0.8,2.6,0.8,5.3,0,7.9c-0.3,1.1-0.9,2.1-1.6,3c-0.6,0.9-1.5,1.6-2.4,2c-3,1.4-6.6,0.6-8.7-2
	c-0.7-0.9-1.3-1.9-1.6-3C565.7,135.5,565.5,134.1,565.5,132.8z M570.4,132.8c0,0.7,0,1.5,0.2,2.2c0.2,0.6,0.4,1.1,0.6,1.6
	c0.3,0.5,0.6,0.9,1,1.2c0.4,0.2,0.8,0.4,1.2,0.4s0.8-0.2,1.2-0.4c0.5-0.3,0.8-0.7,1-1.2c0.2-0.6,0.4-1.1,0.6-1.6
	c0.2-1.5,0.2-3,0-4.4c-0.2-0.5-0.4-1.1-0.6-1.6c-0.2-0.4-0.6-0.8-1-1s-0.8-0.4-1.2-0.4s-0.8,0.2-1.2,0.4c-0.4,0.2-0.8,0.6-1,1
	c-0.2,0.5-0.4,1.1-0.6,1.6C570.4,131.3,570.4,132.1,570.4,132.8L570.4,132.8z"/>
<path class="st0" d="M596.4,123.7v18.2h-4.6v-18.2H596.4z"/>
<path class="st0" d="M354,112.2h-42.4c-1.2,0-2.1-1-2.1-2.1c0-0.6,0.2-1.1,0.6-1.5l21.2-21.2c0.8-0.8,2.2-0.8,3,0l0,0l0,0l21.2,21.2
	c0.8,0.8,0.8,2.2,0,3l0,0C355.1,112,354.6,112.2,354,112.2z M316.7,108h32.2l-16.1-16.1L316.7,108z"/>
<path class="st0" d="M249.2,95.2c-1.2,0.1-2.2-0.8-2.2-2c-0.1-1.1,0.8-2.1,1.9-2.2L416,61.4c1.1-0.2,2.2,0.5,2.5,1.7l0,0l0,0
	c0.2,1.2-0.6,2.3-1.7,2.5l0,0L249.6,95.1C249.5,95.1,249.4,95.2,249.2,95.2z"/>
<g>
	<circle class="st1" cx="269.2" cy="60.2" r="19.1"/>
	<path class="st0" d="M269.2,81.4c-11.7,0-21.2-9.5-21.2-21.2S257.5,39,269.2,39s21.2,9.5,21.2,21.2l0,0
		C290.4,71.9,280.9,81.4,269.2,81.4z M269.2,43.2c-9.4,0-17,7.6-17,17s7.6,17,17,17s17-7.6,17-17S278.5,43.2,269.2,43.2L269.2,43.2z
		"/>
</g>
<g>
	<circle class="st1" cx="396.5" cy="48.7" r="9.5"/>
	<path class="st0" d="M396.5,60.3c-6.4,0-11.7-5.2-11.7-11.7S390,37,396.5,37s11.7,5.2,11.7,11.7C408.1,55.1,402.9,60.3,396.5,60.3z
		 M396.5,41.2c-4.1,0-7.4,3.3-7.4,7.4s3.3,7.4,7.4,7.4s7.4-3.3,7.4-7.4l0,0C403.9,44.6,400.6,41.2,396.5,41.2z"/>
</g>
<path class="st0" d="M940,78h-17v-6h17V78z M906,78h-17v-6h17V78z M872,78h-17v-6h17V78z M838,78h-17v-6h17V78z M804,78h-17v-6h17
	V78z M770,78h-17v-6h17V78z M736,78h-17v-6h17V78z M702,78h-17v-6h17V78z M668,78h-17v-6h17V78z M634,78h-17v-6h17V78z M600,78h-17
	v-6h17V78z M566,78h-17v-6h17V78z"/>
<g>
	<g>
		<circle class="st1" cx="975.6" cy="44.5" r="9.9"/>
		<path class="st0" d="M987.1,44.5c0,6.4-5.2,11.5-11.5,11.5c-6.4,0-11.5-5.2-11.5-11.5S969.3,33,975.6,33l0,0
			C982,33,987.1,38.1,987.1,44.5z M967.4,44.5c0,4.5,3.7,8.2,8.2,8.2s8.2-3.7,8.2-8.2s-3.7-8.2-8.2-8.2
			C971.1,36.3,967.4,40,967.4,44.5z"/>
	</g>
	<g>
		<circle class="st1" cx="975.6" cy="105.3" r="9.9"/>
		<path class="st0" d="M987.1,105.3c0,6.4-5.2,11.5-11.5,11.5c-6.4,0-11.5-5.2-11.5-11.5s5.2-11.5,11.5-11.5l0,0
			C982,93.8,987.1,98.9,987.1,105.3z M967.4,105.3c0,4.5,3.7,8.2,8.2,8.2s8.2-3.7,8.2-8.2s-3.7-8.2-8.2-8.2
			C971.1,97.1,967.4,100.7,967.4,105.3z"/>
	</g>
</g>
<rect x="972.3" y="114" transform="matrix(1 -8.327619e-03 8.327619e-03 1 -1.0654 8.1269)" class="st0" width="6" height="36"/>
<rect x="972.3" y="0" transform="matrix(1 -8.817442e-03 8.817442e-03 1 -0.112 8.6008)" class="st0" width="6" height="34"/>
<rect x="948.1" y="53.3" transform="matrix(0.7071 -0.7071 0.7071 0.7071 222.3058 695.7933)" class="st0" width="6" height="52.5"/>
</svg>
