<?xml version="1.0" encoding="utf-8"?>
<!-- Generator: Adobe Illustrator 24.0.0, SVG Export Plug-In . SVG Version: 6.00 Build 0)  -->
<svg version="1.1" id="Layer_1" xmlns="http://www.w3.org/2000/svg" xmlns:xlink="http://www.w3.org/1999/xlink" x="0px" y="0px"
	 viewBox="0 0 672 150" style="enable-background:new 0 0 672 150;" xml:space="preserve">
<style type="text/css">
	.st0{fill:#75FBFD;}
</style>
<title>label</title>
<path class="st0" d="M126,150h-6v-14h6V150z M126,119h-6v-17h6V119z M126,85h-6V68h6V85z M126,51h-6V34h6V51z M126,17h-6V0h6V17z"/>
<path class="st0" d="M552,150h-6v-17h6V150z M552,116h-6V99h6V116z M552,82h-6v-0.8l-10.2,0l0-6l16.2,0V82z M518.8,81.1l-17,0l0-6
	l17,0L518.8,81.1z M484.8,81.1l-17,0l0-6l17,0L484.8,81.1z M450.8,81.1l-17,0l0-6l17,0L450.8,81.1z M416.8,81.1l-17,0l0-6l17,0
	L416.8,81.1z M382.8,81l-17,0l0-6l17,0L382.8,81z"/>
<path class="st0" d="M311,81h-17v-6h17V81z M277,81h-17v-6h17V81z M243,81h-17v-6h17V81z M209,81h-17v-6h17V81z M175,81h-17v-6h17
	V81z M141,81h-17v-6h17V81z"/>
<path class="st0" d="M327.5,110.6V99.8h10.8v10.8H327.5z M328.1,89V45.8h9.7V89H328.1z"/>
</svg>
