<svg id="Layer_1" data-name="Layer 1" xmlns="http://www.w3.org/2000/svg" viewBox="0 0 216 120">
  <defs>
    <style>
      .cls-1 {
        fill: #75fbfd;
      }
    </style>
  </defs>
  <title>icon</title>
  <g>
    <path class="cls-1" d="M62,74.25v-2l10.5-28.35h6L89.13,72.22v2h-6L80.61,67.1H70.25l-2.53,7.12Zm10-12.2h6.69l-3.3-9.86Z"/>
    <path class="cls-1" d="M100.57,70.87l-3.63-3.6,6.37-6.43-6.37-6.42,3.63-3.59L107,57.26l6.42-6.43L117,54.42l-6.43,6.42L117,67.27l-3.61,3.6L107,64.39Z"/>
    <path class="cls-1" d="M127.86,74.25V43.87h12.85c5.6,0,9,3,9,8.38a6.64,6.64,0,0,1-3.38,6.26,7.2,7.2,0,0,1,4.61,7.24c0,5.6-3.3,8.54-9,8.54ZM134,56.51h6.35c1.73,0,3.12-1.22,3.12-3.65s-1.36-3.6-3.12-3.6H134Zm0,12.36h7.6c1.73,0,3.13-1.21,3.13-3.64s-1.36-3.6-3.13-3.6H134Z"/>
  </g>
</svg>
