<?xml version="1.0" encoding="utf-8"?>
<!-- Generator: Adobe Illustrator 24.0.0, SVG Export Plug-In . SVG Version: 6.00 Build 0)  -->
<svg version="1.1" id="Layer_1" xmlns="http://www.w3.org/2000/svg" xmlns:xlink="http://www.w3.org/1999/xlink" x="0px" y="0px"
	 viewBox="0 0 672 150" style="enable-background:new 0 0 672 150;" xml:space="preserve">
<style type="text/css">
	.st0{fill:#75FBFD;}
</style>
<title>label</title>
<path class="st0" d="M126,150h-6v-14h6V150z M126,119h-6v-17h6V119z M126,85h-6V68h6V85z M126,51h-6V34h6V51z M126,17h-6V0h6V17z"/>
<path class="st0" d="M552,81.2l-9.8,0l0-6l3.8,0V68h6V81.2z M525.2,81.1l-17,0l0-6l17,0L525.2,81.1z M491.2,81.1l-17,0l0-6l17,0
	L491.2,81.1z M457.2,81.1l-17,0l0-6l17,0L457.2,81.1z M423.2,81L410,81l0-6l13.2,0L423.2,81z M552,51h-6V34h6V51z M552,17h-6V0h6V17
	z"/>
<path class="st0" d="M268,81h-17v-6h17V81z M234,81h-17v-6h17V81z M200,81h-17v-6h17V81z M166,81h-17v-6h17V81z M132,81h-9v-6h9V81z
	"/>
<g>
	<path class="st0" d="M278.5,93v-2.6l13.2-35.8h7.6l13.3,35.8V93h-7.6l-3.1-9h-13.1l-3.2,9H278.5z M291.2,77.6h8.4l-4.2-12.4
		L291.2,77.6z"/>
	<path class="st0" d="M327.1,88.8l-4.6-4.6l8-8.1l-8-8.1l4.6-4.5l8.1,8.1l8.1-8.1l4.6,4.5l-8.1,8.1l8.1,8.1l-4.5,4.6l-8.1-8.2
		L327.1,88.8z"/>
	<path class="st0" d="M361.5,93V54.7h16.2c7.1,0,11.3,3.7,11.3,10.6c0.2,3.2-1.4,6.3-4.3,7.9c3.7,1.4,6.1,5.1,5.8,9.1
		c0,7.1-4.1,10.8-11.3,10.8L361.5,93z M369.3,70.6h8c2.2,0,3.9-1.5,3.9-4.6s-1.7-4.5-3.9-4.5h-8V70.6z M369.3,86.2h9.6
		c2.2,0,4-1.5,4-4.6s-1.7-4.6-4-4.6h-9.6V86.2z"/>
</g>
</svg>
