<svg xmlns="http://www.w3.org/2000/svg" viewBox="0 0 170 100">
  <defs>
    <style>
      .cls-1 {
        opacity: 0.5;
      }

      .cls-2 {
        fill: #75fbfd;
      }

      .cls-3 {
        fill: #008480;
      }
    </style>
  </defs>
  <title>Asset 24</title>
  <g id="Layer_2" data-name="Layer 2">
    <g id="UI">
      <g>
        <g class="cls-1">
          <polygon points="0 0 0 100 37.08 100 170 100 170 66.65 170 0 0 0"/>
        </g>
        <g class="cls-1">
          <path class="cls-2" d="M164,5.94V94.06H6V5.94H164M170,0H0V100H170V0Z"/>
        </g>
        <g>
          <path class="cls-2" d="M134.38,51.3h-24.9a1,1,0,0,1,0-2h24.9a1,1,0,0,1,0,2Z"/>
          <path class="cls-2" d="M60.52,51.3H35.62a1,1,0,1,1,0-2h24.9a1,1,0,0,1,0,2Z"/>
          <g>
            <circle class="cls-3" cx="103.49" cy="50.3" r="6"/>
            <path class="cls-2" d="M103.49,57.3a7,7,0,1,1,7-7A7,7,0,0,1,103.49,57.3Zm0-12a5,5,0,1,0,5,5A5,5,0,0,0,103.49,45.3Z"/>
          </g>
          <path class="cls-2" d="M71.08,47.4a1,1,0,0,1-.71-.29,1,1,0,0,1,0-1.42L91.9,24.17a1,1,0,0,1,1.41,1.41L71.79,47.11A1,1,0,0,1,71.08,47.4Z"/>
          <g>
            <circle class="cls-3" cx="66.52" cy="50.3" r="6"/>
            <path class="cls-2" d="M66.52,57.3a7,7,0,1,1,7-7A7,7,0,0,1,66.52,57.3Zm0-12a5,5,0,1,0,5,5A5,5,0,0,0,66.52,45.3Z"/>
          </g>
        </g>
      </g>
    </g>
  </g>
</svg>
