<svg id="Layer_1" data-name="Layer 1" xmlns="http://www.w3.org/2000/svg" viewBox="0 0 92 46"><defs><style>.cls-1{fill:#fff;}</style></defs><title>icon</title><path class="cls-1" d="M54.41,8.52,52.43,7l-15,20.18a4.86,4.86,0,0,0-1.68-.3A4.92,4.92,0,0,0,31,30.57H16.55V33H31a4.91,4.91,0,1,0,8.46-4.45ZM35.68,34.33a2.46,2.46,0,1,1,2.46-2.46,2.46,2.46,0,0,1-2.46,2.46Z"/><path class="cls-1" d="M64.24,30.63a4.91,4.91,0,1,0,.12,2.46h15V30.63Zm-4.69,3.94A2.46,2.46,0,1,1,62,32.1a2.46,2.46,0,0,1-2.46,2.46Z"/></svg>