<svg id="Layer_1" data-name="Layer 1" xmlns="http://www.w3.org/2000/svg" viewBox="0 0 230 46"><defs><style>.cls-1{opacity:0.4;}.cls-2,.cls-3,.cls-5{fill:none;stroke:#fff;stroke-miterlimit:10;stroke-width:2px;}.cls-3{stroke-dasharray:6.21 6.21;}.cls-4{fill:#fff;}.cls-5{stroke-dasharray:5.71 5.71;}</style></defs><title>label</title><g class="cls-1"><line class="cls-2" x1="47" y1="23.5" x2="50" y2="23.49"/><line class="cls-3" x1="56.21" y1="23.46" x2="164.89" y2="23.02"/><line class="cls-2" x1="168" y1="23.01" x2="171" y2="23"/></g><path class="cls-4" d="M167.11,18.29,166,19.74l14.77,11a3.56,3.56,0,0,0-.22,1.23,3.6,3.6,0,0,0,2.7,3.48V46h1.8V35.43a3.59,3.59,0,1,0-3.26-6.19ZM186,32a1.8,1.8,0,1,1-1.8-1.8A1.8,1.8,0,0,1,186,32Z"/><path class="cls-4" d="M183.29,11.1a3.59,3.59,0,1,0,1.8-.09V0h-1.8Zm2.88,3.43a1.8,1.8,0,1,1-1.8-1.8,1.8,1.8,0,0,1,1.8,1.8Z"/><g class="cls-1"><line class="cls-2" x1="46" x2="46" y2="3"/><line class="cls-5" x1="46" y1="8.71" x2="46" y2="40.14"/><line class="cls-2" x1="46" y1="43" x2="46" y2="46"/></g><path class="cls-4" d="M51.92,37.83a6.42,6.42,0,0,1,.28-2A4.53,4.53,0,0,1,53,34.36a3.57,3.57,0,0,1,1.21-1,3.55,3.55,0,0,1,4.31,1,4.6,4.6,0,0,1,.79,1.51,7,7,0,0,1,0,3.92,4.67,4.67,0,0,1-.79,1.51,3.47,3.47,0,0,1-1.21,1,3.53,3.53,0,0,1-4.31-1,4.59,4.59,0,0,1-.79-1.51A6.42,6.42,0,0,1,51.92,37.83Zm2.33,0a5.12,5.12,0,0,0,.11,1.09,3.19,3.19,0,0,0,.31.85,1.64,1.64,0,0,0,.47.56,1,1,0,0,0,.62.2,1.05,1.05,0,0,0,.62-.2,1.57,1.57,0,0,0,.47-.56,3.34,3.34,0,0,0,.3-.85,5.55,5.55,0,0,0,0-2.18,3.23,3.23,0,0,0-.3-.85,1.58,1.58,0,0,0-.47-.55,1.05,1.05,0,0,0-.62-.2,1,1,0,0,0-.62.2,1.66,1.66,0,0,0-.47.55,3.1,3.1,0,0,0-.31.85A5.14,5.14,0,0,0,54.25,37.83Z"/><path class="cls-4" d="M67.22,33.32v9H64.87v-9Z"/></svg>