<?xml version="1.0" encoding="UTF-8"?><svg id="Layer_1" xmlns="http://www.w3.org/2000/svg" xmlns:xlink="http://www.w3.org/1999/xlink" viewBox="0 0 330 330"><defs><style>.cls-1{fill:none;}.cls-2{clip-path:url(#clippath);}.cls-3{fill:#fff;}</style><clipPath id="clippath"><rect class="cls-1" x="-152.38" y="-165.68" width="1676.31" height="678.13"/></clipPath></defs><g id="windchill-logo-RGB-KO_060822"><g class="cls-2"><polygon class="cls-3" points="216.38 110.55 216.38 44.54 164.11 14.36 106.99 47.33 216.38 110.55"/><polygon class="cls-3" points="236.16 182.38 293.31 149.35 293.31 88.96 236.16 55.96 236.16 182.38"/><polygon class="cls-3" points="111.82 216.73 111.82 282.57 164.1 312.75 221.06 279.87 111.82 216.73"/><polygon class="cls-3" points="183.79 235.49 240.83 268.46 293.31 238.16 293.31 172.19 183.79 235.49"/><polygon class="cls-3" points="144.27 91.71 87.23 58.75 34.9 88.96 34.9 154.92 144.27 91.71"/><polygon class="cls-3" points="92.04 144.73 34.9 177.76 34.9 238.16 92.04 271.15 92.04 144.73"/><polygon class="cls-3" points="216.4 193.75 164.1 223.94 111.81 193.75 111.81 133.37 164.1 103.18 216.4 133.37 216.4 193.75"/></g></g></svg>