<svg id="Layer_1" data-name="Layer 1" xmlns="http://www.w3.org/2000/svg" viewBox="0 0 216 120">
  <defs>
    <style>
      .cls-1 {
        fill: #75fbfd;
      }

      .cls-2 {
        fill: #008480;
      }
    </style>
  </defs>
  <title>icon</title>
  <g>
    <rect class="cls-1" x="144.03" y="35.54" width="71.53" height="2.72"/>
    <rect class="cls-1" x="0.79" y="58.68" width="71.31" height="2.72"/>
    <path class="cls-1" d="M88.31,60a1.37,1.37,0,1,1-.25-2.72l46.75-8.17a1.37,1.37,0,0,1,1.58,1.1h0a1.36,1.36,0,0,1-1.1,1.58h0L88.54,60Z"/>
    <g>
      <circle class="cls-2" cx="135.88" cy="36.9" r="8.17"/>
      <path class="cls-1" d="M135.88,46.43a9.53,9.53,0,1,1,9.53-9.53A9.53,9.53,0,0,1,135.88,46.43Zm0-16.33a6.81,6.81,0,1,0,6.81,6.8A6.81,6.81,0,0,0,135.88,30.1Z"/>
    </g>
    <rect class="cls-1" x="144.03" y="81.81" width="71.53" height="2.72"/>
    <g>
      <circle class="cls-2" cx="135.88" cy="83.17" r="8.17"/>
      <path class="cls-1" d="M135.88,92.7a9.53,9.53,0,1,1,9.53-9.53A9.53,9.53,0,0,1,135.88,92.7Zm0-16.33a6.81,6.81,0,1,0,6.81,6.8A6.81,6.81,0,0,0,135.88,76.37Z"/>
    </g>
    <g>
      <circle class="cls-2" cx="80.26" cy="60.04" r="8.17"/>
      <path class="cls-1" d="M80.26,69.56A9.53,9.53,0,1,1,89.79,60,9.52,9.52,0,0,1,80.26,69.56Zm0-16.33A6.81,6.81,0,1,0,87.07,60,6.81,6.81,0,0,0,80.26,53.23Z"/>
    </g>
  </g>
</svg>
