<?xml version="1.0" encoding="utf-8"?>
<!-- Generator: Adobe Illustrator 24.0.0, SVG Export Plug-In . SVG Version: 6.00 Build 0)  -->
<svg version="1.1" id="Layer_1" xmlns="http://www.w3.org/2000/svg" xmlns:xlink="http://www.w3.org/1999/xlink" x="0px" y="0px"
	 viewBox="0 0 672 150" style="enable-background:new 0 0 672 150;" xml:space="preserve">
<style type="text/css">
	.st0{fill:#75FBFD;}
	.st1{fill:#008480;}
</style>
<title>label</title>
<path class="st0" d="M552,78h-13v-6h7v-4h6V78z M522,78h-17v-6h17V78z M488,78h-17v-6h17V78z M454,78h-17v-6h17V78z M420,78h-17v-6
	h17V78z M386,78h-17v-6h17V78z M352,78h-17v-6h17V78z M318,78h-17v-6h17V78z M284,78h-17v-6h17V78z M250,78h-17v-6h17V78z M216,78
	h-17v-6h17V78z M552,51h-6V34h6V51z M552,17h-6V0h6V17z"/>
<g>
	<circle class="st1" cx="123.2" cy="44.5" r="9.9"/>
	<path class="st0" d="M134.7,44.5c0,6.4-5.1,11.5-11.5,11.5c-6.4,0-11.5-5.1-11.5-11.5S116.8,33,123.1,33c0,0,0,0,0,0l0,0
		C129.5,33,134.7,38.1,134.7,44.5z M114.9,44.5c0,4.5,3.7,8.2,8.2,8.2s8.2-3.7,8.2-8.2s-3.7-8.2-8.2-8.2
		C118.6,36.3,114.9,40,114.9,44.5C114.9,44.5,114.9,44.5,114.9,44.5z"/>
</g>
<g>
	<circle class="st1" cx="171.1" cy="74.5" r="9.9"/>
	<path class="st0" d="M182.7,74.5c0,6.4-5.1,11.5-11.5,11.5s-11.5-5.1-11.5-11.5c0-6.4,5.1-11.5,11.5-11.5c0,0,0,0,0,0l0,0
		C177.5,63,182.7,68.1,182.7,74.5z M162.9,74.5c0,4.5,3.7,8.2,8.2,8.2s8.2-3.7,8.2-8.2s-3.7-8.2-8.2-8.2
		C166.6,66.3,162.9,70,162.9,74.5C162.9,74.5,162.9,74.5,162.9,74.5L162.9,74.5z"/>
</g>
<g>
	<circle class="st1" cx="123.2" cy="105.3" r="9.9"/>
	<path class="st0" d="M134.7,105.3c0,6.4-5.2,11.5-11.5,11.5c-6.4,0-11.5-5.2-11.5-11.5c0-6.4,5.2-11.5,11.5-11.5l0,0
		C129.5,93.8,134.7,98.9,134.7,105.3L134.7,105.3z M114.9,105.3c0,4.5,3.7,8.2,8.2,8.2s8.2-3.7,8.2-8.2s-3.7-8.2-8.2-8.2
		C118.6,97.1,114.9,100.8,114.9,105.3C114.9,105.3,114.9,105.3,114.9,105.3z"/>
</g>
<rect x="119.9" y="114" transform="matrix(1 -8.056379e-03 8.056379e-03 1 -1.0595 0.9941)" class="st0" width="6" height="36"/>
<rect x="119.9" y="0" transform="matrix(1 -8.530251e-03 8.530251e-03 1 -0.1405 1.0486)" class="st0" width="6" height="34"/>
<rect x="121.3" y="74.6" transform="matrix(0.6634 -0.7483 0.7483 0.6634 -8.371 136.5431)" class="st0" width="52.5" height="6"/>
<path class="st0" d="M136.1,135.7c0-1.4,0.2-2.7,0.6-4c0.4-1.1,0.9-2.1,1.6-3c2.4-3,6.7-3.7,9.9-1.4c0.5,0.4,1,0.9,1.4,1.4
	c0.7,0.9,1.3,1.9,1.6,3c0.8,2.6,0.8,5.3,0,7.9c-0.3,1.1-0.9,2.1-1.6,3c-0.6,0.9-1.5,1.6-2.4,2c-3,1.5-6.6,0.6-8.7-2
	c-0.7-0.9-1.3-1.9-1.6-3C136.3,138.4,136,137.1,136.1,135.7z M140.9,135.7c0,0.7,0,1.5,0.2,2.2c0.2,0.6,0.4,1.1,0.6,1.6
	c0.3,0.5,0.6,0.9,1,1.2c0.7,0.5,1.7,0.5,2.4,0c0.5-0.3,0.8-0.7,1-1.2c0.2-0.6,0.4-1.1,0.6-1.6c0.2-1.5,0.2-3,0-4.4
	c-0.2-0.5-0.4-1.1-0.6-1.6c-0.2-0.4-0.6-0.8-1-1c-0.4-0.2-0.8-0.4-1.2-0.4c-0.4,0-0.8,0.2-1.2,0.4c-0.4,0.2-0.8,0.6-1,1
	c-0.2,0.5-0.4,1.1-0.6,1.6C140.9,134.2,140.9,135,140.9,135.7L140.9,135.7z"/>
<path class="st0" d="M166.9,126.6v18.2h-4.6v-18.2H166.9z"/>
</svg>
