<svg xmlns="http://www.w3.org/2000/svg" viewBox="0 0 283.46 283.46">
  <defs>
    <style>
      .cls-1 {
        opacity: 0.25;
      }

      .cls-2 {
        fill: #ff0;
      }
    </style>
  </defs>
  <title>signals</title>
  <g id="UI">
    <g>
      <g>
        <g class="cls-1">
          <rect x="21.26" y="21.26" width="240.94" height="240.94" rx="28.35"/>
        </g>
        <g class="cls-1">
          <path class="cls-2" d="M233.86,35.43A14.19,14.19,0,0,1,248,49.61V233.86A14.19,14.19,0,0,1,233.86,248H49.61a14.19,14.19,0,0,1-14.18-14.17V49.61A14.19,14.19,0,0,1,49.61,35.43H233.86m0-14.17H49.61A28.35,28.35,0,0,0,21.26,49.61V233.86A28.34,28.34,0,0,0,49.61,262.2H233.86a28.34,28.34,0,0,0,28.34-28.34V49.61a28.34,28.34,0,0,0-28.34-28.35Z"/>
        </g>
      </g>
      <path class="cls-2" d="M233.86,21.26A28.34,28.34,0,0,1,262.2,49.61V233.86a28.34,28.34,0,0,1-28.34,28.34H49.61a28.34,28.34,0,0,1-28.35-28.34V49.61A28.35,28.35,0,0,1,49.61,21.26H233.86m0-14.17H49.61A42.56,42.56,0,0,0,7.09,49.61V233.86a42.57,42.57,0,0,0,42.52,42.52H233.86a42.58,42.58,0,0,0,42.52-42.52V49.61A42.57,42.57,0,0,0,233.86,7.09Z"/>
      <g>
        <path class="cls-2" d="M133.08,68.05A73.78,73.78,0,0,0,95.76,83.52l-2.5,2,15.86,15.86,2-1.44a51.83,51.83,0,0,1,22.76-9.46l2.4-.37V67.68Z"/>
        <path class="cls-2" d="M85.49,93.26l-2,2.5a73.82,73.82,0,0,0-15.47,37.32l-.37,3.16h22.4l.37-2.4a52,52,0,0,1,9.46-22.76l1.44-2Z"/>
        <path class="cls-2" d="M99.91,172.38a51.86,51.86,0,0,1-9.46-22.75l-.37-2.41H67.68l.37,3.16a73.82,73.82,0,0,0,15.47,37.33l2,2.5,15.86-15.86Z"/>
      </g>
      <g class="cls-1">
        <g>
          <path class="cls-2" d="M215.78,136.24l-.37-3.16A74,74,0,0,0,200,95.75l-2-2.5-15.84,15.84,1.43,2A51.88,51.88,0,0,1,193,133.83l.36,2.41Z"/>
          <path class="cls-2" d="M149.63,90.49a51.77,51.77,0,0,1,22.78,9.4l2,1.44,15.84-15.84-2.5-2a73.85,73.85,0,0,0-37.32-15.45l-3.17-.37V90.12Z"/>
        </g>
        <g>
          <path class="cls-2" d="M95.75,200a73.86,73.86,0,0,0,37.33,15.46l3.16.37V193.34l-2.41-.36a51.84,51.84,0,0,1-22.77-9.4l-2-1.44L93.25,198Z"/>
          <path class="cls-2" d="M147.22,215.78l3.17-.37A74,74,0,0,0,187.71,200l2.5-2-15.84-15.84-2,1.44a52,52,0,0,1-22.78,9.4l-2.41.36Z"/>
          <path class="cls-2" d="M193,149.63a51.88,51.88,0,0,1-9.4,22.78l-1.44,2L198,190.21l2-2.5a73.87,73.87,0,0,0,15.46-37.32l.37-3.17H193.34Z"/>
        </g>
      </g>
    </g>
  </g>
</svg>
