<svg xmlns="http://www.w3.org/2000/svg" viewBox="0 0 283.46 283.46">
  <defs>
    <style>
      .cls-1 {
        opacity: 0.25;
      }

      .cls-2 {
        fill: #ff007d;
      }
    </style>
  </defs>
  <title>signals</title>
  <g id="UI">
    <g>
      <g>
        <g class="cls-1">
          <path d="M130.08,41.74,22.38,228.28A13.45,13.45,0,0,0,34,248.45h215.4a13.45,13.45,0,0,0,11.65-20.17L153.38,41.74A13.45,13.45,0,0,0,130.08,41.74Z"/>
        </g>
        <g class="cls-1">
          <path class="cls-2" d="M141.73,48.46,249.43,235H34L141.68,48.47h0m0-13.45a13.32,13.32,0,0,0-11.65,6.73L22.38,228.28A13.45,13.45,0,0,0,34,248.45h215.4a13.45,13.45,0,0,0,11.65-20.17L153.38,41.74A13.32,13.32,0,0,0,141.73,35Z"/>
        </g>
      </g>
      <path class="cls-2" d="M141.73,35a13.32,13.32,0,0,1,11.65,6.73l107.7,186.54a13.45,13.45,0,0,1-11.65,20.17H34a13.45,13.45,0,0,1-11.65-20.17L130.08,41.74A13.32,13.32,0,0,1,141.73,35m0-13.45A26.65,26.65,0,0,0,118.43,35L10.73,221.55A26.91,26.91,0,0,0,34,261.91h215.4a26.91,26.91,0,0,0,23.3-40.36L165,35a26.63,26.63,0,0,0-23.3-13.45Z"/>
      <path class="cls-2" d="M131.88,217.11v-19.7h19.7v19.7Zm1-39.4V98.9H150.6v78.81Z"/>
    </g>
  </g>
</svg>
