<svg xmlns="http://www.w3.org/2000/svg" viewBox="0 0 283.46 283.46">
  <defs>
    <style>
      .cls-1 {
        opacity: 0.25;
      }

      .cls-2 {
        opacity: 0.5;
      }

      .cls-3 {
        fill: #ff007d;
      }
    </style>
  </defs>
  <title>signals</title>
  <g id="UI">
    <g>
      <g>
        <g class="cls-1">
          <path d="M180.77,20.55H102.69a26.93,26.93,0,0,0-19,7.89L28.44,83.65a26.93,26.93,0,0,0-7.89,19v78.08a26.93,26.93,0,0,0,7.89,19L83.65,255a26.92,26.92,0,0,0,19,7.88h78.08a26.92,26.92,0,0,0,19-7.88L255,199.81a26.92,26.92,0,0,0,7.88-19V102.69a26.92,26.92,0,0,0-7.88-19L199.81,28.44A26.93,26.93,0,0,0,180.77,20.55Z"/>
        </g>
        <g class="cls-2">
          <path class="cls-3" d="M180.77,34A13.37,13.37,0,0,1,190.29,38l55.22,55.21a13.39,13.39,0,0,1,3.94,9.52v78.08a13.37,13.37,0,0,1-3.94,9.52l-55.22,55.22a13.37,13.37,0,0,1-9.52,3.94H102.69a13.39,13.39,0,0,1-9.52-3.94L38,190.29A13.37,13.37,0,0,1,34,180.77V102.69A13.39,13.39,0,0,1,38,93.17L93.17,38A13.39,13.39,0,0,1,102.69,34h78.08m0-13.47H102.69a26.93,26.93,0,0,0-19,7.89L28.44,83.65a26.93,26.93,0,0,0-7.89,19v78.08a26.93,26.93,0,0,0,7.89,19L83.65,255a26.92,26.92,0,0,0,19,7.88h78.08a26.92,26.92,0,0,0,19-7.88L255,199.81a26.92,26.92,0,0,0,7.88-19V102.69a26.92,26.92,0,0,0-7.88-19L199.81,28.44a26.93,26.93,0,0,0-19-7.89Z"/>
        </g>
      </g>
      <path class="cls-3" d="M186.35,20.55a13.47,13.47,0,0,1,9.52,3.94L259,87.59a13.49,13.49,0,0,1,3.94,9.52v89.24a13.47,13.47,0,0,1-3.94,9.52L195.87,259a13.47,13.47,0,0,1-9.52,3.94H97.11A13.49,13.49,0,0,1,87.59,259l-63.1-63.1a13.47,13.47,0,0,1-3.94-9.52V97.11a13.49,13.49,0,0,1,3.94-9.52l63.1-63.1a13.49,13.49,0,0,1,9.52-3.94h89.24m0-13.46H97.11a26.78,26.78,0,0,0-19,7.88L15,78.07a26.78,26.78,0,0,0-7.88,19v89.24a26.76,26.76,0,0,0,7.88,19l63.1,63.1a26.75,26.75,0,0,0,19,7.89h89.24a26.73,26.73,0,0,0,19-7.89l63.1-63.1a26.73,26.73,0,0,0,7.89-19V97.11a26.75,26.75,0,0,0-7.89-19L205.39,15a26.76,26.76,0,0,0-19-7.88Z"/>
      <polygon class="cls-3" points="209.06 97.49 185.97 74.41 141.73 118.65 97.49 74.41 74.41 97.49 118.65 141.73 74.41 185.97 97.49 209.06 141.73 164.81 185.97 209.06 209.06 185.97 164.81 141.73 209.06 97.49"/>
    </g>
  </g>
</svg>
