<svg id="Layer_1" data-name="Layer 1" xmlns="http://www.w3.org/2000/svg" viewBox="0 0 941.83 921.9">
  <defs>
    <style>
      .cls-1 {
        fill: lime;
      }
    </style>
  </defs>
  <path class="cls-1" d="M628.89,551l27.52,15.89a97.1,97.1,0,0,1-10.27,11.6c-14.36,13.95-34.88,26.46-61,37.19A404.16,404.16,0,0,1,524,634.77V421.67h96.63a36.3,36.3,0,1,0,0-37.82,35.17,35.17,0,0,0-2,3.68H520.3V328.26c1.25-.46,2.48-1,3.68-1.5A76.1,76.1,0,1,0,465.71,328c1.21.48,2.43.92,3.68,1.33v58.16H372l-1.47-3.68a40,40,0,1,0,0,37.82h95.21V634.54a443.82,443.82,0,0,1-63.16-20.92c-26.41-11.21-47.19-23.93-61.76-37.78a102.23,102.23,0,0,1-9.67-10.5L358,548.2l-99.78-57.32L268,605.54l26.35-16.79a141.92,141.92,0,0,0,16.51,18.56c18.35,17.45,43.48,33,74.7,46.27C437,675.44,487.7,683.8,489.84,684.14l3.12.5,3.13-.4c2.14-.27,53.08-7,104.78-28.13,31.42-12.81,56.72-28.36,75.2-46.21a138.45,138.45,0,0,0,18.12-21.24l27.12,15.66,4.77-115ZM493.3,297.1a40,40,0,1,1,40-40A40,40,0,0,1,493.3,297.1Z"/>
</svg>
