<svg id="Layer_1" data-name="Layer 1" xmlns="http://www.w3.org/2000/svg" viewBox="0 0 514 220"><defs><style>.cls-1{opacity:0.3;}.cls-2{fill:#fff;}.cls-3,.cls-4{fill:none;stroke:#fff;stroke-miterlimit:10;}.cls-3{stroke-width:2px;stroke-dasharray:12 12;}.cls-4{stroke-width:8px;}</style></defs><title>dropZone</title><g class="cls-1"><path class="cls-2" d="M208.74,148.14a49.34,49.34,0,0,1,7.4-.52c4.6,0,7.61.85,9.94,2.6,2.52,1.89,4.1,4.84,4.1,9.13,0,4.65-1.68,7.87-4,9.83-2.56,2.13-6.47,3.14-11.19,3.14a47.73,47.73,0,0,1-6.24-.35Zm5.48,19.8a12.31,12.31,0,0,0,1.92.1c5,0,8.23-2.71,8.23-8.51,0-5-2.94-7.69-7.66-7.69a12.52,12.52,0,0,0-2.49.21Z"/><path class="cls-2" d="M233.76,160.26c0-2.59,0-4.29-.14-5.81h4.7l.2,3.26h.14a5.16,5.16,0,0,1,4.75-3.65,4.64,4.64,0,0,1,1.17.1v5.15a6.68,6.68,0,0,0-1.48-.15,3.52,3.52,0,0,0-3.75,2.78,6.4,6.4,0,0,0-.1,1.22v8.91h-5.49Z"/><path class="cls-2" d="M264.52,163.09c0,6.43-4.56,9.38-9.28,9.38-5.13,0-9.1-3.39-9.1-9.08s3.75-9.33,9.41-9.33C260.94,154.06,264.52,157.77,264.52,163.09Zm-12.73.18c0,3,1.27,5.28,3.6,5.28,2.14,0,3.49-2.13,3.49-5.31,0-2.6-1-5.27-3.48-5.27S251.79,160.66,251.79,163.27Z"/><path class="cls-2" d="M267.9,160.37c0-2.31-.07-4.27-.15-5.92h4.76l.26,2.47h.07a6.81,6.81,0,0,1,5.87-2.86c3.85,0,7.32,3.35,7.32,9,0,6.42-4.1,9.44-8,9.44a5.44,5.44,0,0,1-4.56-2h-.07v8.74H267.9Zm5.48,4.16a5.13,5.13,0,0,0,.11,1.14,3.32,3.32,0,0,0,3.2,2.6c2.36,0,3.78-2,3.78-5,0-2.8-1.26-4.94-3.69-4.94a3.43,3.43,0,0,0-3.28,2.77,3.91,3.91,0,0,0-.12,1Z"/><path class="cls-2" d="M295.33,169.11l11.56-16.63v-.13h-10.5v-4.54H314V151L302.69,167.4v.13h11.49v4.54H295.33Z"/><path class="cls-2" d="M334.51,163.09c0,6.43-4.56,9.38-9.28,9.38-5.13,0-9.1-3.39-9.1-9.08s3.75-9.33,9.41-9.33C330.93,154.06,334.51,157.77,334.51,163.09Zm-12.73.18c0,3,1.27,5.28,3.6,5.28,2.14,0,3.49-2.13,3.49-5.31,0-2.6-1-5.27-3.48-5.27S321.78,160.66,321.78,163.27Z"/><path class="cls-2" d="M337.89,160.08c0-2.19-.07-4.05-.14-5.63h4.75l.25,2.44h.12a6.38,6.38,0,0,1,5.44-2.83c3.6,0,6.31,2.4,6.31,7.58v10.43h-5.49v-9.76c0-2.27-.81-3.83-2.78-3.83a3,3,0,0,0-2.78,2.07,4,4,0,0,0-.19,1.36v10.16h-5.49Z"/><path class="cls-2" d="M363.19,165c.16,2.28,2.41,3.36,5,3.36a14.55,14.55,0,0,0,4.84-.75l.74,3.7a16.93,16.93,0,0,1-6.38,1.12c-6,0-9.4-3.48-9.4-9,0-4.47,2.8-9.42,8.89-9.42,5.71,0,7.86,4.44,7.86,8.79a11,11,0,0,1-.19,2.17Zm6.43-3.75c0-1.32-.58-3.57-3.07-3.57-2.31,0-3.25,2.11-3.4,3.57Z"/></g><path class="cls-2" d="M329.36,53.91V61c0,2.37,1,3.48,2.49,3.48s2.55-1.09,2.55-3.48V53.91h2.22v6.93c0,3.74-1.92,5.4-4.85,5.4s-4.63-1.57-4.63-5.39V53.91Z"/><path class="cls-2" d="M339.05,60.18c0-1.13,0-2.08-.07-2.9h1.94l.11,1.34h0a3.38,3.38,0,0,1,3-1.54c2,0,3.68,1.72,3.68,4.46,0,3.18-2,4.7-4,4.7a2.85,2.85,0,0,1-2.47-1.17h0v4.54h-2.22Zm2.22,2.19a2.93,2.93,0,0,0,.06.61,2,2,0,0,0,1.94,1.55c1.41,0,2.23-1.17,2.23-2.89,0-1.55-.75-2.81-2.18-2.81a2.06,2.06,0,0,0-2,1.64,2.1,2.1,0,0,0-.08.56Z"/><path class="cls-2" d="M349.58,53.26h2.22V66h-2.22Z"/><path class="cls-2" d="M362.53,61.57a4.34,4.34,0,0,1-4.5,4.67,4.24,4.24,0,0,1-4.39-4.51,4.34,4.34,0,0,1,4.54-4.65A4.2,4.2,0,0,1,362.53,61.57Zm-6.61.1c0,1.69.84,3,2.18,3s2.15-1.23,2.15-3c0-1.38-.6-3-2.13-3S355.92,60.21,355.92,61.67Z"/><path class="cls-2" d="M369.29,66l-.15-1h-.06a3.2,3.2,0,0,1-2.58,1.17,2.59,2.59,0,0,1-2.76-2.61c0-2.21,2-3.33,5.2-3.31v-.15c0-.58-.23-1.53-1.78-1.53a4.66,4.66,0,0,0-2.36.66l-.44-1.44a6.37,6.37,0,0,1,3.18-.78c2.81,0,3.61,1.77,3.61,3.7v3.15a12.66,12.66,0,0,0,.14,2.11ZM369,61.75c-1.57,0-3.06.31-3.06,1.64a1.17,1.17,0,0,0,1.26,1.27,1.8,1.8,0,0,0,1.73-1.22A1.55,1.55,0,0,0,369,63Z"/><path class="cls-2" d="M381.57,53.26V63.58c0,.9,0,1.87.07,2.46h-2l-.1-1.38h0a3.12,3.12,0,0,1-2.85,1.58c-2.09,0-3.75-1.78-3.75-4.48,0-2.94,1.83-4.68,3.93-4.68a2.77,2.77,0,0,1,2.46,1.14h0v-5Zm-2.21,7.67a3.79,3.79,0,0,0-.05-.58,2,2,0,0,0-1.91-1.55c-1.43,0-2.22,1.25-2.22,2.88s.8,2.79,2.2,2.79a2,2,0,0,0,1.91-1.58,2.64,2.64,0,0,0,.07-.65Z"/><path class="cls-2" d="M390.21,54.77v2.51h2.11v1.65h-2.11V62.8c0,1.07.29,1.62,1.14,1.62a3.48,3.48,0,0,0,.86-.1l0,1.68a4.78,4.78,0,0,1-1.61.23,2.54,2.54,0,0,1-1.9-.72,3.46,3.46,0,0,1-.7-2.46V58.93h-1.25V57.28H388v-2Z"/><path class="cls-2" d="M394,53.26h2.21v5.21h0a3.21,3.21,0,0,1,1.1-1,3.18,3.18,0,0,1,1.52-.39c1.49,0,3.06,1,3.06,3.8V66h-2.22V61.12c0-1.27-.46-2.23-1.68-2.23a1.83,1.83,0,0,0-1.72,1.24,2,2,0,0,0-.1.67V66H394Z"/><path class="cls-2" d="M405.85,62.27a2.39,2.39,0,0,0,2.7,2.29,6.59,6.59,0,0,0,2.42-.41l.33,1.53a8.09,8.09,0,0,1-3.06.55,4.15,4.15,0,0,1-4.51-4.44c0-2.42,1.46-4.71,4.28-4.71s3.78,2.34,3.78,4.26a4.73,4.73,0,0,1-.08.93Zm3.85-1.54a1.89,1.89,0,0,0-1.82-2.14,2.18,2.18,0,0,0-2,2.14Z"/><path class="cls-2" d="M419,55.77h-3.47V53.91h9.18v1.86H421.2V66H419Z"/><path class="cls-2" d="M429.78,66l-.16-1h-.05A3.2,3.2,0,0,1,427,66.24a2.6,2.6,0,0,1-2.77-2.61c0-2.21,2-3.33,5.2-3.31v-.15c0-.58-.22-1.53-1.78-1.53a4.6,4.6,0,0,0-2.35.66l-.44-1.44a6.33,6.33,0,0,1,3.17-.78c2.82,0,3.62,1.77,3.62,3.7v3.15a12.66,12.66,0,0,0,.14,2.11Zm-.3-4.29c-1.56,0-3.06.31-3.06,1.64a1.18,1.18,0,0,0,1.27,1.27,1.8,1.8,0,0,0,1.73-1.22,1.54,1.54,0,0,0,.06-.48Z"/><path class="cls-2" d="M434,60.1c0-1.18,0-2-.07-2.82h1.92l.08,1.66H436a2.62,2.62,0,0,1,2.4-1.86,2.09,2.09,0,0,1,.52.05v2.09a2.93,2.93,0,0,0-.65-.07,2,2,0,0,0-2,1.68,4.47,4.47,0,0,0-.05.67V66H434Z"/><path class="cls-2" d="M448.26,57.28c-.05.59-.08,1.32-.08,2.51v5c0,1.84-.37,3.14-1.3,4a5,5,0,0,1-3.39,1.07,6.36,6.36,0,0,1-3.05-.7l.48-1.69a5.17,5.17,0,0,0,2.56.68A2.33,2.33,0,0,0,446,65.45V64.7h0A2.94,2.94,0,0,1,443.41,66c-2.17,0-3.72-1.81-3.72-4.28,0-2.89,1.87-4.63,4-4.63a2.76,2.76,0,0,1,2.55,1.36h0l.08-1.16ZM446,60.79a2.22,2.22,0,0,0-.07-.59,1.85,1.85,0,0,0-1.81-1.43c-1.23,0-2.16,1.08-2.16,2.87,0,1.49.76,2.7,2.15,2.7A1.87,1.87,0,0,0,445.87,63a2.88,2.88,0,0,0,.1-.78Z"/><path class="cls-2" d="M452.12,62.27c.06,1.59,1.29,2.29,2.71,2.29a6.59,6.59,0,0,0,2.42-.41l.33,1.53a8.09,8.09,0,0,1-3.06.55A4.16,4.16,0,0,1,450,61.79c0-2.42,1.47-4.71,4.29-4.71s3.78,2.34,3.78,4.26a4.73,4.73,0,0,1-.08.93ZM456,60.73a1.89,1.89,0,0,0-1.83-2.14,2.17,2.17,0,0,0-2,2.14Z"/><path class="cls-2" d="M462.38,54.77v2.51h2.11v1.65h-2.11V62.8c0,1.07.29,1.62,1.14,1.62a3.48,3.48,0,0,0,.86-.1l0,1.68a4.78,4.78,0,0,1-1.61.23,2.54,2.54,0,0,1-1.9-.72,3.46,3.46,0,0,1-.7-2.46V58.93H459V57.28h1.25v-2Z"/><path class="cls-2" d="M326.36,86.42l6.21-9v-.06h-5.66V75.51h8.53v1.3l-6.12,8.93v.06h6.21v1.84h-9.17Z"/><path class="cls-2" d="M339.64,76.42a1.24,1.24,0,1,1-1.23-1.19A1.16,1.16,0,0,1,339.64,76.42Zm-2.35,11.22V78.88h2.22v8.76Z"/><path class="cls-2" d="M341.9,81.78c0-1.13,0-2.08-.07-2.9h1.94l.11,1.34h0a3.38,3.38,0,0,1,3-1.54c2,0,3.68,1.72,3.68,4.46,0,3.18-2,4.7-4,4.7a2.85,2.85,0,0,1-2.47-1.17h0v4.54H341.9ZM344.12,84a2.38,2.38,0,0,0,.06.61,2,2,0,0,0,1.94,1.55c1.41,0,2.23-1.17,2.23-2.89,0-1.55-.75-2.81-2.18-2.81a2.06,2.06,0,0,0-2,1.64,2.1,2.1,0,0,0-.08.56Z"/><path class="cls-2" d="M356.63,82.09v1.52H352V82.09Z"/><path class="cls-2" d="M358.44,75.51h7v1.82h-4.8v3.35h4.46v1.81h-4.46v5.15h-2.22Z"/><path class="cls-2" d="M369.48,76.42a1.24,1.24,0,1,1-1.24-1.19A1.16,1.16,0,0,1,369.48,76.42Zm-2.35,11.22V78.88h2.22v8.76Z"/><path class="cls-2" d="M371.74,74.86H374V87.64h-2.22Z"/><path class="cls-2" d="M377.93,83.87c.05,1.59,1.28,2.29,2.7,2.29a6.59,6.59,0,0,0,2.42-.41l.33,1.53a8.09,8.09,0,0,1-3.06.55,4.16,4.16,0,0,1-4.52-4.44c0-2.42,1.47-4.71,4.29-4.71s3.78,2.34,3.78,4.26a4.65,4.65,0,0,1-.08.93Zm3.85-1.54A1.89,1.89,0,0,0,380,80.19a2.17,2.17,0,0,0-2,2.14Z"/><path class="cls-2" d="M389.37,74.86h2.22v5.21h0a3.17,3.17,0,0,1,2.62-1.39c1.49,0,3.06,1,3.06,3.8v5.16h-2.22V82.73c0-1.28-.45-2.24-1.68-2.24a1.84,1.84,0,0,0-1.72,1.24,2,2,0,0,0-.09.67v5.24h-2.22Z"/><path class="cls-2" d="M401.22,83.87c.06,1.59,1.29,2.29,2.71,2.29a6.59,6.59,0,0,0,2.42-.41l.33,1.53a8.19,8.19,0,0,1-3.07.55,4.15,4.15,0,0,1-4.51-4.44c0-2.42,1.47-4.71,4.29-4.71s3.77,2.34,3.77,4.26a4,4,0,0,1-.08.93Zm3.86-1.54a1.89,1.89,0,0,0-1.83-2.14,2.17,2.17,0,0,0-2,2.14Z"/><path class="cls-2" d="M408.94,81.7c0-1.18,0-2-.07-2.82h1.92l.08,1.66h.06a2.63,2.63,0,0,1,2.4-1.86,2,2,0,0,1,.52,0v2.09a2.91,2.91,0,0,0-.64-.07,2,2,0,0,0-2,1.68,3.4,3.4,0,0,0-.06.67v4.54h-2.22Z"/><path class="cls-2" d="M416.75,83.87c.06,1.59,1.29,2.29,2.71,2.29a6.59,6.59,0,0,0,2.42-.41l.33,1.53a8.11,8.11,0,0,1-3.07.55,4.15,4.15,0,0,1-4.51-4.44c0-2.42,1.47-4.71,4.29-4.71s3.77,2.34,3.77,4.26a4.84,4.84,0,0,1-.07.93Zm3.86-1.54a1.89,1.89,0,0,0-1.83-2.14,2.17,2.17,0,0,0-2,2.14Z"/><path class="cls-2" d="M67.87,65.55a7.89,7.89,0,0,1-3.15.55c-3.85,0-6.2-2.42-6.2-6.11,0-4,2.79-6.4,6.5-6.4a6.84,6.84,0,0,1,2.94.53l-.48,1.77a5.76,5.76,0,0,0-2.37-.48c-2.47,0-4.25,1.55-4.25,4.47,0,2.67,1.56,4.37,4.22,4.37a6.46,6.46,0,0,0,2.42-.44Z"/><path class="cls-2" d="M69.61,60c0-1.17,0-2-.07-2.81h1.92l.08,1.66h.06A2.63,2.63,0,0,1,74,57a2,2,0,0,1,.52,0v2.08a3,3,0,0,0-.65-.06,1.94,1.94,0,0,0-2,1.68,3.4,3.4,0,0,0-.06.67v4.54H69.61Z"/><path class="cls-2" d="M77.42,62.14c.06,1.59,1.29,2.28,2.71,2.28a6.82,6.82,0,0,0,2.42-.4l.33,1.52a8,8,0,0,1-3.07.56,4.15,4.15,0,0,1-4.51-4.44c0-2.42,1.47-4.71,4.29-4.71s3.77,2.34,3.77,4.26a4.12,4.12,0,0,1-.08.93Zm3.86-1.54a1.89,1.89,0,0,0-1.83-2.14,2.17,2.17,0,0,0-2,2.14Z"/><path class="cls-2" d="M90.08,65.91l-.16-1h0a3.18,3.18,0,0,1-2.58,1.18,2.6,2.6,0,0,1-2.77-2.61c0-2.21,2-3.33,5.2-3.32V60c0-.58-.22-1.54-1.78-1.53a4.69,4.69,0,0,0-2.35.65l-.44-1.43A6.22,6.22,0,0,1,88.32,57c2.82,0,3.62,1.77,3.62,3.69V63.8a12.66,12.66,0,0,0,.14,2.11Zm-.3-4.29c-1.56,0-3.06.31-3.06,1.64A1.17,1.17,0,0,0,88,64.52a1.8,1.8,0,0,0,1.73-1.21,1.58,1.58,0,0,0,.06-.48Z"/><path class="cls-2" d="M96.71,54.64v2.51h2.11V58.8H96.71v3.87c0,1.07.29,1.61,1.13,1.61a3.51,3.51,0,0,0,.86-.09l0,1.68a4.82,4.82,0,0,1-1.61.23,2.58,2.58,0,0,1-1.91-.72,3.48,3.48,0,0,1-.69-2.46V58.8H93.29V57.15h1.25v-2Z"/><path class="cls-2" d="M101.94,62.14c.06,1.59,1.29,2.28,2.71,2.28a6.82,6.82,0,0,0,2.42-.4l.33,1.52a7.9,7.9,0,0,1-3.07.56,4.15,4.15,0,0,1-4.51-4.44c0-2.42,1.47-4.71,4.29-4.71s3.77,2.34,3.77,4.26a5,5,0,0,1-.07.93Zm3.86-1.54A1.89,1.89,0,0,0,104,58.46a2.17,2.17,0,0,0-2,2.14Z"/><path class="cls-2" d="M118.32,65.91l-.15-1h-.06a3.18,3.18,0,0,1-2.58,1.18,2.59,2.59,0,0,1-2.76-2.61c0-2.21,2-3.33,5.19-3.32V60c0-.58-.22-1.54-1.78-1.53a4.75,4.75,0,0,0-2.35.65l-.44-1.43a6.26,6.26,0,0,1,3.18-.78c2.81,0,3.61,1.77,3.61,3.69V63.8a12.66,12.66,0,0,0,.14,2.11Zm-.3-4.29c-1.56,0-3.06.31-3.06,1.64a1.17,1.17,0,0,0,1.27,1.26A1.8,1.8,0,0,0,118,63.31a1.58,1.58,0,0,0,.06-.48Z"/><path class="cls-2" d="M128.45,65.91l-3.93-12.13h2.42l1.65,5.51c.47,1.53.88,3,1.19,4.42h0c.32-1.43.76-2.91,1.24-4.38l1.77-5.55h2.36L131,65.91Z"/><path class="cls-2" d="M143.81,63.29c0,1,0,1.91.07,2.62h-1.94l-.11-1.32h-.05A3.18,3.18,0,0,1,139,66.11c-1.59,0-3.05-1-3.05-3.82V57.15h2.22v4.77c0,1.45.46,2.38,1.64,2.38a1.84,1.84,0,0,0,1.69-1.18,2,2,0,0,0,.12-.69V57.15h2.22Z"/><path class="cls-2" d="M146.44,65.91V58.8h-1.19V57.15h1.19v-.38a4.09,4.09,0,0,1,1.07-3,3.31,3.31,0,0,1,2.29-.85,4.34,4.34,0,0,1,1.41.22l-.16,1.7a2.57,2.57,0,0,0-.94-.16c-1.1,0-1.46.92-1.46,2v.46h1.91V58.8h-1.9v7.11Z"/><path class="cls-2" d="M160.08,61.44a4.35,4.35,0,0,1-4.51,4.67,4.24,4.24,0,0,1-4.38-4.52A4.33,4.33,0,0,1,155.72,57,4.21,4.21,0,0,1,160.08,61.44Zm-6.61.1c0,1.68.84,3,2.17,3s2.16-1.23,2.16-3c0-1.38-.61-2.95-2.14-2.95S153.47,60.08,153.47,61.54Z"/><path class="cls-2" d="M161.9,60c0-1.17,0-2-.07-2.81h1.92l.08,1.66h.06a2.62,2.62,0,0,1,2.4-1.86,2.09,2.09,0,0,1,.52,0v2.08a3,3,0,0,0-.65-.06,2,2,0,0,0-2,1.68,4.47,4.47,0,0,0,0,.67v4.54H161.9Z"/><path class="cls-2" d="M170.68,54.69a1.19,1.19,0,0,1-1.27,1.2,1.17,1.17,0,0,1-1.21-1.2,1.24,1.24,0,0,1,2.48,0Zm-2.35,11.22V57.15h2.22v8.76Z"/><path class="cls-2" d="M177.87,65.91l-.16-1h-.05a3.18,3.18,0,0,1-2.58,1.18,2.6,2.6,0,0,1-2.77-2.61c0-2.21,2-3.33,5.2-3.32V60c0-.58-.22-1.54-1.78-1.53a4.72,4.72,0,0,0-2.35.65l-.44-1.43a6.26,6.26,0,0,1,3.18-.78c2.81,0,3.61,1.77,3.61,3.69V63.8a12.66,12.66,0,0,0,.14,2.11Zm-.3-4.29c-1.56,0-3.06.31-3.06,1.64a1.17,1.17,0,0,0,1.27,1.26,1.8,1.8,0,0,0,1.73-1.21,1.58,1.58,0,0,0,.06-.48Z"/><path class="cls-2" d="M187.48,55.64H184V53.78h9.18v1.86H189.7V65.91h-2.22Z"/><path class="cls-2" d="M198.28,65.91l-.16-1h-.05a3.18,3.18,0,0,1-2.58,1.18,2.6,2.6,0,0,1-2.77-2.61c0-2.21,2-3.33,5.2-3.32V60c0-.58-.22-1.54-1.78-1.53a4.72,4.72,0,0,0-2.35.65l-.44-1.43a6.26,6.26,0,0,1,3.18-.78c2.81,0,3.61,1.77,3.61,3.69V63.8a12.66,12.66,0,0,0,.14,2.11Zm-.3-4.29c-1.56,0-3.06.31-3.06,1.64a1.17,1.17,0,0,0,1.27,1.26,1.8,1.8,0,0,0,1.73-1.21,1.58,1.58,0,0,0,.06-.48Z"/><path class="cls-2" d="M202.48,60c0-1.17,0-2-.07-2.81h1.92l.08,1.66h.06a2.63,2.63,0,0,1,2.4-1.86,2,2,0,0,1,.52,0v2.08a3,3,0,0,0-.65-.06,1.94,1.94,0,0,0-2,1.68,3.4,3.4,0,0,0-.06.67v4.54h-2.22Z"/><path class="cls-2" d="M216.76,57.15c0,.59-.08,1.31-.08,2.51v5c0,1.83-.37,3.14-1.29,4a5.08,5.08,0,0,1-3.4,1.06,6.39,6.39,0,0,1-3.05-.69l.48-1.69A5.17,5.17,0,0,0,212,68a2.33,2.33,0,0,0,2.52-2.65v-.75h0a3,3,0,0,1-2.55,1.28c-2.17,0-3.72-1.8-3.72-4.27,0-2.89,1.87-4.63,4-4.63a2.76,2.76,0,0,1,2.55,1.36h0l.08-1.16Zm-2.29,3.51a2.17,2.17,0,0,0-.07-.59,1.85,1.85,0,0,0-1.81-1.43c-1.23,0-2.16,1.08-2.16,2.87,0,1.48.76,2.69,2.15,2.69a1.86,1.86,0,0,0,1.79-1.34,2.88,2.88,0,0,0,.1-.78Z"/><path class="cls-2" d="M220.63,62.14c.06,1.59,1.28,2.28,2.7,2.28a6.82,6.82,0,0,0,2.42-.4l.33,1.52a7.88,7.88,0,0,1-3.06.56,4.16,4.16,0,0,1-4.52-4.44c0-2.42,1.47-4.71,4.29-4.71s3.78,2.34,3.78,4.26a4.81,4.81,0,0,1-.08.93Zm3.85-1.54a1.88,1.88,0,0,0-1.83-2.14,2.17,2.17,0,0,0-2,2.14Z"/><path class="cls-2" d="M230.89,54.64v2.51H233V58.8h-2.1v3.87c0,1.07.28,1.61,1.13,1.61a3.57,3.57,0,0,0,.86-.09l0,1.68a4.78,4.78,0,0,1-1.61.23,2.58,2.58,0,0,1-1.9-.72,3.48,3.48,0,0,1-.7-2.46V58.8h-1.25V57.15h1.25v-2Z"/><path class="cls-2" d="M60.4,78.75l.91,4c.22.94.41,1.88.57,2.84h0c.18-.94.46-1.92.71-2.82l1.15-4h1.79l1.1,3.89c.27,1,.51,2,.7,2.92h0c.14-.94.34-1.91.58-2.92l1-3.89h2.18l-2.75,8.76H66.33l-1-3.57a24.56,24.56,0,0,1-.66-2.8h0a23.59,23.59,0,0,1-.67,2.8L62.8,87.51H60.73l-2.59-8.76Z"/><path class="cls-2" d="M74.91,76.29a1.19,1.19,0,0,1-1.27,1.2,1.2,1.2,0,1,1,1.27-1.2ZM72.56,87.51V78.75h2.22v8.76Z"/><path class="cls-2" d="M79.7,76.24v2.51h2.11V80.4H79.7v3.87c0,1.07.29,1.61,1.13,1.61a3.67,3.67,0,0,0,.87-.09l0,1.68a4.78,4.78,0,0,1-1.61.23A2.58,2.58,0,0,1,78.22,87a3.53,3.53,0,0,1-.69-2.46V80.4H76.28V78.75h1.25v-2Z"/><path class="cls-2" d="M83.48,74.73H85.7v5.21h0a3.17,3.17,0,0,1,2.61-1.39c1.49,0,3.07,1,3.07,3.8v5.16H89.2V82.59c0-1.27-.46-2.23-1.69-2.23A1.82,1.82,0,0,0,85.8,81.6a1.78,1.78,0,0,0-.1.67v5.24H83.48Z"/><path class="cls-2" d="M100,76.24v2.51h2.11V80.4H100v3.87c0,1.07.28,1.61,1.13,1.61a3.51,3.51,0,0,0,.86-.09l0,1.68a4.82,4.82,0,0,1-1.61.23A2.58,2.58,0,0,1,98.55,87a3.48,3.48,0,0,1-.69-2.46V80.4H96.61V78.75h1.25v-2Z"/><path class="cls-2" d="M103.81,74.73H106v5.21h0a3.15,3.15,0,0,1,1.11-1,3,3,0,0,1,1.51-.39c1.49,0,3.07,1,3.07,3.8v5.16h-2.22V82.59c0-1.27-.46-2.23-1.69-2.23a1.84,1.84,0,0,0-1.72,1.24,2,2,0,0,0-.09.67v5.24h-2.22Z"/><path class="cls-2" d="M116.45,76.29a1.24,1.24,0,1,1-1.24-1.2A1.18,1.18,0,0,1,116.45,76.29ZM114.1,87.51V78.75h2.22v8.76Z"/><path class="cls-2" d="M118.6,85.47a4.81,4.81,0,0,0,2.24.64c1,0,1.41-.41,1.41-1s-.36-.9-1.44-1.28c-1.72-.59-2.43-1.52-2.42-2.56,0-1.54,1.28-2.74,3.32-2.74a5.12,5.12,0,0,1,2.33.52l-.44,1.56a4,4,0,0,0-1.85-.51c-.79,0-1.23.39-1.23.93s.42.83,1.53,1.23c1.59.56,2.33,1.38,2.34,2.67,0,1.6-1.25,2.75-3.56,2.75a5.66,5.66,0,0,1-2.67-.61Z"/><path class="cls-2" d="M131.5,83.74c.06,1.59,1.29,2.28,2.71,2.28a6.82,6.82,0,0,0,2.42-.4l.32,1.52a7.88,7.88,0,0,1-3.06.56,4.15,4.15,0,0,1-4.51-4.44c0-2.42,1.46-4.71,4.28-4.71s3.78,2.34,3.78,4.26a4.12,4.12,0,0,1-.08.93Zm3.85-1.54a1.88,1.88,0,0,0-1.82-2.14,2.16,2.16,0,0,0-2,2.14Z"/><path class="cls-2" d="M140.56,78.75l1,1.65c.29.46.55.9.8,1.36h0c.26-.5.51-.94.77-1.39l1-1.62h2.41L143.65,83l3,4.56h-2.51l-1.07-1.75c-.29-.47-.54-.93-.79-1.42h-.05c-.25.5-.51.94-.78,1.42l-1,1.75H138L141,83l-2.94-4.29Z"/><path class="cls-2" d="M152.91,87.51l-.16-1h-.05a3.18,3.18,0,0,1-2.58,1.18,2.6,2.6,0,0,1-2.77-2.61c0-2.21,2-3.33,5.2-3.32v-.14c0-.58-.23-1.54-1.78-1.53a4.69,4.69,0,0,0-2.35.65L148,79.33a6.22,6.22,0,0,1,3.17-.78c2.82,0,3.62,1.77,3.62,3.69V85.4a14,14,0,0,0,.13,2.11Zm-.3-4.29c-1.56,0-3.06.31-3.06,1.64a1.17,1.17,0,0,0,1.27,1.26,1.8,1.8,0,0,0,1.73-1.21,1.58,1.58,0,0,0,.06-.48Z"/><path class="cls-2" d="M163.54,87.25a6.4,6.4,0,0,1-2.47.45,4.22,4.22,0,0,1-4.52-4.48,4.52,4.52,0,0,1,4.88-4.67,5.79,5.79,0,0,1,2.14.4l-.4,1.67a3.74,3.74,0,0,0-1.67-.34,2.84,2.84,0,0,0,0,5.67,4.42,4.42,0,0,0,1.75-.35Z"/><path class="cls-2" d="M168,76.24v2.51h2.1V80.4H168v3.87c0,1.07.28,1.61,1.13,1.61a3.57,3.57,0,0,0,.86-.09l0,1.68a4.78,4.78,0,0,1-1.61.23,2.58,2.58,0,0,1-1.9-.72,3.48,3.48,0,0,1-.7-2.46V80.4h-1.25V78.75h1.25v-2Z"/><path class="cls-2" d="M175.58,87.51V75.38h2.53l3.14,5.2a32.43,32.43,0,0,1,2.06,4.07h.05a49.71,49.71,0,0,1-.2-5V75.38h2.05V87.51h-2.3l-3.16-5.34A41.63,41.63,0,0,1,177.57,78h-.06c.09,1.57.12,3.18.12,5.17v4.34Z"/><path class="cls-2" d="M192.62,87.51l-.15-1h-.06a3.17,3.17,0,0,1-2.58,1.18,2.59,2.59,0,0,1-2.76-2.61c0-2.21,2-3.33,5.2-3.32v-.14c0-.58-.23-1.54-1.78-1.53a4.76,4.76,0,0,0-2.36.65l-.44-1.43a6.26,6.26,0,0,1,3.18-.78c2.81,0,3.61,1.77,3.61,3.69V85.4a12.66,12.66,0,0,0,.14,2.11Zm-.29-4.29c-1.57,0-3.06.31-3.06,1.64a1.16,1.16,0,0,0,1.26,1.26,1.8,1.8,0,0,0,1.73-1.21,1.59,1.59,0,0,0,.07-.48Z"/><path class="cls-2" d="M196.83,81.35c0-1,0-1.85-.08-2.6h1.9l.1,1.28h.05a3,3,0,0,1,2.7-1.48,2.52,2.52,0,0,1,2.43,1.61h0a3.52,3.52,0,0,1,1.07-1.1,3.07,3.07,0,0,1,1.78-.51c1.45,0,2.93,1,2.93,3.8v5.16h-2.17V82.66c0-1.46-.5-2.32-1.56-2.32a1.67,1.67,0,0,0-1.54,1.17,2.5,2.5,0,0,0-.11.74v5.26h-2.16V82.44c0-1.23-.5-2.1-1.52-2.1a1.76,1.76,0,0,0-1.59,1.26,2.19,2.19,0,0,0-.11.73v5.18h-2.16Z"/><path class="cls-2" d="M213.66,83.74c.06,1.59,1.28,2.28,2.7,2.28a6.82,6.82,0,0,0,2.42-.4l.33,1.52a7.88,7.88,0,0,1-3.06.56,4.16,4.16,0,0,1-4.52-4.44c0-2.42,1.47-4.71,4.29-4.71s3.78,2.34,3.78,4.26a4.81,4.81,0,0,1-.08.93Zm3.85-1.54a1.88,1.88,0,0,0-1.83-2.14,2.17,2.17,0,0,0-2,2.14Z"/><g class="cls-1"><path class="cls-3" d="M488,210.5H27a15,15,0,0,1-15-15V125.14a15.05,15.05,0,0,1,15.14-15l244.06,1.29A15,15,0,0,0,286.35,96.2l-.7-70a15,15,0,0,1,15-15.19H488a15,15,0,0,1,15,15V195.46A15,15,0,0,1,488,210.5Z"/></g><line class="cls-4" x1="143" y1="38" x2="143" y2="18.23"/><polygon class="cls-2" points="128.06 20.43 143 11 157.94 20.43 157.94 20.53 128.06 20.53 128.06 20.43"/></svg>