<svg id="Layer_1" data-name="Layer 1" xmlns="http://www.w3.org/2000/svg" viewBox="0 0 857.09 90.82">
  <defs>
    <style>
      .cls-1 {
        fill: #fff;
      }
    </style>
  </defs>
  <title>edgeServer</title>
  <g>
    <path class="cls-1" d="M31.78,32.54,18.84,65.71H13L0,32.54H5.44L15.92,60.4,26.34,32.54Z"/>
    <path class="cls-1" d="M60.38,65.71V60.54a16.74,16.74,0,0,1-4.38,4,10.68,10.68,0,0,1-5.91,1.66,15.69,15.69,0,0,1-5.7-.93,11.4,11.4,0,0,1-4.18-2.78,14.34,14.34,0,0,1-4.12-10.69V32.54h5V51.71A10.13,10.13,0,0,0,43.66,59a8.84,8.84,0,0,0,6.7,2.72,9.9,9.9,0,0,0,7.1-2.79,9.73,9.73,0,0,0,2.92-7.29V32.54h5V65.71Z"/>
    <path class="cls-1" d="M88.24,23.45A7.73,7.73,0,0,0,83,25q-1.75,1.56-1.76,5v2.52h7.7v4.38h-7.7V65.71h-5V29.62q0-5.45,3.25-8.16c2.16-1.82,5.17-2.72,9-2.72h.4v4.71Z"/>
    <path class="cls-1" d="M108.08,32a15.75,15.75,0,0,1,12.08,5,17.27,17.27,0,0,1,4.38,12.14,17.3,17.3,0,0,1-4.38,12.15,15.79,15.79,0,0,1-12.08,5,15.77,15.77,0,0,1-12.07-5,17.3,17.3,0,0,1-4.38-12.15A17.27,17.27,0,0,1,96,37,15.73,15.73,0,0,1,108.08,32Zm0,29.72a10.5,10.5,0,0,0,8.5-3.72,13.23,13.23,0,0,0,3-8.89,13.27,13.27,0,0,0-3-8.89,11.58,11.58,0,0,0-17,0,13.28,13.28,0,0,0-3,8.89,13.24,13.24,0,0,0,3,8.89A10.5,10.5,0,0,0,108.08,61.73Z"/>
    <path class="cls-1" d="M148.62,32v5H148a10.63,10.63,0,0,0-8.76,4.31,15.55,15.55,0,0,0-3.19,9.82v14.6h-5V32.54h5V40.7A12.57,12.57,0,0,1,148.29,32Z"/>
    <path class="cls-1" d="M156.45,20.33a3.37,3.37,0,0,1,2.46,1,3.28,3.28,0,0,1,1,2.39,3.45,3.45,0,1,1-6.9,0,3.25,3.25,0,0,1,1-2.39A3.33,3.33,0,0,1,156.45,20.33ZM154,32.54h5V65.71h-5Z"/>
    <path class="cls-1" d="M193.47,60.4q-4,5.85-11.87,5.84a15.06,15.06,0,0,1-11.68-5,17.59,17.59,0,0,1-4.38-12.15A17.58,17.58,0,0,1,169.92,37q4.52-5,12-5a13.14,13.14,0,0,1,11.54,5.9V32.54h5V65.71h-5Zm-11.21,1.33A10.5,10.5,0,0,0,190.75,58a13.24,13.24,0,0,0,3-8.89,13.28,13.28,0,0,0-3-8.89,10.52,10.52,0,0,0-8.49-3.71,11.06,11.06,0,0,0-8.63,3.71,13,13,0,0,0-3.11,8.89A12.92,12.92,0,0,0,173.63,58,11,11,0,0,0,182.26,61.73Z"/>
    <path class="cls-1" d="M208.6,32.58a5,5,0,0,1,2,.41,5.11,5.11,0,0,1,2.74,2.74,5.18,5.18,0,0,1,0,4,5.26,5.26,0,0,1-1.1,1.63,5.12,5.12,0,0,1-5.64,1.1,5,5,0,0,1-1.63-1.1,5.26,5.26,0,0,1-1.1-1.63,5.18,5.18,0,0,1,0-4,5.31,5.31,0,0,1,1.1-1.64A5.38,5.38,0,0,1,206.6,33,5,5,0,0,1,208.6,32.58Zm0,9.54a4.21,4.21,0,0,0,3.12-1.29,4.37,4.37,0,0,0,.94-1.4,4.25,4.25,0,0,0,.35-1.71,4.32,4.32,0,0,0-.35-1.71,4.48,4.48,0,0,0-.94-1.4,4.25,4.25,0,0,0-3.12-1.29,4.18,4.18,0,0,0-3.11,1.29,4.28,4.28,0,0,0-1.29,3.12,4.24,4.24,0,0,0,.35,1.7,4.37,4.37,0,0,0,.94,1.4A4.14,4.14,0,0,0,208.6,42.12Zm2.53-5.56a1.48,1.48,0,0,1-.3.91A1.61,1.61,0,0,1,210,38a1.48,1.48,0,0,1,1,1.35,3.36,3.36,0,0,1,.05.51v.7h-1V40a2.35,2.35,0,0,0-.13-.93,1,1,0,0,0-1-.6h-1.46v2.1h-1V34.86h2.43a2.77,2.77,0,0,1,1.78.47A1.5,1.5,0,0,1,211.13,36.56Zm-2.41,1a1.83,1.83,0,0,0,1-.24.76.76,0,0,0,.38-.67.83.83,0,0,0-.3-.68,1.77,1.77,0,0,0-1.11-.25h-1.28v1.84Z"/>
    <path class="cls-1" d="M810.34,33.07v-1h6v1h-2.49v6.31h-1V33.07Zm13.11-1h1.06v7.29h-1V33.76l-2.43,3.11-2.46-3.11v5.62h-1V32.09h1.09l2.4,3.19Z"/>
  </g>
  <g>
    <path class="cls-1" d="M255.9,41.09q-.68-5.3-8.45-5.29t-7.77,4.88a3.43,3.43,0,0,0,1.65,3.09,15.35,15.35,0,0,0,4.14,1.73q2.49.68,5.42,1.25a28.12,28.12,0,0,1,5.42,1.63,11.49,11.49,0,0,1,4.14,2.88,7.28,7.28,0,0,1,1.64,5,8.67,8.67,0,0,1-3.7,7.56q-3.7,2.61-10,2.61c-4.48,0-8.05-1.12-10.7-3.39a10.42,10.42,0,0,1-3.9-7.8H239c.31,3.12,2.06,5.23,5.25,6.31a11.66,11.66,0,0,0,3.46.54,22.89,22.89,0,0,0,3.2-.2,12.9,12.9,0,0,0,2.9-.75,4.49,4.49,0,0,0,3.23-4.4,3.67,3.67,0,0,0-1.65-3.23,14.73,14.73,0,0,0-4.14-1.83q-2.49-.71-5.42-1.29a28.83,28.83,0,0,1-5.42-1.59A11.53,11.53,0,0,1,236.28,46a6.87,6.87,0,0,1-1.65-4.88A8.49,8.49,0,0,1,238,34c2.23-1.7,5.51-2.54,9.87-2.54,4.12,0,7.38,1,9.75,3A9.83,9.83,0,0,1,261,41.09Z"/>
    <path class="cls-1" d="M273.6,37.43q4-6,12-6a15,15,0,0,1,11.78,5.08A17.9,17.9,0,0,1,301.94,49a17.89,17.89,0,0,1-4.51,12.41q-4.51,5.09-12.11,5.08a13.35,13.35,0,0,1-11.72-6V79.34h-5V32h5ZM285,36.07a10.6,10.6,0,0,0-8.62,3.8,13.59,13.59,0,0,0-3,9.09,13.59,13.59,0,0,0,3,9.08,10.6,10.6,0,0,0,8.62,3.8,11.11,11.11,0,0,0,8.75-3.8A13.22,13.22,0,0,0,296.89,49a13.23,13.23,0,0,0-3.16-9.09A11.11,11.11,0,0,0,285,36.07Z"/>
    <path class="cls-1" d="M334.79,60.49q-4,6-12.05,6a15.2,15.2,0,0,1-11.85-5.08A18.07,18.07,0,0,1,306.45,49a18.08,18.08,0,0,1,4.44-12.42q4.58-5.09,12.19-5.08a13.33,13.33,0,0,1,11.71,6V32h5V65.91h-5Zm-11.38,1.35A10.6,10.6,0,0,0,332,58a13.59,13.59,0,0,0,3-9.08,13.59,13.59,0,0,0-3-9.09,10.6,10.6,0,0,0-8.62-3.8,11.13,11.13,0,0,0-8.75,3.8A13.23,13.23,0,0,0,311.5,49,13.22,13.22,0,0,0,314.66,58,11.13,11.13,0,0,0,323.41,61.84Z"/>
    <path class="cls-1" d="M352.22,65.91V36.48h-6.87V32h6.87V19.86h5V32H365v4.48h-7.74V65.91Z"/>
    <path class="cls-1" d="M373,19.52a3.39,3.39,0,0,1,2.49,1,3.34,3.34,0,0,1,1,2.44,3.45,3.45,0,0,1-1,2.51,3.5,3.5,0,0,1-6-2.51,3.3,3.3,0,0,1,1-2.44A3.36,3.36,0,0,1,373,19.52ZM370.53,32h5.05V65.91h-5.05Z"/>
    <path class="cls-1" d="M410.58,60.49q-4.05,6-12.05,6a15.2,15.2,0,0,1-11.85-5.08A18.07,18.07,0,0,1,382.24,49a18.08,18.08,0,0,1,4.44-12.42q4.57-5.09,12.18-5.08a13.35,13.35,0,0,1,11.72,6V32h5V65.91h-5ZM399.2,61.84a10.61,10.61,0,0,0,8.62-3.8,13.58,13.58,0,0,0,3-9.08,13.59,13.59,0,0,0-3-9.09,10.61,10.61,0,0,0-8.62-3.8,11.11,11.11,0,0,0-8.75,3.8A13.23,13.23,0,0,0,387.29,49,13.22,13.22,0,0,0,390.45,58,11.11,11.11,0,0,0,399.2,61.84Z"/>
    <path class="cls-1" d="M429.42,65.91h-5.05V18.43h5.05Z"/>
    <path class="cls-1" d="M467.52,61.84q6.8,0,9.76-5.7h5.52a16.36,16.36,0,0,1-5.56,7.47,15.88,15.88,0,0,1-9.79,2.84,16.2,16.2,0,0,1-12.38-5.08A17.42,17.42,0,0,1,450.42,49a17.77,17.77,0,0,1,4.44-12.42,17.31,17.31,0,0,1,24.5,0A17.73,17.73,0,0,1,483.81,49v2H455.6a12.34,12.34,0,0,0,3.71,7.73A11.33,11.33,0,0,0,467.52,61.84Zm-.41-25.77a11.06,11.06,0,0,0-7.8,2.92,12,12,0,0,0-3.64,7.25h22.89A12,12,0,0,0,474.92,39,11.07,11.07,0,0,0,467.11,36.07Z"/>
    <path class="cls-1" d="M516.25,60.49q-4,6-12.05,6a15.21,15.21,0,0,1-11.85-5.08A18.07,18.07,0,0,1,487.91,49a18.08,18.08,0,0,1,4.44-12.42q4.59-5.09,12.19-5.08a13.33,13.33,0,0,1,11.71,6V18.43h5V65.91h-5Zm-11.38,1.35a10.6,10.6,0,0,0,8.62-3.8,13.59,13.59,0,0,0,3-9.08,13.59,13.59,0,0,0-3-9.09,10.6,10.6,0,0,0-8.62-3.8,11.13,11.13,0,0,0-8.75,3.8A13.23,13.23,0,0,0,493,49,13.22,13.22,0,0,0,496.12,58,11.13,11.13,0,0,0,504.87,61.84Z"/>
    <path class="cls-1" d="M556.3,37.43V32h5V64.89q0,7.33-4.13,11.16t-11.14,3.83q-7,0-10.94-2.71A13.38,13.38,0,0,1,529.78,70h5.58q2.16,5.3,9.83,5.29,5.85,0,8.48-2.71t2.63-8V59.88q-4.11,6-12,6a15.28,15.28,0,0,1-11.85-5A17.45,17.45,0,0,1,528,48.68a17.44,17.44,0,0,1,4.44-12.2q4.58-5,12.22-5A13.25,13.25,0,0,1,556.3,37.43ZM544.92,61.3a11.76,11.76,0,0,0,4.91-1,11.46,11.46,0,0,0,3.71-2.68,13.26,13.26,0,0,0,3-9,13.25,13.25,0,0,0-3-9,11.05,11.05,0,0,0-8.62-3.66,11.22,11.22,0,0,0-8.75,3.66,13.06,13.06,0,0,0-3.16,9,13.06,13.06,0,0,0,3.16,9A11.22,11.22,0,0,0,544.92,61.3Z"/>
    <path class="cls-1" d="M585.1,61.84q6.81,0,9.76-5.7h5.52a16.34,16.34,0,0,1-5.55,7.47A15.9,15.9,0,0,1,585,66.45a16.22,16.22,0,0,1-12.39-5.08A17.46,17.46,0,0,1,568,49a17.77,17.77,0,0,1,4.44-12.42,17.31,17.31,0,0,1,24.5,0A17.77,17.77,0,0,1,601.39,49v2h-28.2a12.33,12.33,0,0,0,3.7,7.73A11.34,11.34,0,0,0,585.1,61.84Zm-.4-25.77A11.07,11.07,0,0,0,576.89,39a12.09,12.09,0,0,0-3.63,7.25h22.88A12.09,12.09,0,0,0,592.51,39,11.07,11.07,0,0,0,584.7,36.07Z"/>
    <path class="cls-1" d="M641.71,41.09q-.68-5.3-8.45-5.29t-7.77,4.88a3.43,3.43,0,0,0,1.65,3.09,15.35,15.35,0,0,0,4.14,1.73c1.66.45,3.46.87,5.42,1.25a28,28,0,0,1,5.41,1.63,11.49,11.49,0,0,1,4.14,2.88,7.23,7.23,0,0,1,1.65,5,8.67,8.67,0,0,1-3.7,7.56q-3.71,2.61-10,2.61c-4.49,0-8-1.12-10.7-3.39a10.39,10.39,0,0,1-3.9-7.8h5.25c.31,3.12,2.06,5.23,5.25,6.31a11.66,11.66,0,0,0,3.46.54,22.89,22.89,0,0,0,3.2-.2,12.68,12.68,0,0,0,2.89-.75,4.48,4.48,0,0,0,3.23-4.4,3.68,3.68,0,0,0-1.64-3.23,14.73,14.73,0,0,0-4.14-1.83q-2.49-.71-5.42-1.29a28.83,28.83,0,0,1-5.42-1.59A11.53,11.53,0,0,1,622.09,46a6.87,6.87,0,0,1-1.65-4.88A8.49,8.49,0,0,1,623.77,34q3.33-2.55,9.86-2.54,6.2,0,9.76,3a9.83,9.83,0,0,1,3.44,6.65Z"/>
    <path class="cls-1" d="M669.37,61.84q6.81,0,9.76-5.7h5.52a16.34,16.34,0,0,1-5.55,7.47,15.9,15.9,0,0,1-9.79,2.84,16.22,16.22,0,0,1-12.39-5.08A17.46,17.46,0,0,1,652.28,49a17.77,17.77,0,0,1,4.44-12.42,17.31,17.31,0,0,1,24.5,0A17.77,17.77,0,0,1,685.66,49v2h-28.2a12.33,12.33,0,0,0,3.7,7.73A11.34,11.34,0,0,0,669.37,61.84ZM669,36.07A11.07,11.07,0,0,0,661.16,39a12,12,0,0,0-3.63,7.25h22.88A12.09,12.09,0,0,0,676.78,39,11.07,11.07,0,0,0,669,36.07Z"/>
    <path class="cls-1" d="M709.62,31.46v5.08H709A10.76,10.76,0,0,0,700.13,41a16,16,0,0,0-3.23,10V65.91h-5V32h5v8.34a12.37,12.37,0,0,1,7-7.8,12.25,12.25,0,0,1,5.39-1.08Z"/>
    <path class="cls-1" d="M743.28,32,730.15,65.91h-5.92L711,32h5.51l10.64,28.49L737.76,32Z"/>
    <path class="cls-1" d="M762.59,61.84q6.81,0,9.76-5.7h5.52a16.27,16.27,0,0,1-5.55,7.47,15.88,15.88,0,0,1-9.79,2.84,16.24,16.24,0,0,1-12.39-5.08A17.46,17.46,0,0,1,745.5,49a17.77,17.77,0,0,1,4.44-12.42,17.31,17.31,0,0,1,24.5,0A17.77,17.77,0,0,1,778.88,49v2h-28.2a12.33,12.33,0,0,0,3.7,7.73A11.34,11.34,0,0,0,762.59,61.84Zm-.4-25.77A11.07,11.07,0,0,0,754.38,39a12.09,12.09,0,0,0-3.63,7.25h22.88A12.09,12.09,0,0,0,770,39,11.07,11.07,0,0,0,762.19,36.07Z"/>
    <path class="cls-1" d="M802.84,31.46v5.08h-.6A10.76,10.76,0,0,0,793.35,41a16,16,0,0,0-3.23,10V65.91h-5V32h5v8.34a12.37,12.37,0,0,1,7-7.8,12.25,12.25,0,0,1,5.39-1.08Z"/>
  </g>
</svg>
