<?xml version="1.0" encoding="utf-8"?>
<!-- Generator: Adobe Illustrator 22.0.1, SVG Export Plug-In . SVG Version: 6.00 Build 0)  -->
<svg version="1.1" id="Layer_1" xmlns="http://www.w3.org/2000/svg" xmlns:xlink="http://www.w3.org/1999/xlink" x="0px" y="0px"
	 viewBox="0 0 82.4 81.8" style="enable-background:new 0 0 82.4 81.8;" xml:space="preserve">
<style type="text/css">
	.st0{fill:#2DFFFF;}
</style>
<path class="st0" d="M50.7,4.3c0.2,0,0.6,0,1.2,0.4c1.1,0.5,2.2,0.8,3.2,1.2c3.4,1.1,3.4,1.2,3.2,3l-0.1,0.8l0.1,0.4
	c0,0.2-0.1,0.4-0.2,0.5c-0.5,1.4-1.5,4.3,0.7,7.2c2.5,3.3,5.4,5,8.8,5c1.4,0,2.8-0.3,4.3-0.9c0.7-0.3,1.1-0.3,1.3-0.3
	c0.5,0,1.3,1.2,2.3,3.4l0.2,0.5c1.9,4.2,1.7,4.4-0.1,5.6c-4.9,3.3-5.9,6.8-5.8,9.1c0.1,2.4,1.2,5.9,6.4,9c1.8,1.1,1.9,1.1,0.6,4.8
	c-0.3,0.7-0.5,1.5-0.8,2.2c-0.8,2.6-1.6,2.6-2.5,2.6c-0.4,0-0.8-0.1-1.3-0.1c-1.1-0.2-2.2-0.3-3.2-0.3c-3.4,0-6.1,1.3-7.8,3.5
	c-1.3,1.8-2.5,4.9-1,9.9c0.6,2.1,0.7,2.4-3.5,4.3c-1.1,0.5-2.8,1.3-3.9,1.3c-0.2,0-0.8,0-1.8-1.5c-3.1-4.7-6.6-5.7-8.9-5.7
	c-2,0-5.9,0.8-8.9,6.3c-0.9,1.7-1.5,1.7-1.7,1.7c-0.8,0-2.1-0.5-3.4-1c-0.7-0.3-1.5-0.6-2.2-0.8c-2.7-0.9-2.8-1.5-2.3-3.7
	c0.9-3.6,0.3-7-1.5-9.4c-1.7-2.2-4.3-3.4-7.3-3.4c-1.3,0-2.6,0.2-4,0.6c-0.7,0.2-1.2,0.3-1.7,0.3c-0.6,0-1.4,0-2.9-3.4
	c-2.1-4.7-1.8-4.9,0.1-6.1c5-3.3,5.6-7.1,5.5-9.1c-0.1-2-1-5.8-6.3-8.7c-2-1.1-2.2-1.2-0.7-5.2c0.3-0.7,0.5-1.4,0.7-2.1
	c0.8-2.4,1.5-2.4,2.2-2.4c0.4,0,1,0.1,1.6,0.2c1.1,0.3,2.2,0.4,3.3,0.4c3.2,0,5.9-1.3,7.6-3.6c1.9-2.6,2.3-6,1.1-9.8
	c-0.7-2.3-0.8-2.7,3.7-4.8c1.2-0.6,2.7-1.2,3.6-1.2c0.3,0,0.9,0,1.9,1.6c2.3,3.5,5.4,5.5,8.8,5.5c3.5,0,6.7-2.1,9.1-5.9
	C49.1,5.5,50,4.3,50.7,4.3L50.7,4.3z M50.7,0.2c-2.3,0-4,1.5-5.5,4c-1.6,2.7-3.6,4-5.6,4c-1.9,0-3.8-1.2-5.4-3.7
	c-1.7-2.5-3.4-3.4-5.3-3.4c-1.7,0-3.4,0.7-5.3,1.6c-4.1,1.9-7.6,3.8-5.8,9.6c1.5,4.9-0.7,8.1-4.9,8.1c-0.7,0-1.5-0.1-2.3-0.3
	c-0.9-0.2-1.8-0.3-2.5-0.3c-3.1,0-4.9,1.8-6,5.2c-1.4,4.3-4.3,8.6,1.8,12c5.4,3,5.6,7.6,0.5,11c-5,3.3-3.4,7-1.6,11.2
	C4.1,62.6,5.8,65,9.2,65c0.8,0,1.8-0.2,2.8-0.5c1-0.3,1.9-0.4,2.8-0.4c4,0,6.1,3.1,5,7.7c-1.1,4.7,0.7,7.1,5,8.5
	c2.3,0.8,4.6,2,6.8,2c1.9,0,3.6-0.9,5.2-3.8c1.5-2.8,3.4-4.2,5.4-4.2c1.9,0,3.8,1.3,5.5,3.9c1.6,2.4,3.3,3.3,5.2,3.3
	c1.8,0,3.6-0.8,5.6-1.7c3.9-1.8,7.4-3.5,5.7-9.2c-1.6-5.2,0.5-8.2,5-8.2c0.8,0,1.6,0.1,2.5,0.3c0.8,0.1,1.5,0.2,2.1,0.2
	c3.3,0,5.2-1.8,6.3-5.5c1.3-4.2,4.1-8.3-1.6-11.7c-5.8-3.5-6-7.6-0.4-11.2c5.1-3.4,3.2-7.1,1.4-11.1c-1.4-3.1-3-5.8-6-5.8
	c-0.8,0-1.7,0.2-2.8,0.6c-1,0.4-1.9,0.6-2.8,0.6c-2.3,0-4-1.4-5.5-3.4c-1.5-2,0.8-4.1,0.3-6.1c0.7-6.8-5-6.5-8.7-8.3
	C52.6,0.5,51.6,0.2,50.7,0.2L50.7,0.2z"/>
<path class="st0" d="M40.9,26.7c8.3,0,14.6,6.3,14.6,14.5c0,4-1.5,7.7-4.2,10.4c-2.7,2.7-6.4,4.2-10.5,4.2
	c-8.1,0-14.4-6.2-14.5-14.4c-0.1-4,1.4-7.8,4-10.5c2.7-2.7,6.4-4.3,10.4-4.3H40.9z M40.9,22.7c-0.1,0-0.1,0-0.2,0
	C30.1,22.7,22.1,31,22.3,41.6c0.2,10.4,8.2,18.3,18.5,18.3h0.1c10.5,0,18.7-8.2,18.7-18.7C59.5,30.8,51.4,22.7,40.9,22.7L40.9,22.7z
	"/>
<g>
	<path class="st0" d="M51.3,7.6c1,0.4,2,0.7,2.9,1C54.6,8.7,55,8.8,55.4,9l-0.1,0.9l0,0.1c-0.6,1.8-1.6,5.7,1.2,9.5
		c3.1,4.1,6.8,6.3,11.1,6.3c1.5,0,3.1-0.3,4.6-0.8c0.2,0.3,0.4,0.7,0.6,1.3l0.2,0.5c0.3,0.6,0.6,1.4,0.9,2c-6,4-7.2,8.5-7.1,11.6
		c0.1,3.1,1.5,7.5,7.7,11.3c-0.1,0.4-0.3,0.9-0.5,1.3c-0.3,0.7-0.6,1.5-0.8,2.4c-0.1,0.2-0.1,0.4-0.2,0.5c-0.1,0-0.1,0-0.2,0
		c-1.3-0.3-2.6-0.4-3.9-0.4c-4.3,0-8,1.7-10.2,4.7c-1.7,2.3-3.3,6.3-1.5,12.4c-0.6,0.3-1.3,0.7-1.9,0.9c-0.4,0.2-1.3,0.6-2,0.9
		c-4.1-6.1-8.8-7-11.3-7c-2.7,0-7.6,1-11.4,7.7c-0.5-0.2-1-0.4-1.4-0.5c-0.7-0.3-1.5-0.6-2.3-0.8c-0.1,0-0.3-0.1-0.4-0.1
		c0,0,0,0,0,0c1.1-4.5,0.4-8.8-2.1-11.9c-2.3-2.9-5.7-4.5-9.7-4.5c-1.6,0-3.2,0.2-4.8,0.7c-0.1,0-0.2,0-0.2,0.1
		c-0.2-0.3-0.4-0.8-0.8-1.5c-0.3-0.7-0.8-1.7-1-2.4c0,0,0,0,0,0c6.2-4.1,7-9.1,6.9-11.7c-0.1-2.6-1.2-7.5-7.7-11.2
		c0.2-0.5,0.4-1.1,0.6-1.6C8,28.8,8.3,28,8.6,27.2c0-0.1,0.1-0.2,0.1-0.3c0,0,0.1,0,0.2,0c1.4,0.3,2.7,0.5,4,0.5
		c4.1,0,7.8-1.7,10-4.8c2.5-3.3,3-7.7,1.6-12.4c0,0,0-0.1,0-0.1C25,9.7,26,9.3,26.4,9c0.8-0.4,1.4-0.6,1.8-0.8c0,0,0,0.1,0.1,0.1
		c3.9,5.9,8.7,6.8,11.3,6.8c2.7,0,7.7-1,11.6-7.4C51.2,7.8,51.3,7.7,51.3,7.6 M50.7,0.2c-2.3,0-4,1.5-5.5,4c-1.6,2.6-3.6,4-5.6,4
		c-1.9,0-3.8-1.2-5.4-3.7c-1.6-2.5-3.4-3.4-5.3-3.4c-1.7,0-3.4,0.7-5.3,1.6c-4.2,1.9-7.6,3.8-5.8,9.6c1.5,4.9-0.7,8.1-4.9,8.1
		c-0.7,0-1.5-0.1-2.3-0.3c-0.9-0.2-1.8-0.3-2.5-0.3c-3,0-4.9,1.8-6,5.2c-1.4,4.4-4.3,8.6,1.8,12c5.4,3,5.6,7.6,0.5,11
		c-5,3.3-3.4,7-1.6,11.2C4.1,62.6,5.8,65,9.1,65c0.8,0,1.8-0.2,2.8-0.5c1-0.3,1.9-0.4,2.8-0.4c4,0,6.1,3.1,5,7.7
		c-1.1,4.7,0.7,7.1,5,8.5c2.3,0.8,4.6,2,6.8,2c1.8,0,3.6-0.9,5.2-3.8c1.5-2.8,3.4-4.2,5.4-4.2c1.9,0,3.8,1.3,5.5,3.9
		c1.6,2.4,3.3,3.3,5.2,3.3c1.8,0,3.6-0.8,5.6-1.7c3.9-1.8,7.4-3.5,5.7-9.2c-1.6-5.2,0.5-8.2,5-8.2c0.8,0,1.6,0.1,2.5,0.3
		c0.8,0.2,1.5,0.2,2.1,0.2c3.3,0,5.2-1.9,6.3-5.5c1.3-4.2,4.1-8.3-1.6-11.7c-5.8-3.5-6-7.6-0.4-11.2c5.1-3.4,3.2-7.1,1.4-11.2
		c-1.4-3.1-3-5.8-6-5.8c-0.8,0-1.7,0.2-2.8,0.6c-1,0.4-1.9,0.6-2.8,0.6c-2.3,0-4-1.4-5.5-3.4c-1.5-2,0.8-4.1,0.3-6.1
		c0.7-6.8-4.9-6.5-8.7-8.3C52.6,0.5,51.6,0.2,50.7,0.2L50.7,0.2z"/>
</g>
<g>
	<path class="st0" d="M41.1,29.7c6.6,0.1,11.5,5,11.5,11.6c0,3.2-1.2,6.2-3.3,8.3c-2.2,2.2-5.1,3.3-8.3,3.3l-0.1,0
		c-6.5,0-11.4-5-11.5-11.5c-0.1-3.2,1.1-6.2,3.2-8.4c2.1-2.2,5.1-3.4,8.3-3.4C40.9,29.7,41,29.7,41.1,29.7 M40.9,22.7
		c-0.1,0-0.1,0-0.2,0C30.1,22.7,22.1,31,22.3,41.6c0.2,10.4,8.2,18.3,18.5,18.3h0.1c10.5,0,18.7-8.2,18.7-18.7
		C59.5,30.8,51.4,22.7,40.9,22.7L40.9,22.7z"/>
</g>
</svg>
