<?xml version="1.0" encoding="utf-8"?>
<svg viewBox="0 0 85 85" xmlns="http://www.w3.org/2000/svg">
  <defs>
    <style>.cls-1{fill:#fff;}.cls-2{fill:aqua;}.cls-3{fill:#01fffd;}</style>
  </defs>
  <path class="cls-2" d="M 1.97 15.95 C 1.981 8.333 8.153 2.161 15.77 2.15 L 23.95 2.15 C 14.218 6.61 6.41 14.417 1.95 24.15 Z"/>
  <path class="cls-2" d="M 16.34 4.15 C 11.476 7.458 7.279 11.655 3.97 16.52 L 3.97 15.95 C 3.976 9.435 9.256 4.155 15.77 4.15 L 16.34 4.15 M 42.34 0.15 L 15.77 0.15 C 7.044 0.15 -0.03 7.223 -0.03 15.95 L -0.03 42.53 C -0.03 19.12 18.951 0.144 42.36 0.15 Z"/>
  <path class="cls-2" d="M 82.75 24.05 C 78.288 14.373 70.519 6.607 60.84 2.15 L 68.95 2.15 C 76.567 2.161 82.739 8.333 82.75 15.95 Z"/>
  <path class="cls-2" d="M 68.95 4.15 C 75.465 4.155 80.745 9.435 80.75 15.95 L 80.75 16.46 C 77.444 11.626 73.266 7.452 68.43 4.15 L 68.94 4.15 M 68.94 0.15 L 42.36 0.15 C 65.772 0.138 84.756 19.118 84.75 42.53 L 84.75 15.95 C 84.75 7.223 77.677 0.15 68.95 0.15 Z"/>
  <path class="cls-2" d="M 60.84 82.88 C 70.515 78.427 78.284 70.668 82.75 61 L 82.75 69.12 C 82.723 76.723 76.554 82.874 68.95 82.88 Z"/>
  <path class="cls-2" d="M 80.75 68.6 L 80.75 69.12 C 80.723 75.619 75.45 80.874 68.95 80.88 L 68.43 80.88 C 73.264 77.586 77.441 73.422 80.75 68.6 M 84.75 42.53 C 84.739 65.93 65.761 84.891 42.36 84.88 L 68.95 84.88 C 77.675 84.885 84.75 77.814 84.75 69.09 L 84.75 42.53 Z"/>
  <path class="cls-2" d="M 15.77 82.88 C 8.155 82.874 1.981 76.705 1.97 69.09 L 1.97 61 C 6.443 70.667 14.214 78.425 23.89 82.88 Z"/>
  <path class="cls-2" d="M 3.97 68.59 C 7.281 73.413 11.458 77.581 16.29 80.88 L 15.77 80.88 C 9.26 80.874 3.981 75.6 3.97 69.09 L 3.97 68.56 M -0.03 42.5 L -0.03 69.09 C -0.024 77.812 7.048 84.88 15.77 84.88 L 42.36 84.88 C 18.965 84.88 -0.007 65.925 -0.03 42.53 Z"/>
  <path class="cls-2" d="M 42.36 4.15 C 71.905 4.157 90.363 36.145 75.584 61.728 C 60.804 87.311 23.873 87.301 9.107 61.711 C 5.742 55.878 3.97 49.263 3.97 42.53 C 3.831 21.271 21.102 4.004 42.36 4.15 M 42.36 0.15 C 9.744 0.18 -10.608 35.508 5.727 63.739 C 22.061 91.97 62.832 91.932 79.114 63.67 C 88.679 47.066 85.91 26.109 72.36 12.56 C 64.404 4.605 53.611 0.14 42.36 0.15 Z"/>
  <path class="cls-3" d="M 42.36 4.15 C 71.905 4.157 90.363 36.145 75.584 61.728 C 60.804 87.311 23.873 87.301 9.107 61.711 C 5.742 55.878 3.97 49.263 3.97 42.53 C 3.831 21.271 21.102 4.004 42.36 4.15 M 42.36 0.15 C 9.744 0.18 -10.608 35.508 5.727 63.739 C 22.061 91.97 62.832 91.932 79.114 63.67 C 88.679 47.066 85.91 26.109 72.36 12.56 C 64.404 4.605 53.611 0.14 42.36 0.15 Z"/>
</svg>