<svg id="Layer_1" data-name="Layer 1" xmlns="http://www.w3.org/2000/svg" viewBox="0 0 100 100">
  <defs>
    <style>
      .cls-1 {
        fill: #ffff2d;
      }
    </style>
  </defs>
  <title>yellowgear</title>
  <g>
    <path class="cls-1" d="M14.51,24.75c7.53.4,9.59-1.6,8.14-9-1.24-6.25,1.85-9.12,6.9-11.47s9.18-2.69,13.11,2.37c4.44,5.74,8.24,5.72,12.25-.47,4.55-7,9.78-4.19,15.22-2.31s6,6,5.1,11.05,2.93,9.1,8.12,7.61c6.39-1.83,9.65.48,12.18,6.09s2.91,9.93-2.78,14.05c-5.22,3.78-5,7.7.65,11.31,6.18,3.94,5,8.44,3,14s-5,7.4-10.78,6.85c-7.57-.74-9.56,1.37-8.11,9,1.22,6.44-2.16,9-7.09,11.29-5.17,2.42-9.2,2.38-13-2.62C53.06,86.88,49.59,87,45.81,93s-8.12,5-13.42,3c-5.09-1.84-8.06-4.39-7.33-10.45C26,78,23.94,76,16.43,77.17c-6.09,1-9.28-1.5-11.57-6.76S2.24,60.8,7.65,56.83s4.84-7.43-.42-11.47c-6.08-4.68-6-14.95.1-19.55C9.57,24.11,12.05,24.65,14.51,24.75ZM30.19,84.62c-1.09,3.45.12,5.62,4.1,7.16,4.13,1.59,6.11.53,8.59-3,4.83-6.77,11.78-6.89,17.35-.56,2.43,2.76,4.25,4.62,8.26,2.57,3.49-1.79,4.61-3.63,4-7.72C71.25,74,75.76,69.31,85,69.87c3.5.21,5.83,0,7.17-3.9s1.31-6.09-2.48-8.77c-7.12-5-7.25-12.16-.62-17.72,3-2.52,4-4.48,2.35-8.35s-3.83-4.36-7.71-3.68c-7.84,1.37-14.7-4.88-13.56-12C70.64,12.28,72,9.48,67.4,8c-3.75-1.18-6.35-2.35-9.39,2-5.08,7.34-12.58,7.4-18.3.69C37.38,8,35.57,6.66,31.93,8.47c-3.41,1.7-5,3.39-4.33,7.61,1.5,9.18-3,14.14-12,13.6-3.71-.22-6.19,0-7.59,4.19-1.28,3.84-.54,5.87,2.71,8.28,7.06,5.23,7.3,12,.7,17.77-2.94,2.55-4,4.63-2.33,8.4s4.13,4.27,7.92,3.84C26.07,71.15,30.48,75.42,30.19,84.62Z"/>
    <path class="cls-1" d="M28.37,49.56A21.45,21.45,0,0,1,50,27.71a22,22,0,1,1,.41,44C38,71.85,28.34,62.13,28.37,49.56Zm21.8-17.1A16.9,16.9,0,0,0,33.06,49.4,17.17,17.17,0,1,0,50.17,32.46Z"/>
  </g>
</svg>
