<?xml version="1.0" encoding="utf-8"?>
<!-- Generator: Adobe Illustrator 21.0.2, SVG Export Plug-In . SVG Version: 6.00 Build 0)  -->
<svg version="1.1" id="Layer_1" xmlns="http://www.w3.org/2000/svg" xmlns:xlink="http://www.w3.org/1999/xlink" x="0px" y="0px"
	 viewBox="0 0 60 125" style="enable-background:new 0 0 60 125;" xml:space="preserve">
<style type="text/css">
	.st0{fill:#01FFFD;}
	.st1{fill:#00FFFF;}
	.st2{fill:#01FFFD;fill-opacity:0;}
</style>
<path class="st0" d="M60,125H0V0h60V125z M58.1,1.9H1.8v121.3h56.3V1.9z"/>
<path class="st1" d="M46.7,52.4v25.4c0,2.1-1.7,3.9-3.9,3.9H17.4c-2.1,0-3.9-1.7-3.9-3.9V65.2h1.9v12.6c0,1.1,0.9,2,2,2h25.4
	c1.1,0,2-0.9,2-2V52.4c0-1.1-0.9-2-2-2H16.6l9.4,9.4l-1.3,1.4L12.9,49.5l11.7-11.7l1.3,1.4l-9.4,9.4h26.2
	C44.9,48.5,46.7,50.3,46.7,52.4z"/>
<rect id="bg" class="st2" width="60" height="125"/>
</svg>
