<?xml version="1.0" encoding="utf-8"?>
<!-- Generator: Adobe Illustrator 21.0.2, SVG Export Plug-In . SVG Version: 6.00 Build 0)  -->
<svg version="1.1" id="Layer_1" xmlns="http://www.w3.org/2000/svg" xmlns:xlink="http://www.w3.org/1999/xlink" x="0px" y="0px"
	 viewBox="0 0 60 320" style="enable-background:new 0 0 60 320;" xml:space="preserve">
<style type="text/css">
	.st0{fill:#FF007C;}
	.st1{fill:#FF007C;fill-opacity:0;}
</style>
<path class="st0" d="M60,320H0V0h60V320z M58.1,1.9H1.9v316.3h56.3V1.9H58.1z"/>
<path id="trash" class="st0" d="M35.8,142.2v-3.4H24.5v3.4H11.7v9.9h3v29h30.5v-29h3v-9.9H35.8z M26.4,140.6H34v1.6h-7.6V140.6z
	 M43.4,179.4H16.6v-27.2h26.8V179.4z M46.4,150.3H13.6v-6.2h32.8V150.3z"/>
<rect x="22.4" y="155.9" class="st0" width="1.9" height="19"/>
<rect x="29" y="155.9" class="st0" width="1.9" height="19"/>
<rect x="35.9" y="155.9" class="st0" width="1.9" height="19"/>
<rect id="bg" class="st1" width="60" height="320"/>
</svg>
