<?xml version="1.0" encoding="utf-8"?>
<!-- Generator: Adobe Illustrator 21.0.2, SVG Export Plug-In . SVG Version: 6.00 Build 0)  -->
<svg version="1.1" id="Layer_1" xmlns="http://www.w3.org/2000/svg" xmlns:xlink="http://www.w3.org/1999/xlink" x="0px" y="0px"
	 viewBox="0 0 60 60" style="enable-background:new 0 0 60 60;" xml:space="preserve">
<style type="text/css">
	.st0{fill:#00FFFF;}
	.st1{fill:#00FFFF;fill-opacity:0;}
</style>
<path class="st0" d="M51.2,25.9c-2.4-1.4-2.5-3.1-0.2-4.6c2.1-1.4,1.3-2.9,0.6-4.6c-0.7-1.6-1.6-3-3.6-2.1c-1.6,0.6-2.6,0-3.4-1.2
	c-0.6-0.8,0.4-1.7,0.1-2.5c0.3-2.8-2-2.7-3.6-3.4s-2.6,0-3.5,1.3C36.2,11,34.4,11.1,33,9c-1.3-1.9-2.7-1.5-4.4-0.7
	c-1.7,0.8-3.1,1.6-2.4,3.9c0.7,2.4-0.6,3.8-3,3.2c-1.9-0.5-2.9,0.2-3.5,2c-0.6,1.8-1.8,3.5,0.7,4.9h-2.7c-5.2,0-9.4,4.3-9.4,9.5
	v11.4c0,5.2,4.2,9.5,9.4,9.5h11.4c5.2,0,9.4-4.3,9.4-9.5v-3.9c1.3,2,2.8,1.4,4.4,0.6c1.6-0.7,3-1.5,2.3-3.8
	c-0.8-2.5,0.5-3.8,3.1-3.3c1.9,0.4,2.9-0.4,3.5-2.2C52.3,29,53.5,27.3,51.2,25.9z M36.7,43.3c0,4.2-3.4,7.7-7.6,7.7H17.7
	c-4.2,0-7.6-3.4-7.6-7.7V31.8c0-4.2,3.4-7.7,7.6-7.7h4.4c0.3,0.9-0.2,1.9-1.5,2.7c-2.1,1.4-1.4,2.9-0.6,4.6c0.8,1.8,1.7,2.8,3.9,2.2
	c2.3-0.7,3.8,0.7,3.2,3c-0.5,1.9,0.3,2.9,2.1,3.5c1.8,0.6,3.5,1.8,4.9-0.7c0.7-1.4,1.7-1.9,2.7-1.7v5.6H36.7z M50.2,29.7
	c-0.2,0.8-0.4,1.5-1.8,1.3c-3.6-0.7-5.8,1.7-5.1,5.2c0.3,1.5-0.5,1.7-1.4,2.2c-1.1,0.7-1.6,0.2-2.3-0.7c-0.3-0.4-0.7-0.8-1.1-1.1
	c-0.5-0.4-1.2-0.6-1.8-0.7c-1.5-0.2-3,0.5-3.8,1.9c-0.6,0.9-1,1.7-2.3,1.1c-1.3-0.5-2.1-1-1.5-2.3c0.2-3.4-2.2-5.5-5.3-4.7
	c-1.3,0.4-1.7-0.1-2.1-1.1c-0.5-1-0.8-1.7,0.5-2.6c1.5-1,2.1-2.5,1.9-3.9c-0.1-0.6-0.4-1.3-0.8-1.8s-0.9-1-1.5-1.4
	c-0.8-0.5-1.2-0.9-0.7-1.9c0.5-0.8,0.3-2,1.9-1.8c3.9,0.4,5.9-1.7,5-5.4c-0.3-1.1,0.2-1.5,1-1.7c0.8-0.3,1.5-1.2,2.5,0
	c2.6,3.2,5.1,3,7.7-0.4c0.9-1.1,1.6-0.2,2.3-0.1c0.7,0.2,1.5,0.4,1.3,1.6c-0.5,4,1.5,6,5.4,5.2c1.3-0.3,1.4,0.4,1.7,1.1
	c0.4,0.8,1,1.5-0.2,2.5c-3,2.4-2.9,5.4,0.2,7.4C51.2,28.2,50.5,28.9,50.2,29.7z"/>
<path class="st0" d="M35.7,16.5c-3.7,0-6.7,2.5-7.4,5.9c-0.1,0.6-0.2,1.2-0.2,1.8l0,0c0.1,4.3,3.4,7.6,7.6,7.6c0.3,0,0.7,0,1-0.1
	c0.6-0.1,1.2-0.2,1.8-0.4c2.9-1.1,4.9-3.9,4.9-7.2C43.4,19.8,40.1,16.4,35.7,16.5z M35.6,29.9c-3.1-0.1-5.5-2.5-5.6-5.7
	c3.1,0.4,5.7,2.6,6.5,5.6C36.2,29.9,35.9,29.9,35.6,29.9z M38.2,29.4c-1-3.7-4.1-6.5-8-7c0.7-2.5,2.9-4.2,5.7-4.1
	c3.2,0.1,5.6,2.6,5.6,5.9C41.5,26.6,40.2,28.5,38.2,29.4z"/>
<path class="st0" d="M60,60H0V0h60V60z M58.1,1.9H1.9v56.3h56.3V1.9H58.1z"/>
<rect id="bg" class="st1" width="60" height="60"/>
</svg>
