<?xml version="1.0" encoding="utf-8"?>
<!-- Generator: Adobe Illustrator 21.0.2, SVG Export Plug-In . SVG Version: 6.00 Build 0)  -->
<svg version="1.1" id="Layer_1" xmlns="http://www.w3.org/2000/svg" xmlns:xlink="http://www.w3.org/1999/xlink" x="0px" y="0px"
	 viewBox="0 0 60 60" style="enable-background:new 0 0 60 60;" xml:space="preserve">
<style type="text/css">
	.st0{fill:#00FF00;}
	.st1{fill:#00FF00;fill-opacity:0;}
</style>
<path class="st0" d="M35.9,15.3c-2.1,0-3.9,1.7-3.9,3.9c0,1,0.4,2,1.1,2.7l0,0c0.7,0.7,1.6,1.1,2.7,1.1h0.1l0,0
	c2.1,0,3.7-1.8,3.7-3.8C39.8,17.1,38,15.3,35.9,15.3z M35.9,21.1c-1,0-1.9-0.9-1.9-1.9c0-1.1,0.9-1.9,1.9-1.9c1.1,0,1.9,0.9,1.9,1.9
	C37.8,20.3,37,21.1,35.9,21.1z"/>
<path class="st0" d="M60,60H0V0h60V60z M58.1,1.9H1.9v56.3h56.3V1.9H58.1z"/>
<path class="st0" d="M19.7,10v11.7c-5.2,0-9.4,4.2-9.4,9.5v11.4c0,5.2,4.2,9.5,9.4,9.5h11.4c5,0,9-3.9,9.4-8.8l8.9-3.3
	c1.6-0.6,2.7-1.9,2.7-3.5V10H19.7z M31.1,50.3H19.7c-4.2,0-7.6-3.4-7.6-7.7V31.2c0-4.2,3.4-7.7,7.6-7.7V37c0,1.3,0.8,2.4,2.2,2.9
	l11.7,4.4c0.7,0.2,1.4,0.4,2.2,0.4c0.7,0,1.5-0.2,2.2-0.4l0.7-0.3C38,47.6,34.9,50.3,31.1,50.3z M50.1,36.6c0,0.7-0.5,1.3-1.4,1.6
	l-8.2,3l-1.8,0.7l-1.5,0.6c-1,0.3-2.1,0.3-3,0L22.6,38c-0.5-0.2-0.9-0.6-0.9-1V21.8c0.1,0,0.1,0.1,0.2,0.1l4.1,1.5l7.6,2.8
	c0.7,0.2,1.4,0.4,2.2,0.4c0.5,0,1,0,1.5-0.2c0.2-0.1,0.5-0.1,0.7-0.2l1.1-0.4L49.5,22c0.2-0.1,0.5-0.2,0.7-0.3v14.9H50.1z
	 M50.2,18.7c0,0.1,0,0.2,0,0.2c-0.1,0.6-0.6,1.1-1.4,1.4l-11.1,4.1l-0.4,0.2c-0.6,0.2-1.3,0.3-2,0.2c-0.4,0-0.7-0.1-1-0.2l-2.6-1
	l-4.9-1.8l-4.2-1.6c-0.6-0.2-0.9-0.6-0.9-1V12h28.5C50.2,12,50.2,18.7,50.2,18.7z"/>
<rect id="bg" class="st1" width="60" height="60"/>
</svg>
