<?xml version="1.0" encoding="utf-8"?>
<!-- Generator: Adobe Illustrator 21.0.2, SVG Export Plug-In . SVG Version: 6.00 Build 0)  -->
<svg version="1.1" id="Layer_1" xmlns="http://www.w3.org/2000/svg" xmlns:xlink="http://www.w3.org/1999/xlink" x="0px" y="0px"
	 viewBox="0 0 60 125" style="enable-background:new 0 0 60 125;" xml:space="preserve">
<style type="text/css">
	.st0{fill:#00FFFF;}
	.st1{fill:#01FFFD;}
	.st2{fill:#01FFFD;fill-opacity:0;}
</style>
<path class="st0" d="M47.4,48.7H12.5V10.8h34.9V48.7z M14.4,46.9h31.2V12.6H14.4V46.9z"/>
<rect x="19.9" y="17.2" class="st0" width="20.1" height="1.8"/>
<rect x="19.9" y="35.4" class="st0" width="20.1" height="1.8"/>
<rect x="19.9" y="23.2" class="st0" width="20.1" height="1.8"/>
<rect x="19.9" y="28.8" class="st0" width="20.1" height="1.8"/>
<rect x="19.9" y="41.5" class="st0" width="20.1" height="1.8"/>
<path id="test" class="st0" d="M43.4,90.8c-2.3,0-4.4,0.9-6,2.3l-6.7-6c1.1-1.5,1.7-3.3,1.7-5.2c0-4.9-4-8.9-8.9-8.9s-9,4-9,8.9
	c0,4.2,3,7.8,7,8.7l-0.3,8.3c-4.8,0.1-8.8,4-8.8,8.9s4,8.9,8.9,8.9s9-4,9-8.9c0-4.3-3.1-7.9-7.3-8.7l0.3-8.2h0.1
	c2.3,0,4.4-0.9,6-2.3l6.7,6.1c-1.1,1.5-1.7,3.3-1.7,5.2c0,4.9,4,8.9,8.9,8.9s8.9-4,8.9-8.9C52.3,94.8,48.3,90.8,43.4,90.8z
	 M28.6,107.6c0,3.9-3.2,7-7.1,7s-7.1-3.2-7.1-7s3.2-7,7.1-7S28.6,103.8,28.6,107.6z M23.5,88.9c-3.9,0-7.1-3.2-7.1-7
	c0-3.9,3.2-7,7.1-7s7.1,3.2,7.1,7C30.6,85.7,27.4,88.9,23.5,88.9z M43.4,106.7c-3.9,0-7.1-3.2-7.1-7s3.2-7,7.1-7s7.1,3.2,7.1,7
	S47.3,106.7,43.4,106.7z"/>
<path class="st0" d="M1.9,63.5L1.9,63.5h56.3l0,0H1.9z"/>
<path class="st1" d="M0,0v125h60V63.5l0,0V0H0z M1.9,1.8h56.3v59.8H1.9V1.8z M58.1,123.2H1.9V63.5h56.3v59.7H58.1z"/>
<rect id="bg0" class="st2" width="60" height="62.5"/>
<rect id="bg1" x="1.9" y="62.5" class="st2" width="56.3" height="60.7"/>
</svg>
