<?xml version="1.0" encoding="utf-8"?>
<!-- Generator: Adobe Illustrator 21.0.2, SVG Export Plug-In . SVG Version: 6.00 Build 0)  -->
<svg version="1.1" id="Layer_1" xmlns="http://www.w3.org/2000/svg" xmlns:xlink="http://www.w3.org/1999/xlink" x="0px" y="0px"
	 viewBox="0 0 60 60" style="enable-background:new 0 0 60 60;" xml:space="preserve">
<style type="text/css">
	.st0{fill:#01FFFD;}
	.st1{fill:#01FFFD;fill-opacity:0;}
</style>
<path class="st0" d="M60,60H0V0h60V60z M58.1,1.9H1.8v56.3h56.3V1.9z"/>
<g>
	<path class="st0" d="M35.2,12.6c0.1,0,0.3,0,0.6,0.2c0.5,0.2,1,0.4,1.5,0.5c1.6,0.5,1.6,0.6,1.5,1.4v0.4l0.1,0.2
		c0,0.1-0.1,0.2-0.1,0.3c-0.2,0.7-0.7,2,0.3,3.4c1.2,1.6,2.6,2.4,4.1,2.4c0.7,0,1.3-0.1,2-0.4c0.3-0.1,0.5-0.2,0.6-0.2
		c0.2,0,0.6,0.5,1.1,1.6l0.1,0.2c0.9,2,0.8,2.1-0.1,2.6c-2.3,1.5-2.8,3.2-2.7,4.3c0,1.1,0.6,2.8,3,4.2c0.8,0.5,0.9,0.5,0.3,2.2
		c-0.1,0.3-0.3,0.7-0.4,1.1c-0.4,1.2-0.8,1.2-1.2,1.2c-0.2,0-0.4,0-0.6-0.1c-0.5-0.1-1-0.2-1.5-0.2c-1.6,0-2.9,0.6-3.7,1.7
		c-0.6,0.8-1.2,2.3-0.5,4.7c0.3,1,0.3,1.1-1.7,2c-0.5,0.2-1.3,0.6-1.8,0.6c-0.1,0-0.4,0-0.9-0.7c-1.5-2.2-3.1-2.7-4.2-2.7l0,0
		c-1,0-2.8,0.4-4.2,3c-0.4,0.8-0.7,0.8-0.8,0.8c-0.4,0-1-0.2-1.6-0.5c-0.3-0.1-0.7-0.3-1-0.4c-1.3-0.4-1.3-0.7-1.1-1.7
		c0.4-1.7,0.2-3.3-0.7-4.4c-0.8-1-2-1.6-3.5-1.6c-0.6,0-1.2,0.1-1.9,0.3c-0.3,0.1-0.6,0.1-0.8,0.1c-0.3,0-0.6,0-1.4-1.6
		c-1-2.2-0.8-2.3,0.1-2.9c2.4-1.6,2.6-3.4,2.6-4.3s-0.5-2.7-2.9-4.1c-0.9-0.5-1-0.6-0.3-2.4c0.1-0.3,0.2-0.6,0.4-1
		c0.4-1.2,0.7-1.2,1-1.2c0.2,0,0.5,0,0.7,0.1c0.5,0.1,1,0.2,1.5,0.2c1.5,0,2.8-0.6,3.6-1.7c0.9-1.2,1.1-2.8,0.5-4.6
		c-0.3-1.1-0.4-1.2,1.7-2.2c0.6-0.3,1.3-0.6,1.7-0.6c0.1,0,0.4,0,0.9,0.8c1.1,1.7,2.6,2.6,4.1,2.6c1.7,0,3.2-1,4.3-2.8
		C34.5,13.2,34.9,12.6,35.2,12.6 M35.2,10.7c-1.1,0-1.9,0.7-2.6,1.9c-0.8,1.2-1.7,1.9-2.7,1.9c-0.9,0-1.8-0.6-2.6-1.7
		c-0.8-1.2-1.6-1.6-2.5-1.6c-0.8,0-1.6,0.3-2.5,0.7c-2,0.9-3.6,1.8-2.7,4.5c0.7,2.3-0.3,3.8-2.3,3.8c-0.3,0-0.7,0-1.1-0.1
		s-0.8-0.2-1.2-0.2c-1.4,0-2.3,0.8-2.8,2.5c-0.7,2-2,4,0.8,5.7c2.6,1.4,2.6,3.6,0.2,5.2c-2.4,1.6-1.6,3.3-0.7,5.3
		c0.7,1.6,1.5,2.7,3.1,2.7c0.4,0,0.8-0.1,1.3-0.2c0.5-0.1,0.9-0.2,1.3-0.2c1.9,0,2.9,1.5,2.3,3.6c-0.5,2.2,0.3,3.3,2.3,4
		c1.1,0.4,2.2,0.9,3.2,0.9c0.9,0,1.7-0.4,2.4-1.8c0.7-1.3,1.6-2,2.5-2s1.8,0.6,2.6,1.8c0.8,1.1,1.6,1.5,2.4,1.5
		c0.8,0,1.7-0.4,2.6-0.8c1.8-0.9,3.5-1.7,2.7-4.3c-0.7-2.4,0.2-3.9,2.4-3.9c0.4,0,0.7,0,1.2,0.1c0.4,0.1,0.7,0.1,1,0.1
		c1.5,0,2.5-0.9,3-2.6c0.6-2,1.9-3.9-0.7-5.5c-2.7-1.6-2.8-3.6-0.2-5.3c2.4-1.6,1.5-3.3,0.6-5.2c-0.7-1.5-1.4-2.7-2.8-2.7
		c-0.4,0-0.8,0.1-1.3,0.3c-0.5,0.2-0.9,0.3-1.3,0.3c-1.1,0-1.9-0.7-2.6-1.6c-0.7-1,0.4-1.9,0.1-2.9c0.3-3.2-2.3-3.1-4.1-3.9
		C36.1,10.8,35.6,10.7,35.2,10.7L35.2,10.7z"/>
	<path class="st0" d="M30.6,23.1c3.9,0,6.9,2.9,6.9,6.8c0,1.9-0.7,3.6-2,4.9c-1.3,1.3-3,2-4.9,2c-3.8,0-6.8-2.9-6.8-6.8
		c0-1.9,0.6-3.6,1.9-4.9C26.9,23.9,28.6,23.2,30.6,23.1L30.6,23.1 M30.6,21.2C30.6,21.2,30.5,21.2,30.6,21.2c-5.1,0-8.9,3.9-8.8,8.9
		c0.1,4.9,3.9,8.6,8.7,8.6l0,0c4.9,0,8.8-3.8,8.8-8.8C39.4,25.1,35.5,21.2,30.6,21.2L30.6,21.2z"/>
</g>
<rect id="bg" class="st1" width="60" height="60"/>
</svg>
