<svg xmlns="http://www.w3.org/2000/svg" viewBox="0 0 130.56 116.52">
  <defs>
    <style>
      .cls-1, .cls-3 {
        fill: #ff0;
      }

      .cls-1, .cls-2 {
        opacity: 0.25;
      }
    </style>
  </defs>
  <title>warningAsset 4</title>
  <g id="Layer_2" data-name="Layer 2">
    <g id="ui">
      <g>
        <path class="cls-1" d="M59.63,9.78,7.42,100.22A6.52,6.52,0,0,0,13.06,110H117.49a6.52,6.52,0,0,0,5.65-9.78L70.93,9.78A6.52,6.52,0,0,0,59.63,9.78Z"/>
        <g class="cls-2">
          <path class="cls-3" d="M65.28,13l52.21,90.44H13.06L65.25,13.05h0m0-6.52a6.46,6.46,0,0,0-5.65,3.26L7.42,100.22A6.52,6.52,0,0,0,13.06,110H117.49a6.52,6.52,0,0,0,5.65-9.78L70.93,9.78a6.48,6.48,0,0,0-5.65-3.26Z"/>
        </g>
      </g>
      <path class="cls-3" d="M65.28,6.52a6.48,6.48,0,0,1,5.65,3.26l52.21,90.44a6.52,6.52,0,0,1-5.65,9.78H13.06a6.52,6.52,0,0,1-5.64-9.78L59.63,9.78a6.46,6.46,0,0,1,5.65-3.26m0-6.52A12.92,12.92,0,0,0,54,6.52L1.77,97a13,13,0,0,0,11.29,19.56H117.49A13,13,0,0,0,128.79,97L76.57,6.52A12.9,12.9,0,0,0,65.28,0Z"/>
      <path class="cls-3" d="M81.94,65.19l-1.16-2.76s2.7-6.09,2.46-6.32l-3.57-3.49c-.25-.24-6.34,2.54-6.34,2.54L70.52,54S68,47.85,67.69,47.85h-5C62.3,47.85,60,54,60,54l-2.8,1.13s-6.22-2.64-6.46-2.4l-3.57,3.49c-.25.24,2.59,6.21,2.59,6.21L48.6,65.22S42.3,67.65,42.3,68v4.94c0,.35,6.32,2.6,6.32,2.6l1.16,2.75s-2.7,6.08-2.47,6.32l3.58,3.49c.24.24,6.33-2.54,6.33-2.54L60,86.68s2.48,6.17,2.82,6.17h5c.35,0,2.65-6.19,2.65-6.19l2.81-1.14s6.21,2.65,6.45,2.42l3.57-3.5c.25-.24-2.6-6.21-2.6-6.21L82,75.48s6.31-2.43,6.31-2.77V67.77C88.26,67.43,81.94,65.19,81.94,65.19Zm-7.46,5.15a9.2,9.2,0,1,1-9.2-9A9.12,9.12,0,0,1,74.48,70.34Z"/>
    </g>
  </g>
</svg>
