<svg xmlns="http://www.w3.org/2000/svg" viewBox="0 0 130.56 116.52">
  <defs>
    <style>
      .cls-1, .cls-3 {
        fill: #ff0;
      }

      .cls-1, .cls-2 {
        opacity: 0.25;
      }
    </style>
  </defs>
  <title>warningAsset 5</title>
  <g id="Layer_2" data-name="Layer 2">
    <g id="ui">
      <g>
        <path class="cls-1" d="M59.63,9.78,7.42,100.22A6.52,6.52,0,0,0,13.06,110H117.49a6.52,6.52,0,0,0,5.65-9.78L70.93,9.78A6.52,6.52,0,0,0,59.63,9.78Z"/>
        <g class="cls-2">
          <path class="cls-3" d="M65.28,13l52.21,90.44H13.06L65.25,13.05h0m0-6.52a6.46,6.46,0,0,0-5.65,3.26L7.42,100.22A6.52,6.52,0,0,0,13.06,110H117.49a6.52,6.52,0,0,0,5.65-9.78L70.93,9.78a6.48,6.48,0,0,0-5.65-3.26Z"/>
        </g>
      </g>
      <path class="cls-3" d="M65.28,6.52a6.48,6.48,0,0,1,5.65,3.26l52.21,90.44a6.52,6.52,0,0,1-5.65,9.78H13.06a6.52,6.52,0,0,1-5.64-9.78L59.63,9.78a6.46,6.46,0,0,1,5.65-3.26m0-6.52A12.92,12.92,0,0,0,54,6.52L1.77,97a13,13,0,0,0,11.29,19.56H117.49A13,13,0,0,0,128.79,97L76.57,6.52A12.9,12.9,0,0,0,65.28,0Z"/>
      <g>
        <circle class="cls-3" cx="65.28" cy="49.27" r="7.42"/>
        <circle class="cls-3" cx="85.58" cy="84.43" r="7.42"/>
        <circle class="cls-3" cx="44.98" cy="84.43" r="7.42"/>
        <circle class="cls-3" cx="65.28" cy="72.71" r="6.18"/>
        <g>
          <path class="cls-3" d="M65.19,82.39a9.71,9.71,0,0,1-5.11-1.45,1,1,0,1,1,1.09-1.75,7.66,7.66,0,0,0,8,0,1,1,0,1,1,1.09,1.75A9.68,9.68,0,0,1,65.19,82.39Z"/>
          <path class="cls-3" d="M56.54,73.94a1,1,0,0,1-1-1v-.22a9.68,9.68,0,0,1,5.07-8.52,1,1,0,0,1,1,1.81,7.64,7.64,0,0,0-4,6.71v.17a1,1,0,0,1-1,1.06Z"/>
          <path class="cls-3" d="M73.84,74h0a1,1,0,0,1-1-1.06,1.93,1.93,0,0,0,0-.24,7.64,7.64,0,0,0-4-6.71,1,1,0,0,1-.42-1.39,1,1,0,0,1,1.4-.42,9.68,9.68,0,0,1,5.07,8.52c0,.1,0,.21,0,.31A1,1,0,0,1,73.84,74Z"/>
          <rect class="cls-3" x="64.16" y="49.48" width="2.06" height="23.23"/>
          <rect class="cls-3" x="74.21" y="66.94" width="2.06" height="23.25" transform="translate(-30.55 103.95) rotate(-59.73)"/>
          <rect class="cls-3" x="43.12" y="77.54" width="23.63" height="2.06" transform="translate(-31.74 37.6) rotate(-29.74)"/>
        </g>
      </g>
    </g>
  </g>
</svg>
