<svg xmlns="http://www.w3.org/2000/svg" viewBox="0 0 130.56 116.52">
  <defs>
    <style>
      .cls-1, .cls-3 {
        fill: #ff0;
      }

      .cls-1, .cls-2 {
        opacity: 0.25;
      }
    </style>
  </defs>
  <title>warningAsset 7</title>
  <g id="Layer_2" data-name="Layer 2">
    <g id="ui">
      <g>
        <path class="cls-1" d="M59.63,9.78,7.42,100.22A6.52,6.52,0,0,0,13.06,110H117.49a6.52,6.52,0,0,0,5.65-9.78L70.93,9.78A6.52,6.52,0,0,0,59.63,9.78Z"/>
        <g class="cls-2">
          <path class="cls-3" d="M65.28,13l52.21,90.44H13.06L65.25,13.05h0m0-6.52a6.46,6.46,0,0,0-5.65,3.26L7.42,100.22A6.52,6.52,0,0,0,13.06,110H117.49a6.52,6.52,0,0,0,5.65-9.78L70.93,9.78a6.48,6.48,0,0,0-5.65-3.26Z"/>
        </g>
      </g>
      <path class="cls-3" d="M65.28,6.52a6.48,6.48,0,0,1,5.65,3.26l52.21,90.44a6.52,6.52,0,0,1-5.65,9.78H13.06a6.52,6.52,0,0,1-5.64-9.78L59.63,9.78a6.46,6.46,0,0,1,5.65-3.26m0-6.52A12.92,12.92,0,0,0,54,6.52L1.77,97a13,13,0,0,0,11.29,19.56H117.49A13,13,0,0,0,128.79,97L76.57,6.52A12.9,12.9,0,0,0,65.28,0Z"/>
      <path class="cls-3" d="M64.16,41.85c7.76,7,12.71,12.76,15.66,18.13a33,33,0,0,1,4.11,16.94c0,7.09-5.36,13-11.63,14.93a17.26,17.26,0,0,0,4.63-11.07c.07-4.86-2.28-10.46-8.79-16.87a.78.78,0,0,0-1.1,0,.79.79,0,0,0-.21.67c.77,5-.17,8.3-1.26,10.37a7.61,7.61,0,0,1-2,2.57c-.15-.08-.31-.18-.6-.37A41.76,41.76,0,0,1,58.77,74a.78.78,0,0,0-1.09.11.86.86,0,0,0-.1.16C56.43,76.53,55,79,54.89,82.12c-.09,2.58.85,5.6,3.37,9.22a24.41,24.41,0,0,1-7.33-4.66,13.24,13.24,0,0,1-4.3-9.61c0-8.51,3.27-11.72,7.26-15.9A35.31,35.31,0,0,0,64.16,41.85Z"/>
    </g>
  </g>
</svg>
