<?xml version="1.0" encoding="UTF-8"?>
<svg id="a" xmlns="http://www.w3.org/2000/svg" viewBox="0 0 57.27 57.23">
    <defs>
        <style>
            .cls-1 {
            opacity: 1;
            }
            .cls-2 {
            fill: #ffffff;
            }
        </style>
    </defs>
<path 
class="cls-1" 
d="M28.64,1.62h0c14.91,0,27,12.09,27,27h0c0,14.91-12.09,27-27,27h0C13.72,55.61,1.64,43.53,1.64,28.61h0C1.64,13.7,13.72,1.62,28.64,1.62Z"/>
<path class="cls-2" 
 d="M28.7,43.76l.99-1.61c.06-.09,.09-.19,.08-.29v-6.3c0-.25,.15-.45,.34-.45h8.77c.19,0,.34-.21,.34-.46v-2.12c0-.1-.06-.54-.08-.71-.06-.36-.19-.71-.38-1.02-.32-.63-3.16-3.4-3.16-3.4-.03-.06-.06-.14-.06-.22l-.63-8.35c0-.27,.14-.5,.33-.5h2.07c.19,0,.34-.2,.34-.45v-3.97c0-.25-.15-.46-.34-.46H19.94c-.19,0-.34,.21-.34,.46v3.99c0,.25,.15,.45,.34,.45h2.1c.2,0,.36,.24,.34,.5l-.61,8.36c0,.07-.02,.15-.06,.22,0,0-2.87,2.78-3.2,3.4-.19,.32-.32,.66-.38,1.02-.03,.18-.09,.63-.09,.71v2.12c0,.25,.16,.46,.35,.46h8.87c.19,0,.34,.2,.34,.45v6.3c0,.11,.03,.2,.08,.29l1,1.61"/>
</svg>
