<svg id="Layer_1" data-name="Layer 1" xmlns="http://www.w3.org/2000/svg" viewBox="0 0 57.27 57.23">
  <defs>
    <style>
      .cls-1 {
        fill: none;
        stroke: #000;
        stroke-miterlimit: 10;
        stroke-width: 2px;
      }
    </style>
  </defs>
  <path class="cls-1" d="M28.73,54.12l1.56-2.54a.8.8,0,0,0,.13-.46V42.18c0-.4.24-.72.54-.72H44.81c.3,0,.54-.33.54-.73V37.39c0-.15-.09-.84-.13-1.12a4.54,4.54,0,0,0-.6-1.61c-.5-1-5-5.37-5-5.37a.78.78,0,0,1-.09-.34l-1-13.18c0-.42.22-.79.53-.79h3.27c.3,0,.54-.32.54-.72V8c0-.4-.24-.73-.54-.73H14.9c-.3,0-.54.33-.54.73v6.3c0,.4.24.72.54.72h3.32c.32,0,.57.37.54.79L17.8,29a1,1,0,0,1-.09.34s-4.54,4.38-5.05,5.37a4.54,4.54,0,0,0-.6,1.61c-.05.28-.14,1-.14,1.12v3.34c0,.4.25.73.55.73h14c.3,0,.54.32.54.72v8.94a.88.88,0,0,0,.13.46Z"/>
</svg>
