<svg id="Layer_1" data-name="Layer 1" xmlns="http://www.w3.org/2000/svg" viewBox="0 0 57.27 57.23">
  <defs>
    <style>
      .cls-1 {
        fill: none;
        stroke: #000;
        stroke-miterlimit: 10;
        stroke-width: 2px;
      }
    </style>
  </defs>
  <rect class="cls-1" x="1.86" y="2.73" width="53" height="53" rx="26.5"/>
  <path class="cls-1" d="M23.41,42.16a1.34,1.34,0,0,0,1-.37l21-21a1.27,1.27,0,0,0,0-1.8l-2.25-2.26a1.3,1.3,0,0,0-1.81,0l-18,18h0l-8.09-8.1a1.3,1.3,0,0,0-1.81,0l-2.24,2.25a1.27,1.27,0,0,0,0,1.8L22.41,41.79a1.27,1.27,0,0,0,.52.31,1.31,1.31,0,0,0,.59,0"/>
</svg>
