<svg id="Layer_1" data-name="Layer 1" xmlns="http://www.w3.org/2000/svg" viewBox="0 0 57.27 57.23">
  <defs>
    <style>
      .cls-1 {
        fill: #f2f2f2;
      }
    </style>
  </defs>
  <g>
    <path d="M54.64,17.29V45.83a4.75,4.75,0,0,1-4.73,4.73H7.37a4.75,4.75,0,0,1-4.73-4.73V17.29"/>
    <polyline points="51.63 6.68 54.63 6.68 54.63 13.68 47.63 13.68"/>
    <path class="cls-1" d="M36.61,33.94,23.42,41.39a.52.52,0,0,1-.78-.45V26a.52.52,0,0,1,.78-.45L36.61,33A.52.52,0,0,1,36.61,33.94Z"/>
    <polyline points="32.63 13.68 30.54 13.68 2.63 13.68 2.63 6.68 30.63 6.68 36.63 6.68"/>
    <polyline points="40.63 6.68 47.63 6.68 43.63 13.68 36.63 13.68"/>
  </g>
</svg>
