<?xml version="1.0" encoding="utf-8"?>
<!-- Generator: Adobe Illustrator 22.1.0, SVG Export Plug-In . SVG Version: 6.00 Build 0)  -->
<svg version="1.1" id="Layer_1" xmlns="http://www.w3.org/2000/svg" xmlns:xlink="http://www.w3.org/1999/xlink" x="0px" y="0px"
	 viewBox="0 0 230 46" style="enable-background:new 0 0 230 46;" xml:space="preserve">
<style type="text/css">
	.st0{fill:none;stroke:#FFFFFF;stroke-width:3;stroke-miterlimit:10;}
	.st1{fill:#FFFFFF;}
</style>
<title>blockIconTemplateslong</title>
<g>
	<circle class="st0" cx="52.2" cy="13.2" r="4"/>
</g>
<line class="st0" x1="58.2" y1="9.2" x2="62.5" y2="23.5"/>
<g>
	<circle class="st0" cx="64.5" cy="27.5" r="4"/>
	<line class="st0" x1="64.5" y1="31.5" x2="64.5" y2="47"/>
</g>
<line class="st0" x1="52.2" y1="9.2" x2="52.5" y2="1.5"/>
<path class="st1" d="M73,37.8c0-0.7,0.1-1.4,0.3-2c0.2-0.5,0.4-1,0.8-1.5c1.2-1.5,3.3-1.8,4.9-0.7c0.2,0.2,0.5,0.4,0.7,0.7
	c0.4,0.4,0.6,1,0.8,1.5c0.4,1.3,0.4,2.6,0,3.9c-0.2,0.5-0.4,1.1-0.8,1.5c-0.3,0.4-0.7,0.8-1.2,1c-1.5,0.7-3.3,0.3-4.3-1
	c-0.4-0.4-0.6-1-0.8-1.5C73.1,39.2,73,38.5,73,37.8z M75.4,37.8c0,0.4,0,0.7,0.1,1.1c0.1,0.3,0.2,0.6,0.3,0.8s0.3,0.4,0.5,0.6
	c0.2,0.1,0.4,0.2,0.6,0.2c0.2,0,0.4-0.1,0.6-0.2c0.2-0.1,0.4-0.3,0.5-0.6s0.2-0.6,0.3-0.8c0.1-0.7,0.1-1.5,0-2.2
	c-0.1-0.3-0.2-0.6-0.3-0.8s-0.3-0.4-0.5-0.5s-0.4-0.2-0.6-0.2c-0.2,0-0.4,0.1-0.6,0.2c-0.2,0.1-0.4,0.3-0.5,0.5
	c-0.1,0.3-0.2,0.6-0.3,0.8C75.4,37.1,75.4,37.5,75.4,37.8z"/>
<path class="st1" d="M88.3,33.3v9H86v-9H88.3z"/>
<g>
	<circle class="st0" cx="76.2" cy="13.2" r="4"/>
	<polyline class="st0" points="80.5,13.5 189.5,13.5 189.5,0.5 	"/>
</g>
</svg>
