<svg xmlns="http://www.w3.org/2000/svg" viewBox="0 0 170 100"><defs><style>.cls-1{opacity:0.5;}.cls-2{fill:#75fbfd;}.cls-3{fill:#008480;}</style></defs><title>Asset 13</title><g id="Layer_2" data-name="Layer 2"><g id="UI"><rect class="cls-2" x="111.43" y="32" width="52.56" height="2"/><rect class="cls-2" x="6.17" y="49" width="52.4" height="2"/><path class="cls-2" d="M70.48,50a1,1,0,0,1-.18-2l34.35-6a1,1,0,0,1,1.16.81,1,1,0,0,1-.81,1.16l-34.35,6Z"/><circle class="cls-3" cx="105.44" cy="33" r="6"/><path class="cls-2" d="M105.44,40a7,7,0,1,1,7-7A7,7,0,0,1,105.44,40Zm0-12a5,5,0,1,0,5,5A5,5,0,0,0,105.44,28Z"/><rect class="cls-2" x="111.43" y="66" width="52.56" height="2"/><circle class="cls-3" cx="105.44" cy="67" r="6"/><path class="cls-2" d="M105.44,74a7,7,0,1,1,7-7A7,7,0,0,1,105.44,74Zm0-12a5,5,0,1,0,5,5A5,5,0,0,0,105.44,62Z"/><circle class="cls-3" cx="64.57" cy="50" r="6"/><path class="cls-2" d="M64.57,57a7,7,0,1,1,7-7A7,7,0,0,1,64.57,57Zm0-12a5,5,0,1,0,5,5A5,5,0,0,0,64.57,45Z"/></g></g></svg>