<svg id="Layer_1" data-name="Layer 1" xmlns="http://www.w3.org/2000/svg" viewBox="0 0 92 46"><defs><style>.cls-1{fill:#fff;}</style></defs><title>_</title><path class="cls-1" d="M82.11,22.57a13.27,13.27,0,0,0-.26-2.6l5.52-4L83.84,9.82,77.6,12.58A13.32,13.32,0,0,0,73.06,10l-.74-6.78H65.27L64.53,10A13.28,13.28,0,0,0,60,12.58L53.74,9.82l-3.53,6.11,5.52,4a13.27,13.27,0,0,0-.26,2.6,13.5,13.5,0,0,0,.26,2.62l-5.52,4,3.53,6.11L60,32.58a13.25,13.25,0,0,0,4.51,2.61L65.27,42h7.05l.74-6.81a13.3,13.3,0,0,0,4.51-2.61l6.27,2.77,3.53-6.11-5.52-4A13.5,13.5,0,0,0,82.11,22.57ZM68.79,32.65A10.08,10.08,0,1,1,78.87,22.57,10.09,10.09,0,0,1,68.79,32.65Z"/><polygon class="cls-1" points="32.28 32.72 32.28 25 14.72 25 14.72 32.72 5 23 14.72 13.28 14.72 21 32.28 21 32.28 13.28 42 23 32.28 32.72"/></svg>