<svg xmlns="http://www.w3.org/2000/svg" viewBox="0 0 120.53 120.53">
  <defs>
    <style>
      .cls-1, .cls-2 {
        fill: #75fbfd;
      }

      .cls-1, .cls-3 {
        opacity: 0.25;
      }
    </style>
  </defs>
  <title>Asset 4</title>
  <g id="Layer_2" data-name="Layer 2">
    <g id="Layer_1-2" data-name="Layer 1">
      <g>
        <polygon class="cls-1" points="113.5 113.5 113.5 7.03 57.76 7.03 7.03 7.03 7.03 57.76 7.03 113.5 113.5 113.5"/>
        <path class="cls-2" d="M113.5,7V113.5H7V7H113.5m5-7H2A2,2,0,0,0,0,2V118.52a2,2,0,0,0,2,2H118.52a2,2,0,0,0,2-2V2a2,2,0,0,0-2-2Z"/>
        <g class="cls-3">
          <path class="cls-2" d="M106.47,14.06v92.41H14.06V14.06h92.41m7-7H7V113.5H113.5V7Z"/>
        </g>
      </g>
      <path class="cls-2" d="M73.86,31.79H57.31c-15.41,0-28.76,12.59-29,28a28.48,28.48,0,0,0,56.32,6.48,28.88,28.88,0,0,0,.59-7.39,2.93,2.93,0,0,1,2.94-3h2.62a1.46,1.46,0,0,0,1.46-1.46V33.26a1.46,1.46,0,0,0-1.46-1.47ZM75,73.44a4.59,4.59,0,0,1-3.3,1.64c-.57,0-1.15.08-1.72.08a18.89,18.89,0,0,1-15.72-8.65,10.63,10.63,0,0,0-8.33,6l0,.09-.06.09a4.6,4.6,0,0,1-3.94,2.33,4.28,4.28,0,0,1-1.76-.37,4,4,0,0,1-2.23-2.39,4.54,4.54,0,0,1,.24-3.67A18.84,18.84,0,0,1,54.24,57.81a10.61,10.61,0,0,0-1.06-10.23l-.06-.09,0-.09a4.54,4.54,0,0,1,1.16-5.92,3.82,3.82,0,0,1,2.4-.81,4.57,4.57,0,0,1,3.85,2.12,18.82,18.82,0,0,1,1.29,19.38,10.63,10.63,0,0,0,8.47,4.24c.31,0,.62,0,.92,0h.21a4.52,4.52,0,0,1,4.54,4A4,4,0,0,1,75,73.44Z"/>
    </g>
  </g>
</svg>
