<svg xmlns="http://www.w3.org/2000/svg" viewBox="0 0 120.53 120.53">
  <defs>
    <style>
      .cls-1, .cls-2 {
        fill: #ae00ff;
      }

      .cls-1, .cls-3 {
        opacity: 0.25;
      }
    </style>
  </defs>
  <title>Asset 3</title>
  <g id="Layer_2" data-name="Layer 2">
    <g id="Layer_1-2" data-name="Layer 1">
      <g>
        <polygon class="cls-1" points="113.5 113.5 113.5 7.03 57.76 7.03 7.03 7.03 7.03 57.76 7.03 113.5 113.5 113.5"/>
        <path class="cls-2" d="M113.5,7V113.5H7V7H113.5m5-7H2A2,2,0,0,0,0,2V118.52a2,2,0,0,0,2,2H118.52a2,2,0,0,0,2-2V2a2,2,0,0,0-2-2Z"/>
        <g class="cls-3">
          <path class="cls-2" d="M106.47,14.06v92.41H14.06V14.06h92.41m7-7H7V113.5H113.5V7Z"/>
        </g>
      </g>
      <path class="cls-2" d="M83.27,52.07l-1.6-3.8s3.73-8.41,3.39-8.73l-4.93-4.82c-.34-.33-8.75,3.51-8.75,3.51L67.5,36.66s-3.43-8.52-3.9-8.52h-7c-.48,0-3.66,8.54-3.66,8.54l-3.87,1.57s-8.59-3.65-8.92-3.33l-4.93,4.83c-.34.33,3.58,8.57,3.58,8.57l-1.6,3.8s-8.7,3.35-8.7,3.8v6.83c0,.48,8.72,3.59,8.72,3.59l1.61,3.79s-3.73,8.4-3.41,8.72l4.94,4.83c.33.33,8.75-3.51,8.75-3.51L53,81.74s3.43,8.52,3.9,8.52h7c.49,0,3.66-8.54,3.66-8.54l3.89-1.57s8.57,3.65,8.9,3.33l4.93-4.83c.34-.33-3.59-8.57-3.59-8.57l1.6-3.8S92,62.92,92,62.46V55.64C92,55.17,83.27,52.07,83.27,52.07ZM73,59.19A12.7,12.7,0,1,1,60.27,46.77,12.58,12.58,0,0,1,73,59.19Z"/>
    </g>
  </g>
</svg>
