<?xml version="1.0" encoding="UTF-8"?><svg id="e" xmlns="http://www.w3.org/2000/svg" viewBox="0 0 150 150"><path d="M135.66,44.74l-19.07,8.38v-9.65c0-3.92-3.21-7.09-7.16-7.09H17.16c-3.95,0-7.16,3.18-7.16,7.09v62.44c0,3.92,3.21,7.09,7.16,7.09H109.44c3.95,0,7.16-3.18,7.16-7.09v-10l19.02,8.71c1.74,.79,4.38,.12,4.38-1.12V45.87c0-1.22-2.59-1.9-4.34-1.13Z" fill="none" stroke="#fff" stroke-miterlimit="10" stroke-width="4"/><path d="M80.85,85.39l-9.13,8.55v-12.09s-3.84-.06-5.79-.06c-11.4,0-21.44,5.77-27.44,14.47,2.62-16.87,16.21-29.92,33.23-31.79v-11.55l13.25,12.37,8.7,8.1-12.82,12Z" fill="#fff" stroke="#fff" stroke-miterlimit="10"/></svg>