<?xml version="1.0" encoding="UTF-8"?><svg id="e" xmlns="http://www.w3.org/2000/svg" viewBox="0 0 150 150"><path d="M121.92,51.42l-14.68,6.45v-7.43c0-3.02-2.47-5.46-5.51-5.46H30.68c-3.04,0-5.51,2.44-5.51,5.46v48.08c0,3.02,2.47,5.46,5.51,5.46H101.73c3.04,0,5.51-2.44,5.51-5.46v-7.7l14.65,6.7c1.34,.61,3.37,.09,3.37-.86V52.29c0-.94-2-1.46-3.34-.87Z" fill="none" stroke="#fff" stroke-miterlimit="10" stroke-width="4"/><path d="M79.72,82.72l-7.03,6.58v-9.31s-2.96-.04-4.46-.04c-8.77,0-16.51,4.45-21.13,11.14,2.02-12.99,12.48-23.03,25.59-24.48v-8.89l10.2,9.53,6.7,6.23-9.87,9.24Z" fill="#fff" stroke="#fff" stroke-miterlimit="10"/></svg>