<svg id="Layer_1" data-name="Layer 1" xmlns="http://www.w3.org/2000/svg" viewBox="0 0 216 120">
  <defs>
    <style>
      .cls-1 {
        fill: #75fbfd;
      }

      .cls-2 {
        fill: #008480;
      }
    </style>
  </defs>
  <title>icon</title>
  <g>
    <path class="cls-1" d="M175.59,61.58h-34a1.37,1.37,0,0,1,0-2.73h34a1.37,1.37,0,0,1,0,2.73Z"/>
    <path class="cls-1" d="M74.81,61.58h-34a1.37,1.37,0,1,1,0-2.73h34a1.37,1.37,0,1,1,0,2.73Z"/>
    <g>
      <circle class="cls-2" cx="133.44" cy="60.21" r="8.19"/>
      <path class="cls-1" d="M133.44,69.77A9.56,9.56,0,1,1,143,60.21h0A9.56,9.56,0,0,1,133.44,69.77Zm0-16.38a6.83,6.83,0,1,0,6.82,6.82A6.82,6.82,0,0,0,133.44,53.39Z"/>
    </g>
    <path class="cls-1" d="M89.22,56.26a1.37,1.37,0,0,1-1-2.33h0l29.38-29.36a1.37,1.37,0,0,1,1.92,1.93L90.19,55.86A1.37,1.37,0,0,1,89.22,56.26Z"/>
    <g>
      <circle class="cls-2" cx="83" cy="60.21" r="8.19"/>
      <path class="cls-1" d="M83,69.77a9.56,9.56,0,1,1,9.55-9.56h0A9.56,9.56,0,0,1,83,69.77Zm0-16.38a6.83,6.83,0,1,0,6.82,6.82A6.82,6.82,0,0,0,83,53.39Z"/>
    </g>
  </g>
</svg>
