<svg xmlns="http://www.w3.org/2000/svg" viewBox="0 0 170 100">
  <defs>
    <style>
      .cls-1 {
        opacity: 0.5;
      }

      .cls-2 {
        fill: #75fbfd;
      }

      .cls-3 {
        fill: #008480;
      }
    </style>
  </defs>
  <title>Asset 49</title>
  <g id="Layer_2" data-name="Layer 2">
    <g id="UI">
      <g>
        <g>
          <g class="cls-1">
            <polygon points="0 0 0 100 37.08 100 170 100 170 66.65 170 0 0 0"/>
          </g>
          <g class="cls-1">
            <path class="cls-2" d="M164,5.94V94.06H6V5.94H164M170,0H0V100H170V0Z"/>
          </g>
        </g>
        <g>
          <g>
            <path class="cls-3" d="M137.87,50l-3.61-7.56c-3.13-4.59-5.12-10.36-12-10.36-7.43,0-11.73,10.55-17.28,17.92h32.9Z"/>
            <path class="cls-3" d="M44.93,33.27c-3.07,0-9.15,4.17-11.07,10.07L32,50h25.7C55.05,41.54,52.3,33.27,44.93,33.27Z"/>
          </g>
          <g>
            <path class="cls-2" d="M104.1,49.5c1.65-2.51,1-.85,4.92-7.07,3.7-5.83,7.2-11.35,13.5-11.35,7.75,0,12.51,9.25,16.21,18.42h-2.14c-3.25-8-7.47-16.42-14.07-16.42-5.2,0-8.26,4.83-11.81,10.42-4,6.31-2.19,3.47-4.06,6"/>
            <path class="cls-2" d="M57,50c-2.69-8.47-5-15.73-11.76-15.73-5.41,0-11,7.27-12.16,15.87l-2-.28c1.34-9.7,7.69-17.59,14.15-17.59,8.23,0,11.36,8.95,14.15,17.73"/>
          </g>
          <g>
            <rect class="cls-2" x="13.97" y="49.5" width="4.5" height="1"/>
            <path class="cls-2" d="M142.66,50.5h-8.87v-1h8.87Zm-17.74,0h-8.87v-1h8.87Zm-17.74,0H98.31v-1h8.87Zm-17.74,0H80.56v-1h8.88Zm-17.75,0H62.82v-1h8.87ZM54,50.5H45.08v-1H54Zm-17.74,0H27.34v-1h8.87Z"/>
            <rect class="cls-2" x="151.53" y="49.5" width="4.5" height="1"/>
          </g>
        </g>
      </g>
    </g>
  </g>
</svg>
