<svg id="Layer_1" data-name="Layer 1" xmlns="http://www.w3.org/2000/svg" viewBox="0 0 92 46"><defs><style>.cls-1,.cls-2{fill:none;stroke:#fff;stroke-miterlimit:10;stroke-width:2px;}.cls-2{stroke-dasharray:2 3;}.cls-3{fill:#fff;opacity:0.5;}</style></defs><title>label</title><line class="cls-1" x1="45.47" y1="31.55" x2="45.47" y2="15.49"/><path class="cls-1" d="M45.47,45V31.55c8.88.93,17.31,2.07,21.53,3.63C79.56,39.86,59.82,43.6,45.47,45Z"/><path class="cls-1" d="M45.47,31.55l-.32-.06"/><path class="cls-1" d="M45.47,15.49V2C51.21,4.34,56,9,50.73,12.75A28.69,28.69,0,0,1,45.47,15.49Z"/><path class="cls-1" d="M45.16,15.55l.32-.07"/><path class="cls-1" d="M45.16,15.55l-.44.09"/><path class="cls-2" d="M43.83,15.84c-8.44,1.73-7.92,1.58-14.62,4.38-3.83,2.8-1,5.14,4.78,7.95,5.74,1.4,0,0,10.26,3.15"/><path class="cls-1" d="M44.71,31.41l.45.08"/><path class="cls-3" d="M45.47,15.49V2C51.21,4.34,56,9,50.73,12.75A28.69,28.69,0,0,1,45.47,15.49Z"/><path class="cls-3" d="M45.47,45V31.55c8.88.93,17.31,2.07,21.53,3.63C79.56,39.86,59.82,43.6,45.47,45Z"/></svg>