<?xml version="1.0" encoding="UTF-8"?>
<svg width="256px" height="256px" viewBox="0 0 256 256" version="1.1" xmlns="http://www.w3.org/2000/svg" xmlns:xlink="http://www.w3.org/1999/xlink">
    <title>iconMenu</title>
    <g id="iconMenu" stroke="none" stroke-width="1" fill="none" fill-rule="evenodd">
        <g id="Group" transform="translate(57.000000, 60.000000)" fill="#FFFFFF">
            <g id="Group-2" transform="translate(30.000000, 0.000000)">
                <polygon id="Path-10" transform="translate(34.000000, 25.000000) rotate(90.000000) translate(-34.000000, -25.000000) " points="28.4864865 -9 36.2619543 -9 36.2619543 11.6403326 41.3513514 11.6403326 42.0582121 16.7297297 47.7130977 16.7297297 48.4199584 20.5467775 55.2058212 20.5467775 55.2058212 59 26.9313929 59 26.9313929 47.1247401 22.972973 37.2286902 12.7941788 20.5467775 18.8731809 16.7297297 28.4864865 27.6153846"></polygon>
                <rect id="Rectangle" x="73.7941788" y="0" width="6" height="55"></rect>
            </g>
            <g id="Group-Copy" transform="translate(0.000000, 67.000000)">
                <polygon id="Path-10-Copy" points="37.47 19 43.1533333 19 43.1533333 21.8345946 46.8733333 21.8345946 47.39 24.3918919 51.5233333 24.3918919 52.04 27.1648649 57 27.1648649 57 57 36.3333333 57 36.3333333 48.372973 33.44 41.1837838 26 29.0648649 30.4433333 26.2918919 37.47 34.2"></polygon>
                <path d="M0,0 C19.9859664,0 36.1877934,16.2256322 36.1877934,36.2409639 L36.186,36.433 L41,36.4337349 L32.3380282,48 L23.6760563,36.4337349 L28.4876239,36.4340905 C28.4880497,36.3697653 28.4882629,36.3053895 28.4882629,36.2409639 C28.4882629,20.4842134 15.7336332,7.71084337 0,7.71084337 L0,0 Z" id="Combined-Shape" transform="translate(20.500000, 24.000000) scale(-1, 1) translate(-20.500000, -24.000000) "></path>
            </g>
            <g id="Group-Copy" transform="translate(80.000000, 74.000000)">
                <polygon id="Path-10-Copy" points="10.73 7 16.0466667 7 16.0466667 9.67297297 19.5266667 9.67297297 20.01 12.0844595 23.8766667 12.0844595 24.36 14.6993243 29 14.6993243 29 50 9.66666667 50 9.66666667 41.8648649 6.96 35.0855856 2.01227923e-16 23.6576577 4.15666667 21.0427928 10.73 28.5"></polygon>
                <path d="M32,0 L39,0 C43.6666667,9.5 46,19 46,28.5 C46,38 43.6666667,47.5 39,57 L32,57 C36.6666667,47.5 39,38 39,28.5 C39,19 36.6666667,9.5 32,0 Z" id="Rectangle"></path>
                <path d="M64.956044,24 L71,28.5 L64.956044,33 L64.956044,30.48 L49,30.48 L49,26.88 L64.956044,26.88 L64.956044,24 Z" id="Combined-Shape"></path>
            </g>
        </g>
    </g>
</svg>