<svg xmlns="http://www.w3.org/2000/svg" viewBox="0 0 170 100"><defs><style>.cls-1{opacity:0.5;}.cls-2{fill:#75fbfd;}</style></defs><title>Asset 17</title><g id="Layer_2" data-name="Layer 2"><g id="UI"><path class="cls-2" d="M51.47,60.27v-1.5l7.74-20.9h4.45l7.78,20.9v1.5H67L65.16,55H57.52l-1.86,5.25Zm7.39-9h4.93L61.36,44Z"/><path class="cls-2" d="M79.88,57.78,77.2,55.12l4.7-4.74-4.7-4.73L79.88,43l4.71,4.74L89.32,43,92,45.65l-4.74,4.73L92,55.12l-2.66,2.66L84.59,53Z"/><path class="cls-2" d="M100,60.27V37.87h9.47c4.13,0,6.62,2.18,6.62,6.18a4.87,4.87,0,0,1-2.49,4.61A5.31,5.31,0,0,1,117,54c0,4.13-2.43,6.3-6.62,6.3Zm4.54-13.08h4.68c1.28,0,2.3-.9,2.3-2.69s-1-2.66-2.3-2.66h-4.68Zm0,9.11h5.6c1.28,0,2.31-.89,2.31-2.68s-1-2.66-2.31-2.66h-5.6Z"/></g></g></svg>