<?xml version="1.0" encoding="utf-8"?>
<!-- Generator: Adobe Illustrator 25.3.1, SVG Export Plug-In . SVG Version: 6.00 Build 0)  -->
<svg version="1.1" id="Layer_1" xmlns="http://www.w3.org/2000/svg" xmlns:xlink="http://www.w3.org/1999/xlink" x="0px" y="0px"
	 viewBox="0 0 60 60" style="enable-background:new 0 0 60 60;" xml:space="preserve">
<style type="text/css">
	.st0{fill:#01FFFD;}
	.st1{fill:#00FFFF;stroke:#00FFFF;stroke-miterlimit:10;}
	.st2{fill:#FFFFFF;}
</style>
<path class="st0" d="M60,60H0V0h60V60z M58.1,1.9H1.8v56.3h56.3V1.9z"/>
<rect x="15.6" y="32.6" class="st1" width="5" height="5"/>
<rect x="15.6" y="40.3" class="st1" width="5" height="5"/>
<rect x="23.5" y="24.8" class="st1" width="5" height="5"/>
<rect x="23.5" y="32.6" class="st1" width="5" height="5"/>
<rect x="23.5" y="40.3" class="st1" width="5" height="5"/>
<rect x="31.5" y="24.8" class="st1" width="5" height="5"/>
<rect x="31.5" y="32.6" class="st1" width="5" height="5"/>
<rect x="31.5" y="40.3" class="st1" width="5" height="5"/>
<rect x="39.4" y="24.8" class="st1" width="5" height="5"/>
<rect x="39.4" y="32.6" class="st1" width="5" height="5"/>
<path class="st1" d="M42.7,11.3H17.3c-3.3,0-6,2.7-6,6v25.5c0,3.3,2.7,6,6,6h25.5c3.3,0,6-2.7,6-6V17.3C48.7,14,46,11.3,42.7,11.3z
	 M47.8,43.1c0,2.8-2.2,5-5,5H17.2c-2.8,0-5-2.2-5-5V22h35.6V43.1z"/>
<rect x="15.6" y="32.6" class="st2" width="5" height="5"/>
<rect x="15.6" y="40.3" class="st2" width="5" height="5"/>
<rect x="23.5" y="24.8" class="st2" width="5" height="5"/>
<rect x="23.5" y="32.6" class="st2" width="5" height="5"/>
<rect x="23.5" y="40.3" class="st2" width="5" height="5"/>
<rect x="31.5" y="24.8" class="st2" width="5" height="5"/>
<rect x="31.5" y="32.6" class="st2" width="5" height="5"/>
<rect x="31.5" y="40.3" class="st2" width="5" height="5"/>
<rect x="39.4" y="24.8" class="st2" width="5" height="5"/>
<rect x="39.4" y="32.6" class="st2" width="5" height="5"/>
<g>
	<g>
		<rect x="23.5" y="24.8" class="st1" width="5" height="5"/>
		<rect x="31.5" y="24.8" class="st1" width="5" height="5"/>
		<rect x="39.4" y="24.8" class="st1" width="5" height="5"/>
	</g>
	<g>
		<rect x="15.6" y="32.6" class="st1" width="5" height="5"/>
		<rect x="23.5" y="32.6" class="st1" width="5" height="5"/>
		<rect x="31.5" y="32.6" class="st1" width="5" height="5"/>
		<rect x="39.4" y="32.6" class="st1" width="5" height="5"/>
	</g>
	<g>
		<rect x="15.6" y="40.3" class="st1" width="5" height="5"/>
		<rect x="23.5" y="40.3" class="st1" width="5" height="5"/>
		<rect x="31.5" y="40.3" class="st1" width="5" height="5"/>
	</g>
</g>
</svg>
