<?xml version="1.0" encoding="utf-8"?>
<!-- Generator: Adobe Illustrator 25.3.1, SVG Export Plug-In . SVG Version: 6.00 Build 0)  -->
<svg version="1.1" id="Layer_1" xmlns="http://www.w3.org/2000/svg" xmlns:xlink="http://www.w3.org/1999/xlink" x="0px" y="0px"
	 viewBox="0 0 27.2 27.2" style="enable-background:new 0 0 27.2 27.2;" xml:space="preserve">
<style type="text/css">
	.st0{fill:#00FFFF;stroke:#00FFFF;stroke-width:1.5;stroke-miterlimit:10;}
	.st1{fill:#00FFFF;stroke:#00FFFF;stroke-miterlimit:10;}
</style>
<g>
	<g>
		<g>
			<line class="st0" x1="13.5" y1="13.6" x2="8" y2="13.6"/>
			<path class="st1" d="M8.1,15.7l-3.8-1.9c-0.1-0.1-0.2-0.2-0.1-0.3c0,0,0.1-0.1,0.1-0.1l3.8-1.9c0.1-0.1,0.3,0,0.4,0.1
				c0,0,0,0.1,0,0.1v3.8C8.5,15.7,8.3,15.8,8.1,15.7C8.2,15.7,8.1,15.7,8.1,15.7z"/>
		</g>
		<g>
			<line class="st0" x1="11.1" y1="13.6" x2="19.2" y2="13.6"/>
			<path class="st1" d="M19.1,11.5l3.8,1.9c0.1,0.1,0.2,0.2,0.1,0.3c0,0-0.1,0.1-0.1,0.1l-3.8,1.9c-0.1,0.1-0.3,0-0.4-0.1
				c0,0,0-0.1,0-0.1v-3.8C18.7,11.5,18.9,11.4,19.1,11.5C19,11.5,19.1,11.5,19.1,11.5z"/>
		</g>
	</g>
	<g>
		<g>
			<line class="st0" x1="13.6" y1="13.5" x2="13.6" y2="8"/>
			<path class="st1" d="M11.5,8.1l1.9-3.8c0.1-0.1,0.2-0.2,0.3-0.1c0,0,0.1,0.1,0.1,0.1l1.9,3.8c0.1,0.1,0,0.3-0.1,0.4
				c0,0-0.1,0-0.1,0h-3.8C11.5,8.5,11.4,8.3,11.5,8.1C11.5,8.2,11.5,8.1,11.5,8.1z"/>
		</g>
		<g>
			<line class="st0" x1="13.6" y1="13.7" x2="13.6" y2="19.2"/>
			<path class="st1" d="M15.7,19.1l-1.9,3.8C13.7,23,13.6,23,13.5,23c0,0-0.1-0.1-0.1-0.1l-1.9-3.8c-0.1-0.1,0-0.3,0.1-0.4
				c0,0,0.1,0,0.1,0h3.8C15.7,18.7,15.8,18.9,15.7,19.1C15.7,19,15.7,19.1,15.7,19.1z"/>
		</g>
	</g>
</g>
</svg>
