<?xml version="1.0" encoding="utf-8"?>
<!-- Generator: Adobe Illustrator 25.3.1, SVG Export Plug-In . SVG Version: 6.00 Build 0)  -->
<svg version="1.1" id="Layer_1" xmlns="http://www.w3.org/2000/svg" xmlns:xlink="http://www.w3.org/1999/xlink" x="0px" y="0px"
	 viewBox="0 0 27.2 27.2" style="enable-background:new 0 0 27.2 27.2;" xml:space="preserve">
<style type="text/css">
	.st0{fill:#00FFFF;stroke:#00FFFF;stroke-miterlimit:10;}
	.st1{fill:none;stroke:#00FFFF;stroke-width:1.25;stroke-miterlimit:10;}
	.st2{fill:none;stroke:#00FFFF;stroke-width:0.25;stroke-miterlimit:10;}
</style>
<path class="st0" d="M12,3.4l3.2,2.2c0.1,0.1,0.2,0.3,0.1,0.4c0,0,0,0.1-0.1,0.1L12,8.2c-0.1,0.1-0.3,0.1-0.3,0
	c-0.1-0.1-0.1-0.1-0.1-0.2V3.6C11.6,3.4,11.8,3.3,12,3.4z"/>
<path class="st1" d="M12.4,5.7C11.7,5.8,11,6,10.3,6.3"/>
<path class="st1" d="M17.7,6.8c2.1,1.2,3.5,3.3,3.8,5.7c0.1,0.8,0.1,1.6,0,2.4c-0.4,2.8-2.3,5.2-5,6.2"/>
<path class="st1" d="M9.5,20.5c-2-1.2-3.4-3.3-3.8-5.7c-0.1-0.8-0.1-1.6,0-2.4c0.4-2.7,2.1-5,4.6-6.1"/>
<path class="st1" d="M16.5,21.1c-0.6,0.2-1.1,0.4-1.7,0.5"/>
<path class="st2" d="M5.7,12.4c-0.1,0.8-0.1,1.6,0,2.4"/>
<path class="st0" d="M15.2,23.8L12,21.7c-0.1-0.1-0.2-0.3-0.1-0.4c0,0,0,0,0.1-0.1l3.2-2.2c0.1-0.1,0.2,0,0.3,0.1c0,0,0,0.1,0,0.2
	v4.3c0,0.1,0,0.3-0.1,0.3C15.4,23.9,15.3,23.9,15.2,23.8z"/>
</svg>
