<?xml version="1.0" encoding="utf-8"?>
<!-- Generator: Adobe Illustrator 25.3.1, SVG Export Plug-In . SVG Version: 6.00 Build 0)  -->
<svg version="1.1" id="Layer_1" xmlns="http://www.w3.org/2000/svg" xmlns:xlink="http://www.w3.org/1999/xlink" x="0px" y="0px"
	 viewBox="0 0 60 60" style="enable-background:new 0 0 60 60;" xml:space="preserve">
<style type="text/css">
	.st0{fill:#01FFFD;}
	.st1{enable-background:new    ;}
</style>
<path class="st0" d="M60,60H0V0h60V60z M58.1,1.9H1.8v56.3h56.3V1.9z"/>
<g class="st1">
	<path class="st0" d="M27.3,41.4h-4.2v-4.1h-9.8v-3.2L20.8,19h3.7v1.5l-6.5,13h5.1v-5.2h4.2v5.2h2.6v3.8h-2.6V41.4z"/>
	<path class="st0" d="M35.3,41.4h-3.6v-2l4.7-6.4l-4.7-6.4v-2h3.8l3.5,5.2l3.6-5.2h3.6v2l-4.5,6.3l4.8,6.6v2h-3.8L39,35.9L35.3,41.4
		z"/>
</g>
</svg>
