<?xml version="1.0" encoding="utf-8"?>
<!-- Generator: Adobe Illustrator 25.3.1, SVG Export Plug-In . SVG Version: 6.00 Build 0)  -->
<svg version="1.1" id="Layer_1" xmlns="http://www.w3.org/2000/svg" xmlns:xlink="http://www.w3.org/1999/xlink" x="0px" y="0px"
	 viewBox="0 0 60 60" style="enable-background:new 0 0 60 60;" xml:space="preserve">
<style type="text/css">
	.st0{fill:#01FFFD;}
	.st1{enable-background:new    ;}
</style>
<path class="st0" d="M60,60H0V0h60V60z M58.1,1.9H1.8v56.3h56.3V1.9z"/>
<g class="st1">
	<path class="st0" d="M13.2,35.1c0-1.2,0.3-2.3,1-3.3c0.7-1,1.5-1.7,2.4-2.1c-1-0.7-1.7-1.4-2.2-2.1c-0.5-0.7-0.7-1.7-0.7-2.8
		c0-1.8,0.7-3.3,2-4.4s3.2-1.8,5.6-1.8c2.4,0,4.2,0.6,5.6,1.8c1.3,1.2,2,2.7,2,4.4c0,1.1-0.2,2-0.7,2.8c-0.5,0.7-1.2,1.5-2.1,2.1
		c1,0.4,1.8,1.1,2.4,2.1c0.6,1,1,2.1,1,3.3c0,2.1-0.7,3.8-2.2,5c-1.5,1.2-3.5,1.8-6,1.8c-2.5,0-4.5-0.6-6-1.8
		C13.9,38.9,13.2,37.2,13.2,35.1z M25.3,34.7c0-1-0.4-1.8-1.1-2.4c-0.7-0.6-1.7-0.9-2.8-0.9c-1.2,0-2.1,0.3-2.8,0.9
		c-0.7,0.6-1.1,1.4-1.1,2.4c0,1,0.3,1.9,1,2.5c0.7,0.6,1.6,1,2.9,1c1.3,0,2.2-0.3,2.9-1C25,36.6,25.3,35.7,25.3,34.7z M24.8,25.1
		c0-0.9-0.3-1.6-0.9-2.1c-0.6-0.5-1.4-0.8-2.5-0.8s-1.9,0.3-2.5,0.8S18,24.2,18,25.1c0,1,0.3,1.7,0.9,2.3s1.4,0.8,2.5,0.8
		c1,0,1.8-0.3,2.5-0.8S24.8,26.1,24.8,25.1z"/>
	<path class="st0" d="M36.3,41.4h-3.6v-2l4.7-6.4l-4.7-6.4v-2h3.8l3.5,5.2l3.6-5.2h3.6v2l-4.5,6.3l4.8,6.6v2h-3.8L40,35.9L36.3,41.4
		z"/>
</g>
</svg>
