<?xml version="1.0" encoding="utf-8"?>
<!-- Generator: Adobe Illustrator 25.3.1, SVG Export Plug-In . SVG Version: 6.00 Build 0)  -->
<svg version="1.1" id="Layer_1" xmlns="http://www.w3.org/2000/svg" xmlns:xlink="http://www.w3.org/1999/xlink" x="0px" y="0px"
	 viewBox="0 0 60 60" style="enable-background:new 0 0 60 60;" xml:space="preserve">
<style type="text/css">
	.st0{fill:#01FFFD;}
	.st1{enable-background:new    ;}
</style>
<path class="st0" d="M60,60H0V0h60V60z M58.1,1.9H1.8v56.3h56.3V1.9z"/>
<g class="st1">
	<path class="st0" d="M15.3,41.4h-4V25.7H9.2v-2.1l5.1-3.2h1V41.4z"/>
	<path class="st0" d="M27,41.9c-2.3,0-4.1-0.6-5.5-1.9c-1.3-1.3-2-3-2-5.1c0-1.8,0.7-3.8,2.1-6l5.5-8.5h3.6v1.4l-4.2,6.3
		c0.7-0.1,1.3-0.2,1.8-0.2c1.8,0,3.2,0.6,4.4,1.7c1.2,1.1,1.7,2.7,1.7,4.8c0,2.3-0.7,4.1-2,5.4C31.1,41.2,29.3,41.9,27,41.9z
		 M30.5,34.7c0-1.2-0.3-2-0.9-2.7c-0.6-0.6-1.5-0.9-2.6-0.9c-1.2,0-2,0.3-2.6,1c-0.6,0.6-0.9,1.5-0.9,2.6c0,1.1,0.3,2,0.9,2.7
		c0.6,0.6,1.5,1,2.6,1s2-0.3,2.6-1C30.2,36.7,30.5,35.8,30.5,34.7z"/>
	<path class="st0" d="M40.5,41.4h-3.4v-1.8l4.4-6l-4.4-6v-1.8h3.6l3.3,4.9l3.3-4.9h3.4v1.8l-4.2,5.9l4.5,6.2v1.8h-3.5l-3.5-5.2
		L40.5,41.4z"/>
</g>
</svg>
