<?xml version="1.0" encoding="utf-8"?>
<!-- Generator: Adobe Illustrator 25.3.1, SVG Export Plug-In . SVG Version: 6.00 Build 0)  -->
<svg version="1.1" id="Layer_1" xmlns="http://www.w3.org/2000/svg" xmlns:xlink="http://www.w3.org/1999/xlink" x="0px" y="0px"
	 viewBox="0 0 60 60" style="enable-background:new 0 0 60 60;" xml:space="preserve">
<style type="text/css">
	.st0{fill:#01FFFD;}
	.st1{enable-background:new    ;}
</style>
<path class="st0" d="M60,60H0V0h60V60z M58.1,1.9H1.8v56.3h56.3V1.9z"/>
<g class="st1">
	<path class="st0" d="M15.4,39.4H4.7V37l4.9-4.9c1.2-1.2,1.9-2,2.2-2.4c0.3-0.5,0.5-1,0.5-1.6c0-0.7-0.2-1.2-0.6-1.7
		c-0.4-0.4-0.9-0.6-1.7-0.6c-1.6,0-2.4,1-2.4,2.9H4.7c0-1.7,0.5-3.1,1.5-4.1c1-1,2.3-1.5,3.9-1.5c1.7,0,3,0.5,3.9,1.4
		c0.9,1,1.4,2.1,1.4,3.5c0,1.1-0.3,2.1-0.8,2.9c-0.5,0.8-1.4,1.8-2.7,3l-3.1,2.9h6.6V39.4z"/>
	<path class="st0" d="M23.4,39.8c-1.6,0-2.9-0.4-3.9-1.3c-1-0.9-1.6-2-1.7-3.6h3c0.1,0.6,0.4,1.2,0.9,1.6c0.5,0.4,1.1,0.6,1.9,0.6
		c1.7,0,2.6-1,2.6-3.2c0-0.9-0.2-1.6-0.7-2.2c-0.5-0.5-1.1-0.8-1.8-0.8c-1,0-1.8,0.4-2.3,1.2h-2.9l0.9-8.8h9V26h-6.7l-0.3,3.2
		c0.9-0.5,1.9-0.7,2.9-0.7c1.4,0,2.6,0.4,3.5,1.3c1,0.9,1.4,2.2,1.4,4.1s-0.5,3.3-1.5,4.3C26.6,39.3,25.2,39.8,23.4,39.8z"/>
	<path class="st0" d="M37.1,39.8c-1.7,0-3.1-0.5-4.2-1.4c-1-1-1.5-2.3-1.5-3.9c0-1.4,0.5-2.9,1.6-4.6l4.2-6.5H40v1.1l-3.2,4.8
		c0.5-0.1,1-0.1,1.4-0.1c1.4,0,2.5,0.4,3.4,1.3c0.9,0.9,1.3,2.1,1.3,3.7c0,1.8-0.5,3.2-1.5,4.2C40.3,39.3,38.9,39.8,37.1,39.8z
		 M39.8,34.3c0-0.9-0.2-1.6-0.7-2c-0.5-0.5-1.1-0.7-2-0.7s-1.6,0.2-2,0.7c-0.4,0.5-0.7,1.2-0.7,2c0,0.9,0.2,1.6,0.7,2s1.1,0.7,2,0.7
		s1.5-0.2,2-0.7C39.6,35.8,39.8,35.1,39.8,34.3z"/>
	<path class="st0" d="M47.5,39.4h-2.6V38l3.4-4.6l-3.3-4.6v-1.4h2.7l2.5,3.7l2.6-3.7h2.6v1.4l-3.3,4.5l3.5,4.7v1.4h-2.7l-2.7-4
		L47.5,39.4z"/>
</g>
</svg>
