<?xml version="1.0" encoding="utf-8"?>
<!-- Generator: Adobe Illustrator 25.3.1, SVG Export Plug-In . SVG Version: 6.00 Build 0)  -->
<svg version="1.1" id="Layer_1" xmlns="http://www.w3.org/2000/svg" xmlns:xlink="http://www.w3.org/1999/xlink" x="0px" y="0px"
	 viewBox="0 0 60 60" style="enable-background:new 0 0 60 60;" xml:space="preserve">
<style type="text/css">
	.st0{fill:#01FFFD;}
	.st1{enable-background:new    ;}
</style>
<path class="st0" d="M60,60H0V0h60V60z M58.1,1.9H1.8v56.3h56.3V1.9z"/>
<g class="st1">
	<path class="st0" d="M10.3,40.4H7V27.3H5.2v-1.7l4.2-2.7h0.8V40.4z"/>
	<path class="st0" d="M25.3,40.4H13.7v-2.6l5.4-5.3c1.3-1.3,2.1-2.2,2.4-2.6c0.4-0.5,0.5-1.1,0.5-1.8c0-0.8-0.2-1.4-0.6-1.8
		c-0.4-0.5-1-0.7-1.8-0.7c-1.7,0-2.6,1-2.6,3.1h-3.2c0-1.9,0.5-3.4,1.6-4.4c1.1-1.1,2.5-1.6,4.2-1.6c1.9,0,3.3,0.5,4.3,1.6
		c1,1,1.5,2.3,1.5,3.8c0,1.2-0.3,2.2-0.8,3.1c-0.6,0.9-1.6,2-2.9,3.3l-3.4,3.2h7.1V40.4z"/>
	<path class="st0" d="M28.2,35.5c0-0.9,0.3-1.8,0.8-2.6c0.5-0.8,1.1-1.3,1.9-1.6c-0.8-0.5-1.3-1.1-1.7-1.7c-0.4-0.6-0.5-1.3-0.5-2.2
		c0-1.4,0.5-2.5,1.6-3.5c1.1-0.9,2.5-1.4,4.4-1.4c1.8,0,3.3,0.5,4.4,1.4c1.1,0.9,1.6,2.1,1.6,3.5c0,0.9-0.2,1.6-0.5,2.2
		c-0.4,0.6-0.9,1.1-1.7,1.7c0.8,0.3,1.4,0.8,1.9,1.6c0.5,0.8,0.8,1.7,0.8,2.6c0,1.7-0.6,2.9-1.7,3.9c-1.1,0.9-2.7,1.4-4.7,1.4
		s-3.5-0.5-4.7-1.4C28.7,38.4,28.2,37.1,28.2,35.5z M37.6,35.2c0-0.8-0.3-1.4-0.8-1.9s-1.3-0.7-2.2-0.7s-1.7,0.2-2.2,0.7
		s-0.8,1.1-0.8,1.9c0,0.8,0.3,1.5,0.8,2s1.3,0.8,2.3,0.8s1.7-0.2,2.3-0.8C37.3,36.6,37.6,36,37.6,35.2z M37.2,27.7
		c0-0.7-0.2-1.3-0.7-1.7c-0.5-0.4-1.1-0.6-2-0.6c-0.9,0-1.5,0.2-2,0.6c-0.5,0.4-0.7,1-0.7,1.7c0,0.8,0.2,1.4,0.7,1.8
		c0.5,0.4,1.1,0.6,1.9,0.6s1.4-0.2,1.9-0.6C36.9,29,37.2,28.4,37.2,27.7z"/>
	<path class="st0" d="M46.2,40.4h-2.8v-1.5l3.7-5l-3.6-5v-1.5h3l2.7,4.1l2.8-4.1h2.8v1.5l-3.5,4.9l3.8,5.1v1.5h-3l-2.9-4.3
		L46.2,40.4z"/>
</g>
</svg>
