<?xml version="1.0" encoding="utf-8"?>
<!-- Generator: Adobe Illustrator 25.3.1, SVG Export Plug-In . SVG Version: 6.00 Build 0)  -->
<svg version="1.1" id="Layer_1" xmlns="http://www.w3.org/2000/svg" xmlns:xlink="http://www.w3.org/1999/xlink" x="0px" y="0px"
	 viewBox="0 0 60 60" style="enable-background:new 0 0 60 60;" xml:space="preserve">
<style type="text/css">
	.st0{fill:#01FFFD;}
	.st1{enable-background:new    ;}
</style>
<path class="st0" d="M60,60H0V0h60V60z M58.1,1.9H1.8v56.3h56.3V1.9z"/>
<g class="st1">
	<path class="st0" d="M13.1,41.9c-2.3,0-4.1-0.7-5.4-2c-1.3-1.3-2-3.1-2-5.4h3.8c0,1.2,0.4,2.1,1,2.8c0.6,0.7,1.5,1,2.7,1
		c1.1,0,2-0.3,2.6-0.9c0.6-0.6,0.8-1.4,0.8-2.4c0-1.8-1.2-2.7-3.5-2.7h-1.3v-3.5h1.1c2.1,0,3.2-0.9,3.2-2.6c0-0.8-0.2-1.4-0.7-1.9
		c-0.5-0.5-1.2-0.8-2.1-0.8c-2.1,0-3.2,1.2-3.3,3.6H6.1c0-2.3,0.6-4,1.9-5.2s3-1.9,5.2-1.9c2.1,0,3.8,0.6,4.9,1.7
		c1.2,1.1,1.8,2.5,1.8,4.2c0,1.9-0.8,3.4-2.5,4.6c0.9,0.4,1.7,1,2.3,1.9c0.6,0.9,0.9,1.9,0.9,3.1c0,2-0.7,3.6-2,4.8
		C17.3,41.3,15.5,41.9,13.1,41.9z"/>
	<path class="st0" d="M37.7,41.4H23.8v-3.2l6.4-6.4c1.6-1.6,2.5-2.7,2.9-3.2c0.4-0.6,0.6-1.3,0.6-2.1c0-0.9-0.2-1.6-0.7-2.2
		c-0.5-0.6-1.2-0.8-2.2-0.8c-2.1,0-3.2,1.2-3.2,3.7h-3.8c0-2.3,0.6-4,1.9-5.3c1.3-1.3,3-2,5-2c2.2,0,4,0.6,5.1,1.9
		c1.2,1.2,1.8,2.8,1.8,4.5c0,1.4-0.3,2.7-1,3.7c-0.7,1.1-1.9,2.4-3.5,3.9l-4.1,3.8h8.6V41.4z"/>
	<path class="st0" d="M44.1,41.4h-3.4v-1.8l4.4-6l-4.4-6v-1.8h3.6l3.3,4.9l3.3-4.9h3.4v1.8L50,33.4l4.5,6.2v1.8H51l-3.5-5.2
		L44.1,41.4z"/>
</g>
</svg>
