<?xml version="1.0" encoding="utf-8"?>
<!-- Generator: Adobe Illustrator 25.3.1, SVG Export Plug-In . SVG Version: 6.00 Build 0)  -->
<svg version="1.1" id="Layer_1" xmlns="http://www.w3.org/2000/svg" xmlns:xlink="http://www.w3.org/1999/xlink" x="0px" y="0px"
	 viewBox="0 0 60 60" style="enable-background:new 0 0 60 60;" xml:space="preserve">
<style type="text/css">
	.st0{fill:#01FFFD;}
	.st1{enable-background:new    ;}
</style>
<path class="st0" d="M60,60H0V0h60V60z M58.1,1.9H1.8v56.3h56.3V1.9z"/>
<g class="st1">
	<path class="st0" d="M28.6,41.4H13.7V38l6.9-6.8c1.7-1.7,2.7-2.8,3.1-3.4c0.5-0.7,0.7-1.4,0.7-2.3c0-1-0.3-1.7-0.8-2.3
		c-0.5-0.6-1.3-0.9-2.4-0.9c-2.2,0-3.4,1.3-3.4,4h-4c0-2.4,0.7-4.3,2.1-5.7c1.4-1.4,3.2-2.1,5.4-2.1c2.4,0,4.2,0.7,5.5,2
		c1.3,1.3,1.9,2.9,1.9,4.8c0,1.5-0.4,2.9-1.1,4c-0.8,1.2-2,2.5-3.7,4.2l-4.3,4.1h9.1V41.4z"/>
	<path class="st0" d="M35.4,41.4h-3.6v-2l4.7-6.4l-4.7-6.4v-2h3.8l3.5,5.2l3.6-5.2h3.6v2l-4.5,6.3l4.8,6.6v2h-3.8l-3.7-5.6
		L35.4,41.4z"/>
</g>
</svg>
