<svg xmlns="http://www.w3.org/2000/svg" viewBox="0 0 170 100">
  <defs>
    <style>
      .cls-1 {
        opacity: 0.5;
      }

      .cls-2 {
        fill: #75fbfd;
      }
    </style>
  </defs>
  <title>Asset 16</title>
  <g id="Layer_2" data-name="Layer 2">
    <g id="UI">
      <g>
        <g>
          <g class="cls-1">
            <polygon points="0 0 0 100 52.08 100 170 100 170 36.65 170 0 0 0"/>
          </g>
          <g class="cls-1">
            <path class="cls-2" d="M164,5.94V94.06H6V5.94H164M170,0H0V100H170V0Z"/>
          </g>
        </g>
        <g>
          <path class="cls-2" d="M81.92,69.5v-4h4v4Zm.2-8v-16h3.6v16Z"/>
          <rect class="cls-2" x="121.17" y="49" width="42.67" height="2"/>
          <rect class="cls-2" x="6.17" y="69.5" width="65" height="2"/>
          <polygon class="cls-2" points="122.17 71.5 96.78 71.5 96.78 69.5 120.17 69.5 120.17 30.5 6.17 30.5 6.17 28.5 122.17 28.5 122.17 71.5"/>
        </g>
      </g>
    </g>
  </g>
</svg>
