<svg xmlns="http://www.w3.org/2000/svg" xmlns:xlink="http://www.w3.org/1999/xlink" viewBox="0 0 207 207"><defs><style>.cls-1{fill:aqua;}.cls-2{mask:url(#mask);}.cls-3{filter:url(#luminosity-noclip);}</style><filter id="luminosity-noclip" x="22" y="21" width="164" height="164" filterUnits="userSpaceOnUse" color-interpolation-filters="sRGB"><feFlood flood-color="#fff" result="bg"/><feBlend in="SourceGraphic" in2="bg"/></filter><mask id="mask" x="22" y="21" width="164" height="164" maskUnits="userSpaceOnUse"><g class="cls-3"><path d="M102.1,100.07c0,15.08-9.17,23.07-20.35,23.07-11.57,0-19.7-9-19.7-22.23,0-13.91,8.65-23,20.35-23C94.36,77.9,102.1,87.07,102.1,100.07Zm-34,.71c0,9.36,5.07,17.75,14,17.75s14-8.26,14-18.2c0-8.71-4.55-17.81-14-17.81S68.1,91.16,68.1,100.78Z"/><path d="M109.44,122.43V78.62h6.17l14,22.16A122.63,122.63,0,0,1,137.52,115l.13-.07c-.52-5.85-.65-11.18-.65-18V78.62h5.33v43.81h-5.72L122.7,100.2a138.22,138.22,0,0,1-8.19-14.63l-.2.07c.33,5.52.46,10.79.46,18.07v18.72Z"/></g></mask></defs><title>Asset 23</title><g id="Layer_2" data-name="Layer 2"><g id="Layer_1-2" data-name="Layer 1"><path class="cls-1" d="M103.5,12A91.5,91.5,0,1,1,12,103.5,91.61,91.61,0,0,1,103.5,12m0-12A103.5,103.5,0,1,0,207,103.5,103.5,103.5,0,0,0,103.5,0Z"/><g class="cls-2"><circle class="cls-1" cx="104" cy="103" r="76"/><path class="cls-1" d="M104,33a70,70,0,1,1-70,70,70.08,70.08,0,0,1,70-70m0-12a82,82,0,1,0,82,82,82,82,0,0,0-82-82Z"/></g></g></g></svg>