<svg id="Layer_1" data-name="Layer 1" xmlns="http://www.w3.org/2000/svg" viewBox="0 0 207 207"><defs><style>.cls-1{fill:aqua;}.cls-2{opacity:0.3;}</style></defs><title>light-off</title><path class="cls-1" d="M121.5,18A91.5,91.5,0,1,1,30,109.5,91.61,91.61,0,0,1,121.5,18m0-12A103.5,103.5,0,1,0,225,109.5,103.5,103.5,0,0,0,121.5,6Z" transform="translate(-18 -6)"/><g class="cls-2"><circle class="cls-1" cx="104" cy="103" r="76"/><path class="cls-1" d="M122,39a70,70,0,1,1-70,70,70.08,70.08,0,0,1,70-70m0-12a82,82,0,1,0,82,82,82,82,0,0,0-82-82Z" transform="translate(-18 -6)"/></g></svg>