<svg xmlns="http://www.w3.org/2000/svg" viewBox="0 0 170 100"><defs><style>.cls-1{fill:#75fbfd;}.cls-2{fill:#008480;}.cls-3{opacity:0.5;}</style></defs><title>Asset 7</title><g id="Layer_2" data-name="Layer 2"><g id="UI"><rect class="cls-1" x="6.18" y="69.74" width="50" height="2"/><polygon class="cls-1" points="107.18 71.74 81.79 71.74 81.79 69.74 105.18 69.74 105.18 30.74 6.18 30.74 6.18 28.74 107.18 28.74 107.18 71.74"/><rect class="cls-1" x="106.18" y="49.24" width="57.67" height="2"/><circle class="cls-2" cx="68.93" cy="57.57" r="18"/><path class="cls-1" d="M68.93,76.57a19,19,0,1,1,19-19A19,19,0,0,1,68.93,76.57Zm0-36a17,17,0,1,0,17,17A17,17,0,0,0,68.93,40.57Z"/><path class="cls-1" d="M66.93,69.57v-4h4v4Zm.2-8v-16h3.6v16Z"/></g></g></svg>