<svg id="Layer_1" data-name="Layer 1" xmlns="http://www.w3.org/2000/svg" viewBox="0 0 230 46"><defs><style>.cls-1{opacity:0.4;}.cls-2,.cls-3,.cls-4{fill:none;stroke:#fff;stroke-miterlimit:10;}.cls-2,.cls-3{stroke-width:2px;}.cls-3{stroke-dasharray:5.71 5.71;}.cls-4{stroke-width:3px;}.cls-5{fill:#fff;}</style></defs><title>blockIconTemplateslarge</title><g class="cls-1"><line class="cls-2" x1="46" x2="46" y2="3"/><line class="cls-3" x1="46" y1="8.71" x2="46" y2="40.14"/><line class="cls-2" x1="46" y1="43" x2="46" y2="46"/></g><circle class="cls-4" cx="114.5" cy="22.5" r="10"/><line class="cls-4" x1="114.5" y1="16.5" x2="114.5" y2="24.5"/><line class="cls-4" x1="114.5" y1="26" x2="114.5" y2="28"/><polyline class="cls-4" points="183.5 31 183.5 22.5 124.5 22.5"/><line class="cls-4" x1="183.5" y1="46" x2="183.5" y2="22.5"/><polyline class="cls-4" points="104 22.25 45.75 22.25 45.75 46"/><line class="cls-4" x1="45.75" y1="22.25" x2="45.75"/><path class="cls-5" d="M51,36.8a6.45,6.45,0,0,1,.3-2,5.48,5.48,0,0,1,.8-1.5,3.6,3.6,0,0,1,4.9-.7,4.62,4.62,0,0,1,.7.7,4.35,4.35,0,0,1,.8,1.5,6.49,6.49,0,0,1,0,3.9,4.35,4.35,0,0,1-.8,1.5,2.94,2.94,0,0,1-1.2,1,3.54,3.54,0,0,1-4.3-1,4.35,4.35,0,0,1-.8-1.5A3.81,3.81,0,0,1,51,36.8Zm2.4,0a4.1,4.1,0,0,0,.1,1.1,6.89,6.89,0,0,0,.3.8,2.65,2.65,0,0,0,.5.6,1,1,0,0,0,1.2,0,1,1,0,0,0,.5-.6,6.89,6.89,0,0,1,.3-.8,8.1,8.1,0,0,0,0-2.2,6.89,6.89,0,0,0-.3-.8,1.21,1.21,0,0,0-.5-.5,1,1,0,0,0-1.2,0,1.21,1.21,0,0,0-.5.5,6.89,6.89,0,0,1-.3.8A4.48,4.48,0,0,0,53.4,36.8Z"/><path class="cls-5" d="M66.3,32.3v9H64v-9Z"/><path class="cls-5" d="M190,36.8a6.45,6.45,0,0,1,.3-2,5.48,5.48,0,0,1,.8-1.5,3.6,3.6,0,0,1,4.9-.7,4.62,4.62,0,0,1,.7.7,4.35,4.35,0,0,1,.8,1.5,6.49,6.49,0,0,1,0,3.9,4.35,4.35,0,0,1-.8,1.5,2.94,2.94,0,0,1-1.2,1,3.54,3.54,0,0,1-4.3-1,4.35,4.35,0,0,1-.8-1.5A3.81,3.81,0,0,1,190,36.8Zm2.4,0a4.1,4.1,0,0,0,.1,1.1,6.89,6.89,0,0,0,.3.8,2.65,2.65,0,0,0,.5.6,1,1,0,0,0,1.2,0,1,1,0,0,0,.5-.6,6.89,6.89,0,0,1,.3-.8,8.1,8.1,0,0,0,0-2.2,6.89,6.89,0,0,0-.3-.8,1.21,1.21,0,0,0-.5-.5,1,1,0,0,0-1.2,0,1.21,1.21,0,0,0-.5.5,6.89,6.89,0,0,1-.3.8A4.48,4.48,0,0,0,192.4,36.8Z"/><path class="cls-5" d="M205.3,32.3v9H203v-9Z"/></svg>