<svg id="Layer_1" data-name="Layer 1" xmlns="http://www.w3.org/2000/svg" viewBox="0 0 216 120">
  <defs>
    <style>
      .cls-1 {
        fill: #008480;
      }

      .cls-2 {
        fill: #75fbfd;
      }
    </style>
  </defs>
  <title>icon</title>
  <circle class="cls-1" cx="83.34" cy="48.4" r="16.23"/>
  <path class="cls-2" d="M83.34,66A17.64,17.64,0,1,1,101,48.36,17.64,17.64,0,0,1,83.34,66Zm0-32.47A14.93,14.93,0,1,0,98.26,48.46h0A14.92,14.92,0,0,0,83.34,33.53Z"/>
  <path class="cls-2" d="M111.07,92.09A31.91,31.91,0,0,1,81.58,72.43a1.35,1.35,0,0,1,.74-1.77,1.37,1.37,0,0,1,1.77.74h0A29.16,29.16,0,1,0,99.87,33.27a1.36,1.36,0,0,1-1.05-2.51A31.89,31.89,0,1,1,111,92.09Z"/>
  <path class="cls-2" d="M81.73,58.14V54.9H85v3.24Zm.19-6.48v-13h2.91v13Z"/>
  <path class="cls-2" d="M118.62,68.71a1.35,1.35,0,0,1-1-.4l-7.53-7.53V42.16a1.36,1.36,0,1,1,2.72,0v17.5l6.78,6.79a1.36,1.36,0,0,1-1,2.32Z"/>
</svg>
