<?xml version="1.0" encoding="utf-8"?>
<!-- Generator: Adobe Illustrator 24.0.0, SVG Export Plug-In . SVG Version: 6.00 Build 0)  -->
<svg version="1.1" id="Layer_1" xmlns="http://www.w3.org/2000/svg" xmlns:xlink="http://www.w3.org/1999/xlink" x="0px" y="0px"
	 viewBox="0 0 246 150" style="enable-background:new 0 0 246 150;" xml:space="preserve">
<style type="text/css">
	.st0{fill:#75FBFD;}
	.st1{fill:#008480;}
</style>
<path class="st0" d="M126,150h-6v-14h6V150z M126,17h-6V0h6V17z"/>
<circle class="st1" cx="102" cy="64.7" r="16.2"/>
<path class="st0" d="M102,82.3c-9.7,0-17.6-7.9-17.6-17.7c0-9.7,7.9-17.6,17.7-17.6c9.7,0,17.6,7.9,17.6,17.6
	C119.7,74.4,111.8,82.3,102,82.3C102,82.3,102,82.3,102,82.3z M102,49.8c-8.2,0-14.9,6.7-14.9,14.9c0,8.2,6.7,14.9,14.9,14.9
	c8.2,0,14.9-6.7,14.9-14.9c0,0,0,0,0,0l0,0C116.9,56.5,110.2,49.8,102,49.8C102,49.8,102,49.8,102,49.8z"/>
<path class="st0" d="M129.7,108.4c-12.9,0-24.5-7.7-29.5-19.7c-0.3-0.7,0-1.5,0.7-1.8c0,0,0,0,0,0c0.7-0.3,1.5,0.1,1.8,0.7l0,0
	c6.2,14.9,23.2,21.9,38.1,15.7c14.9-6.2,21.9-23.2,15.7-38.1c-6.2-14.9-23.2-21.9-38.1-15.8c-0.7,0.3-1.5,0-1.8-0.7
	c-0.3-0.7,0-1.5,0.7-1.8l0,0c16.3-6.8,34.9,0.9,41.7,17.2c6.8,16.3-0.9,34.9-17.2,41.7C138.1,107.6,133.9,108.4,129.7,108.4
	L129.7,108.4z"/>
<path class="st0" d="M100.4,74.4v-3.2h3.3v3.2L100.4,74.4z M100.6,68V55h2.9v13H100.6z"/>
<path class="st0" d="M137.3,85c-0.4,0-0.7-0.1-1-0.4l-7.5-7.5V58.5c0-0.8,0.6-1.4,1.4-1.4c0.8,0,1.4,0.6,1.4,1.4V76l6.8,6.8
	c0.5,0.5,0.5,1.4,0,1.9C138,84.9,137.6,85.1,137.3,85L137.3,85z"/>
</svg>
